<svg width="34" height="34" viewBox="0 0 34 34" fill="none" xmlns="http://www.w3.org/2000/svg">
<g clip-path="url(#clip0_1388_3348)">
<path d="M2.69629 8.8536V25.1456L17.1104 33.2915L31.5244 25.1456V8.8536L17.1104 0.707642L2.69629 8.8536Z" fill="url(#paint0_linear_1388_3348)"/>
<path d="M13.7811 14.4329H11.9497V18.9455C11.9497 21.0212 13.6731 22.7084 15.7934 22.7084H18.4186C20.5389 22.7084 22.2624 21.0212 22.2624 18.9455V14.4329H20.4345C20.243 14.4329 20.0863 14.2795 20.0863 14.092H14.1257C14.1257 14.2795 13.9691 14.4329 13.7776 14.4329H13.7811Z" fill="url(#paint1_linear_1388_3348)"/>
<path d="M22.6145 13.7513H20.7832V12.3744C20.7832 10.8747 19.5367 9.65454 18.0048 9.65454H16.3475C14.739 9.65454 13.4334 10.936 13.4334 12.5073V13.7513H11.602C11.4106 13.7513 11.2539 13.9047 11.2539 14.0922V18.9457C11.2539 21.3963 13.2906 23.3902 15.794 23.3902H18.4191C20.9224 23.3902 22.9592 21.3963 22.9592 18.9457V14.0922C22.9592 13.9047 22.8025 13.7513 22.611 13.7513H22.6145ZM22.2663 18.9457C22.2663 21.0214 20.5429 22.7085 18.4226 22.7085H15.7974C13.6771 22.7085 11.9537 21.0214 11.9537 18.9457V14.433H13.7676C13.7676 14.433 13.7781 14.433 13.7816 14.433C13.9731 14.433 14.1297 14.2796 14.1297 14.0922V12.5107C14.1297 11.3144 15.1255 10.3396 16.3475 10.3396H18.0048C19.1537 10.3396 20.0868 11.253 20.0868 12.3778V14.0956C20.0868 14.283 20.2435 14.4364 20.435 14.4364H22.2629V18.9491L22.2663 18.9457Z" fill="white"/>
<path d="M18.8077 13.7513H15.5733C15.3818 13.7513 15.2251 13.9047 15.2251 14.0921C15.2251 14.2796 15.3818 14.433 15.5733 14.433H18.8077C18.9992 14.433 19.1559 14.2796 19.1559 14.0921C19.1559 13.9047 18.9992 13.7513 18.8077 13.7513Z" fill="white"/>
<path d="M18.2635 17.6263C18.2635 17.0435 17.783 16.5731 17.1877 16.5731C16.5923 16.5731 16.1118 17.0435 16.1118 17.6263C16.1118 18.0251 16.3416 18.3693 16.6793 18.55V19.7667C16.6793 20.019 16.8882 20.2235 17.1459 20.2235H17.2364C17.494 20.2235 17.7029 20.019 17.7029 19.7667V18.55C18.0372 18.3727 18.2705 18.0285 18.2705 17.6263H18.2635Z" fill="white"/>
<path d="M31.9596 8.31126L17.3715 0.0664628C17.2113 -0.0221543 17.0094 -0.0221543 16.8492 0.0664628L2.26112 8.31126C2.10097 8.40329 2 8.57371 2 8.75435V25.2439C2 25.4246 2.10097 25.595 2.26112 25.687L16.8492 33.9318C16.9293 33.9761 17.0198 34 17.1104 34C17.2009 34 17.2914 33.9761 17.3715 33.9318L31.9596 25.687C32.1197 25.595 32.2207 25.4246 32.2207 25.2439V8.75435C32.2207 8.57371 32.1197 8.40329 31.9596 8.31126ZM29.4424 23.7545C29.505 23.6079 29.5398 23.4443 29.5398 23.2739C29.5398 22.7047 29.1464 22.2276 28.6137 22.0776V11.9514C29.1534 11.798 29.5538 11.314 29.5538 10.738C29.5538 10.5642 29.5189 10.3972 29.4528 10.2438L31.5244 9.06451V24.9372L29.4424 23.7579V23.7545ZM17.1034 28.3217C16.7448 28.3217 16.421 28.4648 16.1842 28.6966L7.20506 23.6216C7.23292 23.5159 7.25381 23.4068 7.25381 23.2944C7.25381 22.7115 6.84645 22.2276 6.29635 22.0878V11.9514C6.84994 11.8082 7.26425 11.314 7.26425 10.7278C7.26425 10.6051 7.23988 10.4892 7.20855 10.3767L16.1982 5.29487C16.4314 5.52664 16.7517 5.66979 17.1069 5.66979C17.462 5.66979 17.7858 5.52664 18.0156 5.29487L27.0122 10.3801C26.9773 10.4926 26.953 10.6119 26.953 10.7346C26.953 11.3208 27.3638 11.8116 27.9139 11.9582V22.0742C27.3743 22.2207 26.9773 22.7013 26.9773 23.2739C26.9773 23.3898 26.9982 23.5023 27.0296 23.6113L18.0191 28.7034C17.7823 28.4717 17.4585 28.3251 17.0964 28.3251L17.1034 28.3217ZM17.1034 30.1826C16.7726 30.1826 16.5011 29.9168 16.5011 29.593C16.5011 29.2692 16.7726 29.0034 17.1034 29.0034C17.4341 29.0034 17.7057 29.2692 17.7057 29.593C17.7057 29.9168 17.4341 30.1826 17.1034 30.1826ZM4.77139 10.2336C4.70524 10.3835 4.67042 10.5505 4.67042 10.7278C4.67042 11.3038 5.06733 11.7844 5.60351 11.9412V22.1049C5.08126 22.2616 4.69828 22.732 4.69828 23.2944C4.69828 23.4614 4.73309 23.6182 4.79228 23.7613L2.69633 24.9508V9.05087L4.77139 10.2336ZM5.96908 11.3174C5.63832 11.3174 5.36675 11.0516 5.36675 10.7278C5.36675 10.404 5.63832 10.1381 5.96908 10.1381C6.29984 10.1381 6.5714 10.404 6.5714 10.7278C6.5714 11.0516 6.29984 11.3174 5.96908 11.3174ZM28.2551 11.3242C27.9244 11.3242 27.6528 11.0584 27.6528 10.7346C27.6528 10.4108 27.9244 10.145 28.2551 10.145C28.5859 10.145 28.8574 10.4108 28.8574 10.7346C28.8574 11.0584 28.5859 11.3242 28.2551 11.3242ZM31.3573 8.76116L29.2683 9.95068C29.0315 9.65756 28.6659 9.46329 28.2551 9.46329C27.9174 9.46329 27.6145 9.5928 27.3812 9.80071L18.3498 4.695C18.3707 4.60639 18.3846 4.51436 18.3846 4.41552C18.3846 3.78156 17.9007 3.2635 17.2775 3.1817V0.802666L31.3573 8.76116ZM16.9328 0.806075V3.1817C16.3131 3.2669 15.8326 3.78497 15.8326 4.41552C15.8326 4.51095 15.8465 4.60298 15.8674 4.695L6.84645 9.79389C6.61667 9.58599 6.31028 9.45647 5.97256 9.45647C5.55824 9.45647 5.19615 9.65074 4.9594 9.94386L2.87389 8.75435L16.9328 0.806075ZM2.87041 25.2439L4.96985 24.0544C5.20312 24.351 5.56521 24.5452 5.97604 24.5452C6.31376 24.5452 6.61667 24.4157 6.84645 24.2078L15.8465 29.2965C15.8221 29.3919 15.8047 29.4942 15.8047 29.5964C15.8047 30.2372 16.2956 30.7655 16.9293 30.8507V33.1956L2.87041 25.2439ZM17.2775 33.1956V30.8473C17.9111 30.7621 18.402 30.2372 18.402 29.593C18.402 29.4908 18.3881 29.3919 18.3637 29.2965L27.4021 24.1874C27.6284 24.3919 27.9313 24.5214 28.2656 24.5214C28.6729 24.5214 29.0315 24.3305 29.2648 24.0408L31.3677 25.2337L17.281 33.1956H17.2775Z" fill="white"/>
</g>
<defs>
<linearGradient id="paint0_linear_1388_3348" x1="17.1104" y1="0.707642" x2="17.1104" y2="33.2915" gradientUnits="userSpaceOnUse">
<stop stop-color="#52FF00"/>
<stop offset="1" stop-color="#52FF00" stop-opacity="0"/>
</linearGradient>
<linearGradient id="paint1_linear_1388_3348" x1="17.106" y1="10.0954" x2="17.106" y2="22.7084" gradientUnits="userSpaceOnUse">
<stop stop-color="#52FF00" stop-opacity="0"/>
<stop offset="1" stop-color="#52FF00"/>
</linearGradient>
<clipPath id="clip0_1388_3348">
<rect width="34" height="34" fill="white"/>
</clipPath>
</defs>
</svg>
