<svg width="34" height="34" viewBox="0 0 34 34" fill="none" xmlns="http://www.w3.org/2000/svg">
<g clip-path="url(#clip0_1388_3339)">
<path d="M30.8882 5.79496C23.0717 4.71764 18.392 1.50609 17.2909 0.673462C16.1898 1.50609 11.5101 4.71764 3.69363 5.79496C3.67324 9.24441 3.69363 20.0583 3.69363 20.1705C3.69363 20.2079 3.60867 21.5061 4.4345 22.6684C5.61377 24.3302 10.2187 29.4653 17.2909 33.2512C24.3631 29.4619 28.9681 24.3302 30.1473 22.6684C30.9732 21.5061 30.8882 20.2113 30.8882 20.1977C30.8882 20.0617 30.912 9.24441 30.8882 5.79496Z" fill="url(#paint0_linear_1388_3339)"/>
<path d="M14.0151 14.0701H12.2275V18.5696C12.2275 20.6393 13.9098 22.3216 15.9794 22.3216H18.5419C20.6115 22.3216 22.2938 20.6393 22.2938 18.5696V14.0701H20.5096C20.3227 14.0701 20.1697 13.9171 20.1697 13.7302H14.3516C14.3516 13.9171 14.1986 14.0701 14.0117 14.0701H14.0151Z" fill="url(#paint1_linear_1388_3339)"/>
<path d="M18.9189 14.0704H15.7618C15.5749 14.0704 15.4219 13.9174 15.4219 13.7305C15.4219 13.5436 15.5749 13.3907 15.7618 13.3907H18.9189C19.1059 13.3907 19.2588 13.5436 19.2588 13.7305C19.2588 13.9174 19.1059 14.0704 18.9189 14.0704Z" fill="white"/>
<path d="M22.6331 13.3905H20.8455V12.0175C20.8455 10.5222 19.6288 9.30554 18.1335 9.30554H16.5158C14.9457 9.30554 13.6713 10.58 13.6713 12.1501V13.3905H11.8837C11.6968 13.3905 11.5439 13.5434 11.5439 13.7303V18.5698C11.5439 21.0133 13.532 23.0014 15.9755 23.0014H18.5379C20.9814 23.0014 22.9695 21.0133 22.9695 18.5698V13.7303C22.9695 13.5434 22.8166 13.3905 22.6297 13.3905H22.6331ZM22.2932 18.5698C22.2932 20.6394 20.611 22.3217 18.5413 22.3217H15.9789C13.9092 22.3217 12.227 20.6394 12.227 18.5698V14.0702H13.9976C13.9976 14.0702 14.0078 14.0702 14.0112 14.0702C14.1981 14.0702 14.351 13.9173 14.351 13.7303V12.1535C14.351 10.9606 15.323 9.98863 16.5158 9.98863H18.1335C19.255 9.98863 20.1658 10.8994 20.1658 12.0209V13.7337C20.1658 13.9207 20.3187 14.0736 20.5056 14.0736H22.2898V18.5732L22.2932 18.5698Z" fill="white"/>
<path d="M18.3849 17.2546C18.3849 16.6735 17.9159 16.2045 17.3348 16.2045C16.7536 16.2045 16.2847 16.6735 16.2847 17.2546C16.2847 17.6522 16.5089 17.9955 16.8386 18.1756V19.3888C16.8386 19.6403 17.0425 19.8442 17.294 19.8442H17.3824C17.6338 19.8442 17.8378 19.6403 17.8378 19.3888V18.1756C18.164 17.9989 18.3917 17.6556 18.3917 17.2546H18.3849Z" fill="white"/>
<path d="M31.5679 5.69074C31.5679 5.43925 31.3776 5.22515 31.1261 5.19116C23.1091 4.12065 18.4532 0.769754 17.6002 0.107052C17.4167 -0.035684 17.1618 -0.035684 16.9783 0.107052C16.1253 0.769754 11.4728 4.12065 3.45237 5.19116C3.19749 5.22515 3.01057 5.43585 3.01057 5.69074C2.98678 8.96347 3.01057 20.1105 3.01057 20.1954C3.00717 20.2566 2.90522 21.7417 3.87378 23.1113C5.08364 24.8173 9.81091 30.0884 17.0429 33.9422C17.1176 33.983 17.1992 34 17.2842 34C17.3691 34 17.4507 33.9796 17.5254 33.9388C24.7574 30.085 29.4847 24.8139 30.6945 23.1079C31.6665 21.7383 31.5645 20.2532 31.5611 20.2192C31.5611 20.1071 31.5849 8.96347 31.5611 5.68734L31.5679 5.69074ZM30.7931 5.83347L29.172 7.16228C28.9409 6.91079 28.6113 6.75106 28.2442 6.75106C27.7888 6.75106 27.3912 6.99575 27.1669 7.35599C22.8882 6.60493 19.9621 5.06882 18.5178 4.15463C18.5246 4.10705 18.5314 4.05947 18.5314 4.0085C18.5314 3.37638 18.0624 2.86321 17.4541 2.77825V0.847918C18.7965 1.82668 23.3674 4.79014 30.7897 5.83347H30.7931ZM28.0403 19.5905C28.0403 19.5905 28.1083 20.5998 27.4626 21.5106C26.5824 22.7477 23.313 26.4112 18.2731 29.3407C18.0454 29.0416 17.6886 28.8479 17.2842 28.8479C16.8797 28.8479 16.5263 29.0416 16.2986 29.3373C11.2655 26.4078 7.99613 22.7477 7.11593 21.5106C6.47701 20.6066 6.53819 19.6007 6.54158 19.5633C6.54158 19.5633 6.53819 12.2362 6.54158 9.22855C7.06155 9.07562 7.44558 8.60323 7.45237 8.03908C11.7786 7.29142 14.7795 5.75531 16.3224 4.79354C16.5501 5.07562 16.8967 5.25913 17.2875 5.25913C17.6784 5.25913 18.025 5.07562 18.2561 4.79014C19.7786 5.74172 22.7319 7.25743 26.98 8.01529C26.98 8.01529 26.98 8.01869 26.98 8.02209C26.98 8.65421 27.4456 9.17417 28.0471 9.26933C28.0573 12.7052 28.0403 19.4987 28.0403 19.5939V19.5905ZM6.18814 7.43076C6.511 7.43076 6.77608 7.69584 6.77608 8.01869C6.77608 8.34155 6.511 8.60663 6.18814 8.60663C5.86529 8.60663 5.60021 8.34155 5.60021 8.01869C5.60021 7.69584 5.86529 7.43076 6.18814 7.43076ZM28.2442 8.60663C27.9214 8.60663 27.6563 8.34155 27.6563 8.01869C27.6563 7.69584 27.9214 7.43076 28.2442 7.43076C28.5671 7.43076 28.8322 7.69584 28.8322 8.01869C28.8322 8.34155 28.5671 8.60663 28.2442 8.60663ZM17.1176 0.854715V2.77825C16.5093 2.86321 16.0403 3.37638 16.0403 4.0085C16.0403 4.05947 16.0505 4.11045 16.0539 4.16143C14.5926 5.08921 11.6223 6.63891 7.27565 7.37978C7.05475 7.00595 6.65373 6.75106 6.18814 6.75106C5.85509 6.75106 5.55603 6.8836 5.32833 7.09431L3.79222 5.83347C11.1941 4.79354 15.7616 1.84367 17.1176 0.854715ZM30.1474 22.7205C28.9681 24.3857 24.3632 29.5174 17.2909 33.3033C10.2187 29.514 5.6138 24.3823 4.43453 22.7205C3.6087 21.5582 3.69367 20.2634 3.69367 20.2226C3.69367 20.1139 3.66988 9.95922 3.69027 6.19031L5.11083 7.35599C4.99188 7.5497 4.92051 7.774 4.92051 8.01869C4.92051 8.60323 5.32153 9.09261 5.86189 9.23874C5.86189 12.2464 5.86189 19.5395 5.86529 19.5395C5.86189 19.5905 5.78033 20.7969 6.56537 21.9048C7.47277 23.1827 10.861 26.9754 16.0505 29.9796C16.0471 30.0204 16.0403 30.0578 16.0403 30.0952C16.0403 30.785 16.5977 31.3424 17.2875 31.3424C17.9774 31.3424 18.5348 30.785 18.5348 30.0952C18.5348 30.0578 18.528 30.0204 18.5246 29.983C23.7209 26.9788 27.1125 23.1827 28.0199 21.9048C28.8084 20.7969 28.7234 19.5905 28.72 19.5667C28.72 19.4953 28.737 12.6066 28.7268 9.19116C29.189 9.00085 29.5118 8.54885 29.5118 8.01869C29.5118 7.81139 29.4575 7.61427 29.3657 7.44095L30.8916 6.19031C30.9086 9.95922 30.8882 20.1172 30.8916 20.2464C30.8916 20.26 30.9766 21.5548 30.1508 22.7171L30.1474 22.7205Z" fill="white"/>
<path fill-rule="evenodd" clip-rule="evenodd" d="M17.1548 33.4024V30.1296H17.521V33.4024H17.1548Z" fill="white"/>
</g>
<defs>
<linearGradient id="paint0_linear_1388_3339" x1="17.2917" y1="0.673462" x2="17.2917" y2="33.2699" gradientUnits="userSpaceOnUse">
<stop stop-color="#00C1CD"/>
<stop offset="1" stop-color="#00C1CD" stop-opacity="0"/>
</linearGradient>
<linearGradient id="paint1_linear_1388_3339" x1="17.2473" y1="22.3253" x2="17.2473" y2="7.68477" gradientUnits="userSpaceOnUse">
<stop stop-color="#00C1CD"/>
<stop offset="1" stop-color="#00C1CD" stop-opacity="0"/>
</linearGradient>
<clipPath id="clip0_1388_3339">
<rect width="34" height="34" fill="white"/>
</clipPath>
</defs>
</svg>
