<svg xmlns="http://www.w3.org/2000/svg" fill="none" viewBox="0 0 242 90">
  <mask id="b" width="241" height="75" x="0" y="8" maskUnits="userSpaceOnUse" style="mask-type:alpha">
    <mask id="a" width="241" height="75" x="0" y="8" maskUnits="userSpaceOnUse" style="mask-type:luminance">
      <path fill="#fff" d="M0 8h240.796v74.151H0V8Z"/>
    </mask>
    <g fill="#fff" mask="url(#a)">
      <path d="M59.789 8c-.145 0-.289 0-.42.012-1.063.072-2.993.28-4.247.314-1.25.026-1.718.307-1.843.468-.128.164.327.832.84.942.515.11 3.38-.032 4.374-.007.995.026 2.665-.946 2.947-1.136.579-.391-.63-.593-1.651-.593Zm-6.972.914c-.288-.07-7.204 3.86-7.545 4.368.105.581.827 1.528 1.235 1.704 1.134-1.196 1.442-1.097 3.018-2.161 1.57-1.064 4.367-2.599 4.26-2.671-.36-.235-.682-1.172-.968-1.24Zm-8.047 5.073c-.729.856-4.927 6.941-6.957 11.04-1.022 1.743-2.774 2.894-2.699 4.1.067 1.21 2.61 1.294 2.951.936.341-.366.642-1.3.901-2.156.27-.848 3.127-5.948 3.821-7.124.694-1.167 3.547-5.366 3.547-5.366s-1.377-1.202-1.557-1.43h-.008ZM70.742 19.7c-4.768.008-11.927 1.652-12.184 1.821-.264.176.803 1.85 1.07 1.985.262.138 6.966-1.593 11.147-1.926-.735-.328.89-1.86.89-1.86-.305-.014-.61-.02-.916-.02h-.007ZM57.78 21.913c-.207-.13-12.568 7.262-16.067 11.923l3.251.946c.341-.098 5.931-5.994 11.199-9.148 2.71-1.638 2.984-1.774 2.845-1.88-.14-.098-1.014-1.717-1.228-1.846v.005ZM35.06 29.716c-.192.384 1.382 4.74 1.442 5.25.06.515.928 5.014.83 5.36-.102.345-.563.77-.361.86.025.012.052.021.079.027.02 0 .048.014.072.014-.024 0-.046-.01-.072-.014a.312.312 0 0 1-.072-.026c-.37.157-.649.274-.837.333-.3-.305-1.963-1.613-2.477-2.61-.56-1.086-1.153-4.599-1.329-4.657-.16-.052-2.492-.183-2.83-.483-.207.38.338 6.203.533 6.894-.108 0-.214 0-.3.021-.608-.66-3.346-5.877-3.473-5.95-.127-.07-1.99.551-2.466.727.337.776 1.284 5.98 2.178 8.115a18.95 18.95 0 0 0-3.533-2.369h-.012a8.747 8.747 0 0 0-.514-.248 7.356 7.356 0 0 0-.416-.183c-.02-.007-.038-.021-.065-.026-.322-.134-.65-.254-.983-.36-.026-.005-.06-.02-.086-.024a5.045 5.045 0 0 0-.42-.117c-.034-.01-.068-.024-.102-.029-.144-.04-.293-.07-.44-.105-.026 0-.047-.012-.072-.019a12.88 12.88 0 0 0-.528-.091c0-.014-.555-1.287-2.338-1.038-1.79.255-3.44 1.692-3.44 1.692s.29-.073.695-.164c-.36.105-.701.222-1.033.34-.12.046-.24.084-.356.13-.1.038-.192.078-.288.118l-.334.136c-.091.04-.18.08-.274.117-.091.04-.185.086-.279.124-.1.047-.187.094-.28.131-.068.033-.128.066-.193.094-.108.05-.21.103-.308.155-.014.007-.033.011-.048.026-.21.107-.416.22-.62.34-4.508 1.965-7.62 7.065-8.475 9.466-.942 2.646-.2 11.492-.567 12.348-.368.855-1.142 1.828-.308 2.193.836.366 2.699-1.024 2.684-1.743-.012-.713-.853-1.58 1.235-2.573 2.091-.992 8.147-.059 8.147-.059v-.084c1.918.534 4.65.424 4.816.248 0 0 .12.026.3.052-.031 0-.08-.012-.106-.012.067.012.135.019.207.033a6.538 6.538 0 0 0 3.165-.307l-.024.004a7.911 7.911 0 0 0 1.187-.482v-.117.065c1.862-1.03 3.311-2.742 4.268-4.134l-.015.007a5.6 5.6 0 0 0 1.596-2.762v.02c0 .034.014.06.021.085 0 .007 0 .019.005.026.015.026.022.051.041.07a.14.14 0 0 0 .072.054h.096a.43.43 0 0 0 .106-.04l-.012.054s.901-.314 1.1-.668c.128-.213.44-.841.736-1.37.241-.319.479-.639.714-.961.019-.03.048-.057.067-.09.529-.482 1.468-1.288 1.634-1.64.02-.04.04-.08.055-.122h.087c.04 0 .072 0 .105.012l.154.04c0 .096.008.183.041.241.447.797.793 1.294 1.57 1.28.081 0 .168-.014.247-.026l.048.047.346.063h.04c.102.02.203.033.306.04h.014c.214.026.421.033.608.033h.02c.096 0 .187 0 .274-.007.096 0 .18-.014.266-.026l.24-.04h.015c.147-.03.291-.069.433-.117.082-.027.162-.06.24-.099.034-.011.067-.032.1-.046.056-.024.102-.052.155-.078.026-.019.06-.033.086-.051.068-.04.135-.085.192-.124l.082-.059.127-.099.073-.058.16-.143c.087-.084.162-.171.236-.255l.034-.04.178-.22.033-.04c.041-.051.08-.103.115-.157l.173-.242.027-.04c2.038 5.048 3.867 11.4 4.02 12.55.507-.732 1.738-.282 1.83-.32.52-.234-1.015-5.647-1.068-6.261-.04-.478-1.562-4.478-2.778-7.318.094-.073.188-.146.274-.223.065.11.12.176.144.169l.683-.586c-.039.194-.068.326-.106.534l-.072.347c-.048.253-.096.476-.115.612 0 .035-.008.065 0 .093 0 .024.007.059.019.078.142.351.968.304 1.336-.085.053-.058.094-.112.135-.164a1.29 1.29 0 0 0 .086-.164c.049-.128.082-.262.099-.398 0-.03.014-.059.021-.09.012-.06.024-.123.04-.182.039-.147.097-.288.174-.42 0 0 0-.011.007-.011l.072-.157.027-.066a1.78 1.78 0 0 0 .04-.105c.027-.085.06-.169.087-.26a.608.608 0 0 1 .027-.08c.033-.112.062-.225.086-.34.048-.183.082-.351.12-.527.041-.197.072-.373.101-.523.687-.628 1.216-1.143 1.182-1.202-.096-.157-.668-2.343-.535-3.133-.493-.094-.866.776-1.296 1.242a.584.584 0 0 1-.091.09c-.063-.092-.1-.165-.168-.268l-1.322 1.254s-.281-.04-.54-.183c.17.086.352.148.54.183l1.456-1.378s.74-6.986.654-7.183c-.067-.164-2.624-1.188-2.792-1.063-.154.117-.46 6.268-.488 6.842-.21-.054-.421-.1-.635-.136-.185-.928-1.014-3.834-1.266-4.949-.27-1.176-.916-3.428-1.07-4.05-.16-.625-.033-1.305-.206-1.337 0 0-2.312.28-2.973-.633l.041-.04Zm-2.172.45c-.913 0-1.656.478-1.656.478s-.428.019-1.081.37c-.654.352-.901 1.392-.755 2.163.147.769 2.53.933 2.958.783.42-.15.729-1.62.75-2.01.012-.399 1.528-.34 1.528-.34.294-.188-.567-1.36-1.557-1.43h-.187v-.014Zm1.148 1.62a.349.349 0 0 0-.18.058c-.447.267-.473.984-.391 1.3.079.312.634 5.414.648 5.79-.024.17 1.106 1.398 1.106 1.398s-.339-7.026-.219-7.534c.099-.446-.51-1.053-.956-1.02l-.008.007Zm-10.188.88c-2.726-.051-8.964 3.056-10.391 4.036-1.43.98-2.605 4.846-2.605 4.846l1.716-.773c.456-1.88 1.982-2.984 4.673-4.263 2.687-1.284 6.006-1.462 6.433-1.35.421.117 1.836-.515 2.163-.745.327-.23.736-1.697-1.99-1.75Zm6.216 8.07c.168.14 2.583 1.353 3.833 1.28 1.096-.058 2.076-.24 2.264-.377a.1.1 0 0 0 .026-.033.127.127 0 0 1-.024.033c-.19.14-1.17.326-2.266.384-1.25.066-3.667-1.143-3.833-1.279v-.007Zm9.51.071c.475 0 .888.047 1.035.035-.3.024-1.658-.157-2.425.136a5.28 5.28 0 0 1-.82.256.68.68 0 0 1-.228.007c.068.004.14 0 .229-.007.185-.026.44-.106.82-.256.386-.143.915-.168 1.388-.168v-.003Zm-.227.282c-.1 0-.192.007-.288.014a3.97 3.97 0 0 1 .288-.012v-.002Zm-.514.04c-.07.004-.138.013-.207.025.065-.005.14-.019.207-.023v-.003Zm-.83.138c-.056.01-.112.023-.167.04l.168-.04Zm3.394 0c.035.06.064.122.087.187-.027-.07-.06-.129-.087-.187Zm4.268.023c-.048 0-.082 0-.101.016-.368.11.255 2.344.401 2.827.154.482 3.398 1.612 8.82 3.233 5.423 1.617 8.629 3.422 9.53 3.864.904.444 2.225 1.454 2.571 2.082.45-.614 1.817-.563 1.99-.462.175.096-.065-.83-.935-1.687-.865-.853-4.157-3.276-9.261-5.47-5.102-2.188-7.522-2.718-8.521-3.213-.942-.464-3.826-1.195-4.487-1.195l-.007.005Zm-8.007.06c-.057.014-.114.031-.168.053.053-.02.108-.033.168-.052Zm-.293.092a3.478 3.478 0 0 0-.154.059c.046-.019.091-.04.154-.059Zm-.248.099c-.055.023-.1.051-.142.07.046-.026.093-.05.142-.07Zm-.521.34-.02.018c0-.007.013-.014.02-.019Zm-4.85.724c0 .025 0 .051-.012.077a.323.323 0 0 0 .012-.077Zm9.348.018s-.005.015-.012.015c0 0 .005-.015.012-.015Zm-9.36.066s-.014.047-.026.066a.252.252 0 0 0 .026-.066Zm-.04.08-.041.063a.555.555 0 0 0 .04-.063Zm-.053.077-.06.066c.019-.02.038-.047.06-.066Zm-.072.08-.082.07.08-.07h.002Zm-.097.077s-.048.033-.064.052c.024-.02.048-.033.064-.052Zm-.158.11c-.06.04-.12.08-.18.113l.18-.113Zm-17.617.204c.168 0 .334 0 .493.012-.325-.014-.65-.014-.976 0l.48-.019.003.007Zm1.067.052c.168.018.341.04.514.07-.173-.024-.339-.052-.514-.07Zm-2.583.072c-.15.024-.3.053-.447.084.144-.032.3-.058.447-.084Zm-.5.096c-.096.021-.195.047-.289.066.094-.023.188-.047.289-.066Zm18.69.04c-.093.04-.192.08-.292.11.098-.037.2-.07.293-.11Zm-13.985.11c.168.054.341.106.517.164-.176-.058-.344-.117-.517-.164Zm13.584.04c-.1.033-.199.07-.3.106.101-.033.2-.066.3-.106Zm-19.493.138c-.048.012-.099.033-.144.047.045-.023.096-.035.144-.047Zm19.794.124s-.02.012-.034.012c.015 0 .022-.011.034-.011Zm-12.366.275c.045.018.091.047.14.063-.047-.02-.094-.042-.14-.063Zm9.723.084s-.027 0-.041.007c.014 0 .026 0 .04-.007Zm-.313.052s-.036 0-.055.007c.02 0 .036 0 .055-.007Zm-18.446.112c-.074.033-.142.07-.216.103.074-.04.142-.068.216-.103Zm-1.516.86c-.06.04-.12.08-.188.117l.188-.117Zm-1.925 1.425c-.173.15-.339.293-.493.431.154-.138.32-.288.493-.431Zm-1.014.92a3.78 3.78 0 0 0-.168.17c.062-.059.108-.11.168-.17Zm2.932.34h.033c-.053 0-.108 0-.16.005.04 0 .081-.004.127-.004Zm.908.024s.053 0 .087.007a.625.625 0 0 1-.087-.007Zm-4.275.068-.159.169c.053-.052.099-.11.159-.169Zm4.763 0 .094.019c-.034 0-.058-.014-.094-.019Zm.492.096.097.026a.525.525 0 0 1-.097-.026Zm.503.145.053.02c-.02 0-.034-.015-.053-.02Zm-6.044.059a7.012 7.012 0 0 0-.341.384l-.012.014c.072-.086.2-.23.353-.398Zm1.048.253c-.113.059-.233.117-.346.183.113-.066.226-.124.346-.183Zm5.904.047s.053.023.08.04l-.08-.04Zm.473.241s.053.033.087.047c-.024-.014-.053-.033-.086-.047Zm.47.282.071.046c-.024-.014-.048-.035-.072-.046Zm.432.3s.04.032.067.046c-.02-.014-.04-.035-.067-.047Zm-9.283.592c-.097.102-.19.207-.28.314l.28-.314Zm9.703-.274s.048.04.067.061c-.019-.021-.048-.04-.067-.06Zm20.155.347c-.454.026-1.735 1.612-2.156 2.259-.461.705-1.483 2.718-2.992 3.93-1.509 1.22-8.382 9.86-9.062 10.906-.682 1.043 1.51 2.322 2.456 1.488.95-.837 8.562-11.244 10.538-12.577 1.978-1.336 2.932-2.671 3.112-3.48.18-.815.456-.947.074-1.024-.38-.08-1.555-.83-1.855-1.45a.144.144 0 0 0-.115-.047v-.005Zm-19.72.026s.053.047.072.07c-.024-.023-.053-.044-.072-.07Zm.42.417.068.072a.465.465 0 0 0-.067-.07v-.002Zm-11.15.178c-.09.113-.175.23-.254.352v.007c.086-.125.173-.242.26-.36h-.008.002Zm22.75.75c.101.262.2.515.281.764a21.299 21.299 0 0 0-.28-.764Zm-10.131 1.026.055.092-.055-.094v.002Zm53.699.352c-.721-.026-1.495.522-1.457.562.056.059 2.632 7.398 3.881 9.102 1.25 1.703 1.735 3.206 1.735 3.206s.27.984.99.946c.721-.04.373-.954.08-1.176-.289-.223-.42-.469-.42-.469s-3.341-11.206-4.134-11.916a1.076 1.076 0 0 0-.673-.262l-.002.007Zm-53.358.248.027.052c-.008-.019-.022-.033-.027-.052Zm-4.294 1.617.202.5a7.85 7.85 0 0 0-.202-.5Zm.255.66c.067.179.127.362.187.538l-.187-.537Zm.226.662c.067.194.127.384.18.574l-.18-.574Zm.194.625c.067.216.12.425.18.633-.062-.21-.122-.421-.18-.633Zm14.483.47a1.145 1.145 0 0 1-.105.079l.105-.08Zm-13.697 3.135.089.614c-.02-.176-.055-.385-.09-.614Zm.103.778.032.346c-.005-.093-.02-.21-.032-.346Zm32.18.625c-.16.007-.317.047-.46.117-.936.406-.6.994-.735 1.868-.134.877-.26 11.06-.374 11.766-.12.706.1 1.287.475 1.805.265-.029.5-.708.5-.708s-.207 0-.12-.45 1.562-12.34 1.528-13.163c-.024-.665-.233-1.253-.814-1.235Zm-24.574.106s-.026 0-.04.007c.014 0 .026 0 .04-.007Zm-.743.11s-.06 0-.086.007c.026 0 .06 0 .086-.007Zm-1.182 6.301s-.031 0-.053.014c-.307.124-3.292 6.266-3.506 6.993-.214.724-.528 1.828-.593 2.022-.072.197-.3-.019-.3-.019s-.207 1.097.079 1.038c.288-.058.709-.468.817-.829.098-.359.48-.15 1.956-2.083 1.475-1.931 3.424-4.804 3.544-5.367.12-.562-.086-.803-.987-.946-.642-.099-.688-.823-.95-.816l-.007-.007Zm54-48.271s-.808.986-.77 1.418c.041.43.93.417 1.738.646.807.228 3.145 1.346 3.873 1.397.729.052-4.842-3.461-4.842-3.461Z"/>
      <path d="M44.61 45.621c-.722.658-1.575 1.41-2.17 1.926l-.107.535-.072.346c-.048.249-.096.47-.115.614 0 .033-.007.066 0 .092 0 .026.007.058.02.08a.15.15 0 0 0 .04.063l.012.014c.014.014.029.033.048.047 0 0 .014.004.014.011.02.014.032.026.058.033 0 0 .014 0 .022.007.019.012.048.019.072.024h.014l.08.023h.014l.101.005h.14c.047 0 .1-.014.153-.019a.182.182 0 0 0 .06-.014.648.648 0 0 0 .106-.033h.014l.087-.04a.484.484 0 0 0 .108-.059l.02-.011c.023-.021.06-.04.086-.059 0 0 .007 0 .012-.007.029-.025.062-.051.089-.08.053-.058.09-.11.132-.163.031-.05.06-.102.086-.155a1.44 1.44 0 0 0 .056-.157c.013-.054.024-.109.03-.164 0-.023.008-.052.015-.077 0-.033.015-.059.02-.092l.04-.183c.038-.146.096-.286.173-.417 0 0 0-.014.008-.014.027-.05.05-.103.072-.157v-.007l.021-.051.041-.103v-.014l.08-.249c.007-.026.014-.051.026-.077.033-.113.06-.223.086-.333.048-.185.082-.352.12-.53.034-.157.06-.3.082-.43 0-.027.012-.066.02-.092l-.015-.033Zm-13.811 5.903c-.065.059-.133.117-.185.169a1.969 1.969 0 0 0-.128.13c-.026.034-.06.071-.096.125-.012.019-.024.047-.043.066a8.76 8.76 0 0 0-.337.562c.241-.318.48-.638.714-.96.024-.033.048-.06.07-.094h.007l-.002.002Zm-9.98 10.24s-.015 0-.02.008c-.096.025-.18.053-.269.08-.18.05-.36.09-.533.123-.012 0-.026 0-.048.005l-.245.047c-.022 0-.034 0-.048.007-.14.019-.265.038-.4.052-.026 0-.06 0-.088.007a10.26 10.26 0 0 1-.447.023h-.495c-.076 0-.153-.004-.228-.012h-.087l-.26-.023a6.539 6.539 0 0 0 3.165-.31v-.007h.003Zm-3.165.307c-.04 0-.06-.004-.096-.011-.039 0-.08-.014-.11-.014.064.014.131.02.206.032v-.007Z"/>
      <path d="M18.812 40.007s-.969.267-1.663.04a.511.511 0 0 0-.106-.026c-.04 0-.086-.014-.134-.014h-.346c-.06 0-.128.014-.192.019-.08.005-.161.014-.24.025-.078.007-.164.021-.244.033-.079.014-.16.021-.247.033l-.353.06a.89.89 0 0 0-.14.024l-.495.099c-.32.065-.622.13-.874.19h-.027l-.048.006a18.75 18.75 0 0 0-1.963.718c-.094.04-.18.08-.274.117-.094.04-.185.086-.279.126-.1.047-.187.092-.281.13-.402.193-.796.4-1.182.62h.014c.229-.098.46-.19.694-.274l.16-.052c.066-.02.134-.047.201-.065.12-.04.24-.07.368-.106 4.06-.946 7.17-.68 9.554.274.108.04.207.087.308.132 4.04 1.762 5.897 5.53 6.697 8.487.138.506.232 1.022.281 1.542v.052c.015.164.02.328.027.476a7.072 7.072 0 0 1-.18 1.677v.022c0 .023.014.051.019.07v.007c0 .007 0 .021.007.026.007.028.022.047.034.065l.026.026.007.007.041.021h.08a.205.205 0 0 0 .093-.033h.007l.219-1.11c1.089-5.14-1.295-8.123-1.66-8.507a.19.19 0 0 1-.034-.047c-.034-.098.173-.143.505-.182.322-.04.764-.085 1.27-.17a6.979 6.979 0 0 0 1.77-.515 5.24 5.24 0 0 0 .326-.164c1.591-.89 1.963-1.312 2.079-1.633 1.01.45 2.85.19 2.85.19l-.024.175c-.017.117-.02.235-.01.352.003.065.017.13.041.19.02.058.048.117.087.17.228.305.201.582-.234 1.163-1.177 1.273-2.605 4.64-2.89 5.29h.086c.038 0 .072 0 .106.01.051.012.103.026.154.04 0-.04 0-.084.014-.123.028-.162.069-.32.12-.476.094-.272.206-.538.334-.797.069-.15.142-.299.219-.445l.247-.464.082-.136c.234-.425.481-.843.74-1.254l.173-.267.101-.164c.087-.136.18-.267.26-.391l.1-.143c.094-.139.188-.263.267-.375.034-.038.06-.082.096-.122.025-.04.05-.066.077-.099.076-.095.156-.186.24-.274a.332.332 0 0 1 .097-.058c.372-.07 1.821 1.985 1.761 2.767 0 .073-.086.91-.913 2.3-.745 1.241-1.466 1.893-2.158 2.024l.048.047c.024 0 .05.004.077.011l.24.047h.109l.22.03c.019 0 .037.002.053.008h.041c.099.014.193.02.289.026h.348c.068 0 .135 0 .202-.005h.053c.08-.003.161-.012.24-.028h.048c.06-.008.121-.019.18-.033h.039c.014 0 .022 0 .034-.005l.168-.04c.012 0 .024 0 .034-.007l.192-.058h.014c.083-.027.163-.06.24-.099h.005l.075-.032s.014 0 .019-.005l.154-.08s.014 0 .014-.007a.6.6 0 0 1 .068-.037h.004c.068-.04.135-.087.195-.124h.007l.053-.04.02-.014.127-.096s.007 0 .014-.008l.053-.046h.007l.159-.143c.081-.08.154-.164.228-.242l.034-.04s.012-.011.012-.018c.055-.066.108-.124.154-.19l.014-.014.033-.038v-.007l.106-.143c.06-.086.12-.164.173-.243.008-.012.022-.024.029-.038a61.84 61.84 0 0 0-.762-1.795 31.266 31.266 0 0 0-.761-1.607 17.34 17.34 0 0 0-.748-1.338 8.931 8.931 0 0 0-.716-.999c-.755-.672-.567-1.607.262-1.607h.099c1.076.098 2.592 1.736 3.693 3.932.255.508.582 1.246.937 2.062.092-.07.185-.143.272-.223a2.754 2.754 0 0 1-.14-.253c-.052-.098-.108-.21-.168-.332-.06-.118-.113-.249-.173-.38-.06-.131-.113-.267-.168-.398-.053-.132-.106-.26-.151-.392a7.28 7.28 0 0 1-.12-.347 1.345 1.345 0 0 1-.097-.457c0-.011.015-.032.024-.058 0 0 .005-.014.012-.019.005-.014.02-.026.024-.04l.082-.098c.007-.007.014-.019.027-.026.04-.04.086-.091.141-.136l.265-.244c.144-.117.295-.246.461-.377.529-.424 1.156-.902 1.632-1.28 0 0 .005 0 .012-.013.141-.11.254-.202.36-.293.087-.07.168-.146.228-.197l-.168-.274-1.322 1.253s-.528-.077-.816-.384a.794.794 0 0 1-.072-.087s-.039-.063-.053-.096l-.041-.112c-.005-.038-.012-.078-.012-.124 0-.047 0-.092.007-.136.06-.113.105-.234.132-.359.03-.104.046-.212.048-.32v-.144a.416.416 0 0 0-.021-.131c-.005-.047-.02-.084-.024-.124a2.136 2.136 0 0 0-.041-.11l-.008-.022a1.435 1.435 0 0 0-.173-.307.703.703 0 0 0-.1-.11s.007-.168.011-.194a7.654 7.654 0 0 0-.634-.138c.007.047.026.11.034.15-.3.025-1.656-.157-2.425.138-.265.106-.54.19-.82.253a.684.684 0 0 1-.228.007h-.019c-.026 0-.048-.007-.067-.012h-.007c-.02-.007-.048-.014-.065-.028-.368.157-.65.274-.837.335a.239.239 0 0 1 .048.056v.029c0 .004-.014.018-.026.032-.187.141-1.17.326-2.266.385-1.25.065-3.665-1.144-3.833-1.28a.157.157 0 0 1-.024-.065c-.108 0-.216 0-.296.018l.027.033c.38.38 1.168.745 1.622 1.21.122.112.22.248.288.398.02.047.034.091.048.143v.032a.7.7 0 0 1 .012.118c0 .026 0 .051-.014.08v.011c-.007.019-.012.047-.024.066 0 0 0 .014-.01.014-.012.019-.024.047-.048.063l-.012.014c-.019.019-.038.047-.06.066l-.012.011c-.026.021-.048.047-.082.066 0 0-.012.007-.012.014-.019.019-.048.033-.067.052l-.086.058c-.06.04-.12.08-.188.117-.024.014-.053.026-.08.047-.071.04-.153.078-.24.117l-.081.04c-.087.04-.18.078-.274.117l-.087.04c-.13.057-.263.108-.398.15l-.3.103-.116.04-.327.106c-.034.004-.06.018-.094.023-.132.04-.26.08-.394.113h-.019l-.18.047-.221.058a5.795 5.795 0 0 0-.265.059c-.036.007-.074.018-.108.023-.09.02-.182.039-.274.054-.026 0-.06.014-.089.014a4.276 4.276 0 0 0-.26.04c-.018 0-.038 0-.06.005a2.192 2.192 0 0 1-.232.025h-.034c-.12.012-.24.014-.36.007-.053 0-.106-.032-.162-.07a.446.446 0 0 1-.079-.08 1.941 1.941 0 0 1-.146-.208c0-.007-.015-.014-.015-.026a5.64 5.64 0 0 1-.252-.523c-.06-.051-.135-.105-.195-.157-.432-.356-.88-.694-1.343-1.012l-.065-.047c-.12-.084-.24-.162-.368-.246-.033-.02-.06-.04-.096-.058-.125-.087-.257-.164-.392-.249-.026-.014-.047-.033-.072-.047-.16-.1-.324-.195-.49-.285-1.24-.694-2.662-1.275-4.145-1.484l.048-.084Zm63.155-25.953h10.43v3.245h-6.504v9.015h5.77v3.246h-5.77v9.716h6.505v3.245H81.968V14.054Zm22.865 0h3.806l2.019 5.51c.793 2.174 1.261 3.767 1.415 4.773a33.23 33.23 0 0 1 .459-1.821c.169-.586.349-1.181.536-1.77l.265-.83 1.871-5.862h3.961l-5.397 14.013 5.397 14.454h-3.961l-1.922-5.42c-.348-.96-.662-1.93-.942-2.91-.24-.863-.409-1.62-.509-2.288a13.216 13.216 0 0 1-.505 2.358l-.663 2.031-.341 1.071-1.676 5.165h-4.148l5.511-14.458-5.169-14.01-.007-.006Zm27.294 0h5.167c2.491 0 4.3.614 5.43 1.842 1.13 1.24 1.697 3.206 1.697 5.9 0 3.787-1.136 6.229-3.412 7.34-1.142.504-2.8.757-4.963.757V42.52h-3.919V14.054Zm3.919 12.556c1.622 0 2.74-.321 3.36-.961.627-.652.942-1.81.942-3.468 0-1.657-.301-2.937-.909-3.72-.6-.784-1.556-1.183-2.845-1.183h-.548v9.332Zm22.204-12.556h3.92v25.222h6.412v3.245h-10.332V14.054Zm37.404 14.939c0 5.026-.575 8.6-1.715 10.714-1.142 2.116-3.06 3.173-5.751 3.173-2.831 0-4.82-1.137-5.977-3.408-1.141-2.226-1.715-6.177-1.715-11.857 0-5.062.566-8.647 1.696-10.747 1.142-2.116 3.077-3.173 5.809-3.173 2.438 0 4.248.816 5.43 2.454.782 1.096 1.341 2.65 1.697 4.663.353 1.865.528 4.595.528 8.186l-.002-.005Zm-4.114.403c0-4.928-.226-8.202-.68-9.807-.457-1.617-1.377-2.435-2.774-2.435-1.393 0-2.32.745-2.789 2.233-.454 1.503-.683 4.511-.683 9.036 0 4.167.241 7.059.717 8.666.487 1.521 1.407 2.285 2.751 2.285 1.341 0 2.223-.712 2.716-2.142.49-1.41.735-4.03.735-7.836h.007Zm18.814-15.342h3.916V42.52h-3.916V14.054Zm17.677 0h12.767v3.356h-4.395V42.52h-3.845V17.41h-4.527v-3.356ZM49.345 53.334h4.828c1.468 0 2.71.154 3.713.475.927.305 1.764.855 2.492 1.64 1.093 1.182 1.87 2.714 2.336 4.608.468 1.828.696 4.452.696 7.873 0 3.136-.264 5.695-.776 7.673-.502 1.893-1.336 3.337-2.492 4.335-1.422 1.242-3.965 1.863-7.64 1.863h-3.164V53.333h.007Zm3.917 25.109c2.394 0 3.99-.703 4.79-2.121.829-1.41 1.242-4.16 1.242-8.24 0-4.388-.394-7.404-1.187-9.056-.796-1.646-2.245-2.468-4.355-2.468h-.487v21.887l-.003-.002Zm28.791-25.11h3.052l6.243 28.468h-3.885l-1.096-5.552H80.6l-1.12 5.552h-3.768l6.337-28.468h.004Zm3.754 19.945-.868-4.537a122.393 122.393 0 0 1-1.417-9.884 89.615 89.615 0 0 1-.68 5.19c-.274 1.75-.601 3.61-.983 5.578l-.714 3.648H85.8l.007.005Zm15.714-19.945h12.767v3.356h-4.393v25.112h-3.847V56.689h-4.527v-3.355Zm29.348 0h3.059l6.243 28.468h-3.885l-1.097-5.552h-5.766l-1.121 5.552h-3.772l6.339-28.468Zm3.754 19.945-.868-4.537a122.483 122.483 0 0 1-1.418-9.884 89.785 89.785 0 0 1-.679 5.19 181.735 181.735 0 0 1-.981 5.578l-.717 3.648h4.656l.007.005Zm18.66-19.945h5.315c4.157 0 6.243 2.527 6.243 7.579 0 1.933-.273 3.363-.807 4.298-.541.932-1.497 1.64-2.865 2.12 1.569.615 2.644 1.407 3.225 2.365.586.947.889 2.37.889 4.277 0 5.223-2.292 7.834-6.866 7.834h-5.13V53.337l-.004-.005Zm3.691 12.538c1.523 0 2.578-.35 3.164-1.034.589-.726.89-1.999.89-3.82 0-3.074-1.13-4.609-3.394-4.609h-.473c-.101 0-.168 0-.187.019v9.444Zm0 12.644c1.609 0 2.725-.34 3.34-1.012.612-.68.92-1.898.92-3.67 0-1.769-.32-3.088-.961-3.82-.627-.735-1.73-1.1-3.299-1.1v9.602Zm27.279-25.181h3.059l6.245 28.467h-3.888l-1.095-5.552h-5.768l-1.119 5.552h-3.773l6.339-28.468Zm3.754 19.944-.868-4.537a122.028 122.028 0 0 1-1.417-9.884 91.59 91.59 0 0 1-.681 5.19c-.279 1.75-.601 3.61-.981 5.578l-.713 3.648H188l.007.005Zm28.367-19.352v3.743c-1.194-.837-2.27-1.254-3.224-1.254-1.028 0-1.875.359-2.523 1.071-.657.68-.983 1.58-.983 2.709 0 .998.233 1.846.697 2.559.24.38.632.874 1.177 1.476.55.6 1.257 1.324 2.127 2.175 1.596 1.586 2.684 2.957 3.259 4.112.581 1.116.867 2.49.867 4.113 0 2.203-.635 4.017-1.903 5.439-1.27 1.392-2.898 2.083-4.881 2.083-1.67 0-3.1-.45-4.283-1.345v-3.8c1.397.993 2.668 1.497 3.807 1.497 1.069 0 1.904-.347 2.504-1.046.601-.693.909-1.64.909-2.828 0-1.031-.234-1.959-.695-2.781a12.323 12.323 0 0 0-.999-1.36 24.19 24.19 0 0 0-1.606-1.701 46.317 46.317 0 0 1-2.47-2.547 12.198 12.198 0 0 1-1.45-1.933c-.6-1.083-.908-2.45-.908-4.094 0-2.227.589-3.989 1.771-5.29 1.195-1.312 2.798-1.97 4.806-1.97 1.397 0 2.728.328 4.001.98v-.008Zm13.965-.593h10.432v3.244h-6.506v9.017h5.77v3.246h-5.767v9.715h6.503v3.246h-10.43l-.002-28.468Z"/>
    </g>
  </mask>
  <g mask="url(#b)">
    <path fill="#FBFAFB" d="M-1 0h241.62v90H-1V0Z"/>
  </g>
</svg>
