<svg xmlns="http://www.w3.org/2000/svg" fill="none" viewBox="0 0 242 90">
  <mask id="b" width="241" height="63" x="0" y="14" maskUnits="userSpaceOnUse" style="mask-type:alpha">
    <mask id="a" width="241" height="63" x="0" y="14" maskUnits="userSpaceOnUse" style="mask-type:luminance">
      <path fill="#fff" d="M0 14h240.703v62.89H0V14Z"/>
    </mask>
    <g fill="#fff" mask="url(#a)">
      <path d="m199.237 72.983-1.162 3.8H194.2c-.009-1.466-.282-2.823.222-4.215.74-2.069 1.367-4.178 2.072-6.256.37-1.076.815-2.128 1.202-3.2.554-1.526 1.099-3.058 1.611-4.597.091-.269.014-.596.014-.924-.512.55-.512.584-1.234.594-2.552.023-5.105.018-7.659.023-.377 0-.755 0-1.162.07.833.546 1.837.792 2.445 1.661.615.885 1.118 1.775 1.146 2.896.03 1.115-.527 1.943-1.109 2.78l-.659-.15c-.126.533-.233 1.005-.345 1.491 1.78.993 2.643 2.53 2.552 4.564-.023.555-.209 1.124-.435 1.635-.228.532-.649.981-.893 1.513a2.533 2.533 0 0 1-1.254 1.266c-1.155.56-2.347.92-3.66.826-.713-.055-1.44.06-2.156.08-.678.014-1.362 0-2.126 0-.25-1.13-.136-2.192-.103-3.245.021-.527.449-.651.916-.656 1.031-.009 2.062.005 3.092-.057 1.322-.08 1.697-.537 1.753-1.871.058-1.261-.061-1.835-1.854-1.956-.915-.062-1.837 0-2.755-.03-1.026-.032-1.171-.195-1.185-1.234-.009-.832 0-1.66 0-2.598.664-.041 1.188-.08 1.707-.101.42-.014.845-.037 1.262.007 1.4.147 2.394-.303 2.725-1.897-.44-.816-1.109-1.33-2.212-1.261-1.062.066-2.133.014-3.255.014-.453-1.188-.059-2.36-.322-3.59-.861 0-1.73.115-2.557-.034-.838-.146-1.606-.185-2.433.058-.345.1-.792-.147-1.374-.275.023.442-.028.782.077 1.07.722 2 1.502 3.977 2.205 5.981.85 2.422 1.634 4.862 2.468 7.293.375 1.105.802 2.195 1.188 3.295.095.273.13.564.226.99-.522.047-.925.106-1.325.116-.918.013-1.835 0-2.753-.005-.89-.005-1.124-.22-1.32-1.092a21.996 21.996 0 0 0-.573-2.061c-.14-.422-.442-.7-.932-.704-1.454-.014-2.908-.046-4.356-.042-.186 0-.473.161-.54.324-.25.59-.426 1.21-.622 1.823-.182.56-.349 1.124-.522 1.69h-3.895c.009-1.46-.264-2.823.244-4.21.74-2.03 1.362-4.1 2.065-6.146.718-2.076 1.467-4.137 2.203-6.199.254-.713.517-1.417.79-2.156l1.697-.204c.038-.4.101-.775.101-1.142-.005-2.667-.033-5.331-.04-7.996-.005-10.962-.005-21.92-.005-32.88 0-1.801.07-1.842 1.875-1.824 2.098.023 4.202-.044 6.301.018 2.447.074 2.084.22 2.096 2.133.047 7.643.061 15.29.084 22.932.009 3.007 0 6.018 0 9.022 0 2.172.014 4.346-.014 6.518-.005.463-.168.924-.287 1.54l.477 1.705h1.205v-3.51c0-.458-.082-.928 0-1.373.12-.679.143-1.33.029-2.022-.153-.915.343-1.422 1.309-1.461.64-.028 1.344-.147 1.635.7 1.157-.393 2.251-.863 3.458-.705.391.053.759.287 1.151.317.579.043 1.166.004 1.751-.053.481-.046.949-.243 1.43-.264 1.07-.036 2.141-.004 3.213-.014.805-.004 1.604.427 2.431.03.163-.078.468.014.652.124.337.202.61.145.959.005.617-.243 1.225-.058 1.42.54.311.934.951 1.212 1.933 1.23v1.316l-1.096.315c.213.162.363.275.507.39.727.577.982 1.265.592 2.093a.981.981 0 0 0-.028.915c.219.583.116 1.133-.417 1.537-.382.29-.496.642-.336 1.1a797.97 797.97 0 0 1 1.814 5.158c.965 2.775 1.921 5.559 2.897 8.329.363 1.032.788 2.043 1.165 3.066.112.303.163.633.263 1.02-.378.076-.624.168-.874.173a116.23 116.23 0 0 1-3.096.013c-1.076-.009-1.258-.195-1.456-1.199a16.563 16.563 0 0 0-.54-2.078c-.142-.426-.487-.621-.978-.612-1.565.03-3.128.01-4.844.01l-.002-.01Zm1.211-3.894c1.154-.057 2.049-.105 3.076-.154a1872.68 1872.68 0 0 0-1.499-5.153l-1.58 5.312.003-.005Zm-25.582-.096-1.513-5.22c-.53 1.86-1.193 3.493-1.491 5.22h3.004Zm28.697-14.301c-.412-.528-.157-1.273-.83-1.674-.047.472.032.936-.154 1.222-.322.484-.676.901-.545 1.537.11.555.167 1.119.249 1.68l.247.033c.421-.9-.229-2.206 1.038-2.793l-.005-.005ZM181.94 38.846c-.382-.328-.615-.523-.903-.769-.133.308-.229.523-.373.844.445-.03.762-.048 1.271-.078l.005.003Zm-6.606 4.146c.524.135.838.011.952-.367-.349.133-.652.248-.952.367Zm-1.763 1.89-.172.162c.065.124.104.287.209.36.11.076.282.058.427.08l.06-.153a32.844 32.844 0 0 1-.524-.45Zm5.578-25.685c.094-.679-.292-.582-.596-.569-.045 0-.087.08-.192.19l.788.38Zm20.656 52.438c-.051 0-.105 0-.152-.005l-.029.608c.062 0 .125 0 .181.004v-.607Zm-28.884.612c.077 0 .154 0 .231-.005l-.063-.624a1.986 1.986 0 0 0-.168.021v.612-.004Zm9.347-32.404c.042-.07.091-.142.14-.215-.058-.032-.135-.106-.168-.085-.072.039-.126.124-.186.185.056.035.114.063.214.115Zm31.096 30.677c1.248-.053 2.343-.121 3.442-.135.503-.005.875.252.98.789.187.94.676 1.554 1.67 1.756.545.11 1.055.379 1.672.612-.028.308-.065.661-.11 1.101.494-.3.215-.807.45-1.162.745-.22 1.534-.454 2.389-.711.012-.704.622-1.39.073-2.14-.129-.174-.264-.36-.434-.484-.392-.289-.804-.55-1.234-.784-.258-.135-.573-.268-.847-.24-2.012.2-3.833-.336-5.496-1.423-1.351-.878-2.043-2.114-2.138-3.783-.177-3.05 1.78-4.867 4.451-5.596-.809-.103-1.29-.777-2.031-.346-.077.043-.231-.01-.331-.053-.664-.288-1.325-.58-1.984-.876-.205-.665.191-1.032.74-1.3.466-.225.939-.427 1.463-.66-.156-.38-.273-.648-.334-.803-.675 0-1.349.178-1.806-.056-.403-.21-.564-.885-.894-1.463-.273-.039-.522.16-.536.56-.019.426.07.766.587.97.885.36.894.748.191 1.436-.429-.143-.831-.305-1.246-.39-.107-.026-.307.18-.372.323-.04.087.079.349.163.367.982.183.714.883.681 1.486-1.024.415-1.024.406-1.634-.456a.874.874 0 0 0-.531-.344c-.645-.08-.808-.512-.831-1.048-.04-.913-.096-1.833-.068-2.745.11-3.504-.068-7.006-.023-10.513.051-4.164.009-8.331 0-12.493 0-.613 0-1.197.976-1.147-1.134-.734-.981-1.777-.948-2.805a93.61 93.61 0 0 0 .028-4.001c-.01-.613.413-.856.815-1.133.201-.138.447-.211.85-.392-.392-.422-.654-.78-.99-1.055a1.85 1.85 0 0 1-.568-.698 1.816 1.816 0 0 1-.168-.88c.037-1.176.009-2.353.009-3.63 1.563-.193 2.975-.459 4.13.816.206-.314.32-.66.565-.812.229-.149.587-.144.89-.144 1.299.01 2.593.053 3.895.071.513.011.764.289.822.766.028.225.047.454.047.686-.023 2.29-.061 4.582-.082 6.875-.009 1.41.024 2.818.021 4.229-.009 2.33.014 4.66-.077 6.985-.023.695-.304 1.408-.605 2.043-.121.25-.61.351-.954.459-.243.078-.61-.214-.769.337.741.216 1.402-.163 2.223-.22.042.344.124.692.124 1.048.037 4.85.135 9.7.054 14.555-.024 1.319.093 2.626.042 3.942-.028.67-.159 1.335-.25 2.07.527.11 1.165.25 1.871.398-.009-.186.019-.402-.037-.597-.073-.245-.36-.522-.299-.695.294-.823.03-1.598-.091-2.387-.117-.789.631-1.062 1.106-1.678-.256-.154-.522-.26-.707-.445-.168-.168-.364-.436-.336-.633.023-.177.303-.388.512-.464.678-.245 1.314-.449 1.435-1.346.06-.472.582-.701.99-.564.994.34 2.011-.33 3.02.172.321.16.856-.18 1.295-.19 1.187-.034 2.382-.115 3.553.014 1.388.14 2.787.129 4.173-.032 1.239-.127 2.401.105 3.374.745.335-.273.584-.647.885-.688a4.017 4.017 0 0 1 1.688.094c.492.149.712.959.454 1.624-.195.502-.249.912 0 1.41.123.252.128.603.091.899a13.082 13.082 0 0 0 0 3.064c.137 1.31.1 2.644.123 3.967.026 1.238-.137 1.41-1.353 1.415-2.179.01-4.359.01-6.533 0-1.135-.005-1.253-.115-1.304-1.23-.035-.733-.007-1.467-.007-2.205h-.28v3.492c0 1.186.098 2.374.002 3.55-.128 1.628.03 3.245-.009 4.867-.038 1.602.009 3.21.009 4.813 0 1.541-.372 1.853-1.853 1.465-.335-.087-.617-.373-1.001-.619-.199.335-.511.608-1.046.4-.555-.216-.569-.677-.578-1.131-.014-.948-.005-1.895-.095-2.85-.583 1.687-1.63 3.035-3.237 3.625-1.225.45-2.538 1.03-3.977.564-.527-.168-1.181-.11-1.731.03-1.056.268-2.078-.087-2.859-.523-1.385-.78-2.818-1.72-3.25-3.435-.173-.675-.094-1.415-.129-2.262l-.021.005Zm14.911-6.815c-1.056.717-2.19.752-3.342.743-.615-.005-.978-.163-1.085-.863-.128-.846-.678-1.406-1.537-1.63a6.9 6.9 0 0 0-2.31-.092c-.149.023-.308-.014-.455 0-.612.073-1.124.498-1.229 1.009-.123.615.047 1.105.713 1.403.789.354 1.64.578 2.47.817 1.311.378 2.674.62 3.931 1.124.818.332 1.586.935 2.18 1.589.435.484.549 1.263.804 1.91.127-.56.127-1.091.127-1.628.012-1.899.012-3.802.044-5.701.01-.452.042-.943.233-1.335.168-.342.131-.536-.037-.819a1.393 1.393 0 0 1-.196-.642c-.028-.646.054-1.307-.768-1.589-.116-.036-.116-.406-.186-.617-.016-.041-.121-.057-.257-.119-.032.26-.056.493-.1.823-.463.023-.931.138-1.351.046-.425-.09-.809-.376-1.21-.578l.401.445-.869.418c2.285.545 3.996 2.96 4.036 5.274l-.007.012ZM211.299 16.79c-.131-.119-.239-.21-.335-.32-.119-.134-.221-.287-.317-.413-.814.068-1.404.302-1.77.704l.438.972c.885.183 1.644.2 1.984-.943Zm10.952 39.958c.081-.282.09-.628.256-.842.466-.596.288-1.054-.198-1.479-.335-.29-.393-.619-.257-1.025.047-.128-.016-.296-.032-.45l-.256-.031c-.07.247-.126.502-.203.75-.086.282-.186.559-.286.841.452.42.775 1.163.971 2.232l.005.004Zm-9.648-28.072c.219-.642.149-1.13-.636-1.421.124 1.022-1.234.933-1.357 1.907l1.993-.486Zm-2.945 2.424-.061.317 1.141.413v-1.117l-1.08.39V31.1Zm-1.318-4.157c.372-.431.841-.67.472-1.291-.64.238-.652.655-.472 1.29Zm11.643 48.59c-.483-.276-.783-.46-1.133-.063.313.532.634.36 1.133.062Zm-7.352-38.356-.237.23.505.527c.077-.073.153-.149.232-.22l-.5-.532v-.005Zm-1.802-3.673-.278-.035-.056.56c.066.004.192.03.196.009.056-.177.094-.358.14-.539l-.002.005Zm17.655 24.56c-.058-.016-.11-.039-.167-.039-.009 0-.047.076-.037.092.032.05.086.092.132.133l.072-.186Zm-5.048 16.129.186-.083c-.028-.057-.058-.114-.081-.172l-.245.131.14.124ZM63.148 57.996h1.388c0-.589-.035-1.07.01-1.554.042-.482.181-.952.24-1.436a1.81 1.81 0 0 0-.073-.734c-.167-.52-.226-1.009.082-1.463.864.124-.016 1.431 1.055 1.427-.14-.798-.256-1.493-.387-2.248-.23-.1-.563-.174-.792-.369-.116-.096-.049-.413-.079-.791.422.073.738.167 1.053.163.263 0 .526-.12.785-.186l-.385-1.039c1.279-.651 2.455-1.167 3.544-1.828.664-.406 1.214-1.013 1.782-1.564.466-.44.89-.924 1.32-1.399.177-.19.403-.38.473-.614.216-.704.312-1.445.559-2.135.14-.388.493-.704.852-1.186a30.453 30.453 0 0 0-.149-.566c-.056-.216-.224-.463-.163-.635.638-1.805.272-3.67.35-5.573l.79-.319c-1.054-.234-1.573-1.894-.856-3.066-.768-1.307-1.49-2.607-2.291-3.87-1.095-1.728-2.701-2.863-4.541-3.67-.617-.275-1.304-.383-1.97-.537-.913-.206-1.227-.545-1.234-1.483a376.47 376.47 0 0 1 0-6.078c.011-1.013.135-1.123 1.13-1.128 2.118-.014 4.097.516 6.088 1.239 2.315.844 4.339 2.11 6.234 3.584 1.44 1.114 2.492 2.646 3.572 4.12 1.067 1.46 1.472 3.202 2.212 4.798.25.532.298 1.193-.274 1.686-.135.115-.184.326-.312.569l1.034.233c.165.62.472 1.237.463 1.849-.01.592-.34 1.186-.54 1.798 1.194.695.524 1.853.628 2.942-.323-.027-.535-.041-.754-.062-.033.115-.105.225-.086.321.044.252.046.59.21.743.954.9.76 2.032.558 3.08-.38 2.004-.973 3.963-2.005 5.747-.738 1.277-1.502 2.536-2.26 3.804-.637 1.062-1.575 1.833-2.52 2.603-1.263 1.023-2.506 2.067-3.994 2.77-1.635.771-3.216 1.688-5.114 1.851.094.647-.216 1.073-.652 1.475a144.05 144.05 0 0 0-3.038 2.898 360.947 360.947 0 0 0-3.864 3.885c-.489.498-.489.677.01 1.245 2.265 2.599 4.552 5.188 6.813 7.79.382.44.701.939 1.132 1.521-.391.11-.591.22-.799.22-1.222.014-2.445 0-3.67.014-.498.007-.852-.186-1.176-.569a491.096 491.096 0 0 0-5.674-6.53c-.394-.441-.513-.9-.503-1.455.02-.959.046-1.915-.01-2.867-.042-.752.233-1.272.752-1.804 1.558-1.6 3.058-3.261 4.57-4.908.2-.22.34-.493.507-.743l-.03.03v.005Zm15.346-27.053c-.07.092-.142.177-.214.268.33.464.659.934 1.013 1.427.426 0 .752-.145.922-.45l-1.721-1.25v.005Zm-.421 4.05c-.159-.314-.21-.573-.313-.592a5.45 5.45 0 0 0-1.248-.087c-.123.005-.333.225-.333.349 0 .13.196.364.315.369.472.03.954-.018 1.574-.039h.005Zm70.719 14.615-.276 1.117c.688.1 1.036.477.977 1.282-.037.527.122 1.032-.733 1.052.845.26 1.113.66.985 1.49-.126.806.061 1.652.061 2.487 0 1.027-.555 1.383-1.544 1.032-.178-.062-.336-.19-.517-.248-.175-.053-.429-.138-.54-.057-.951.692-1.841-.087-2.753-.131-.277-.014-.531-.543-.818-.865-.33-.119-.712-.263-1.098-.4-.068-.024-.159-.084-.201-.058-1.311.763-2.228-.236-3.144-.814a16.24 16.24 0 0 1-2.98-2.44c-2.233-2.307-4.264-4.77-5.202-7.94-.264-.89-.587-1.754-.927-2.765l1.285-.225.014-.11-1.05-.099c-.57-.532-.661-1.215-.694-1.967-.044-.943-.245-1.876-.304-2.819a19.778 19.778 0 0 1 0-2.506c.042-.713.232-1.417.29-2.133.14-1.825.578-3.548 1.286-5.252.563-1.357 1.098-2.712 1.783-4.022.927-1.766 2.381-3.064 3.8-4.364 1.682-1.541 3.704-2.532 5.817-3.43 2.12-.9 4.251-1.36 6.516-1.33.906.008 1.057.128 1.066.956.024 2.325.01 4.65.01 7.054-.896.376-1.695.837-2.557 1.054-1.511.379-2.606 1.39-3.777 2.275-1.108.837-1.772 2.053-2.312 3.316a12.829 12.829 0 0 0-1.043 3.917c-.11 1.232-.401 2.447-.64 3.853.185.71.603 1.651.64 2.603.046 1.224.363 2.385.554 3.575.035.18.106.352.209.505.48.729 1.107 1.39 1.435 2.173.621 1.493 1.893 2.248 3.122 3.062.427.282.972.39 1.468.562.57.2 1.14.385 1.792.61ZM134.36 35.9l.316.965c1.554.322 1.94.312 2.744-.052-.468-.243-1.025-.436-1.444-.785-.522-.43-.994-.449-1.616-.133v.005Zm12.675 20.99c1.203-.206 1.897-.802 2.112-1.965h-.652c-.066.336-.129.672-.189 1.009-.397.546-1.253-.04-1.271.956Zm-9.389-14.177c-.04.076-.077.154-.121.23l.453.188c.024-.055.054-.101.077-.154l-.414-.264h.005Zm-3.577-1.11c0-.043-.005-.082-.01-.123l-.573.061c0 .019 0 .04.005.058h.573l.005.004Zm-28.616 13.271-.21 1.188-1.158.298-.039.65 1.588-.608c.331-.321.214-1.08.985-1.261.43.848.145 1.72 0 2.529-.093.527-.755.537-1.171.365-.664-.282-1.218-.22-1.921-.07-.718.154-1.549-.247-2.329-.414a.256.256 0 0 1-.158-.154c-.117-.511-.383-.814-.951-.766-.407.035-.768-.55-1.234-.053-.093.101-.444.021-.645-.062-2.165-.832-3.921-2.27-5.502-3.907-.871-.906-1.626-1.929-2.37-2.94a15.726 15.726 0 0 1-2.252-4.197c-.345-.986-.662-1.979-1.03-3.08l1.153-.286c-.359-.159-.85-.23-1.071-.512-.263-.33-.364-.84-.415-1.284-.149-1.209-.344-2.43-.321-3.64a64.28 64.28 0 0 1 .407-5.588c.084-.826.352-1.637.587-2.44.64-2.192 1.593-4.254 2.743-6.215.34-.575.83-1.073 1.281-1.57 1.7-1.867 3.602-3.518 5.868-4.62 1.584-.763 3.226-1.428 4.995-1.774a16.462 16.462 0 0 1 3.742-.324c.508.014.792.234.792.757v7.277c-1.145.424-2.254.727-3.258 1.233-2.026 1.019-3.758 2.36-4.862 4.45-1.171 2.215-1.553 4.593-1.853 7.019-.059.48-.257.943-.385 1.403.235.932.594 1.874.68 2.842.11 1.18.277 2.339.629 3.467.08.25.198.489.333.713.328.555.731 1.078 1.008 1.656.675 1.417 1.667 2.509 3.027 3.289.592.34 1.127.727 1.859.798.582.062 1.147.364 1.802.594l-.258 1.013c.468.252.773.94.912 2.064-.095.069-.2.181-.335.239-.128.057-.277.062-.528.114.582.216 1.185.299 1.127.94-.059.695-.636.865-1.267.867h.005Zm-10.8-18L92.2 35.52c-.582.312-.754.766-.514 1.358.959.528 1.895.392 2.966 0v-.002Zm-3.354 4.766c-.02-.115-.035-.225-.054-.34l-.875.264.028.129c.303-.019.6-.032.901-.053Zm3.689 1.55c.028-.069.062-.142.093-.22-.089-.057-.175-.128-.266-.176-.1-.053-.21-.085-.314-.129-.035.071-.068.15-.105.22l.587.3.005.005ZM21.636 76.776h-3.851c-.11-1.266-.221-2.516.14-3.722.377-1.273.908-2.502 1.34-3.76.618-1.79 1.198-3.599 1.803-5.392.39-1.145.794-2.273 1.188-3.413.228-.674.447-1.353.692-2.091-1.444-.642-.88-1.922-.832-2.965.023-.507.159-.977-.01-1.498-.1-.316.015-.7.038-1.197.58.307.454.679.494.982.051.435.272.573.652.481l-.457-2.3c-.426-.057-.947-.144-.64-1.014l1.18.225.431-.364c-.116-.349-.225-.693-.312-.957 1.276-.651 2.487-1.25 3.68-1.88 1.255-.665 1.949-1.871 2.927-3.091h-7.971c-.119-2.796-.077-5.445-.058-8.206.493-.043.898-.11 1.304-.114 2.028-.023 4.051-.046 6.077-.04.336 0 .68.08 1.004.177.582.172.857.555.838 1.197-.035 1.138-.011 2.282-.011 3.536.326-.052.544-.091.829-.135-.21-.708-.794-1.31-.177-1.99.055-.062-.04-.282-.094-.42-.31-.832-.17-1.576.499-2.293h8.888c.06.867.105 1.685.964 2.077.01.718.154 1.468 0 2.15-.345 1.471-.745 2.95-1.295 4.356-1.774 4.518-4.675 8.142-8.941 10.542-1.304.732-2.732 1.248-4.134 1.79-.582.224-1.239.263-1.849.55h1.095c.95.013 1.017.057 1.323.924.651 1.823 1.303 3.65 1.946 5.478.946 2.7 1.886 5.401 2.834 8.1.389 1.105.799 2.206 1.19 3.316.086.239.121.498.198.823-.268.076-.475.184-.685.186-1.148.02-2.293-.004-3.437.023-.603.016-.936-.275-1.104-.798a31.77 31.77 0 0 1-.598-2.066c-.219-.876-.382-1.025-1.334-1.03-.994-.005-1.989.005-2.98-.005-.299 0-.59-.052-.916-.084l-.1-1.633-1.758 5.54-.01.005Zm2.418-7.62c1.166-.062 2.11-.115 3.12-.172l-1.518-5.394c-.64 1.963-1.195 3.699-1.602 5.566Zm3.313-30.102c.256.326.363.528.526.642.128.092.331.104.497.095.072 0 .207-.186.186-.225-.093-.184-.196-.415-.364-.493-.177-.085-.423-.019-.85-.019h.005Zm-3.679 31.66c.056 0 .114 0 .165.005v-.8c-.042 0-.086 0-.123-.004l-.042.8Z"/>
      <path d="M63.18 57.968c-.222.061-.445.105-.662.183-.803.294-1.467-1.069-2.312-.197-.785-.126-1.584-.188-2.343-.404-.286-.08-.48-.504-.745-.812l-1.106-.355c-.065-.023-.151-.094-.196-.076-1.467.734-2.403-.397-3.404-1.062-1.094-.733-2.166-1.566-3.053-2.531-1.784-1.933-3.509-3.938-4.408-6.49-.445-1.261-.903-2.52-1.402-3.917l1.325-.163.014-.144c-.335-.023-.675-.046-1.04-.076-.566-.56-.732-1.255-.739-2.053-.01-.871-.186-1.742-.228-2.614a37.305 37.305 0 0 1-.01-2.736c.01-.415.133-.825.154-1.243.166-3.233 1.188-6.226 2.643-9.076 1.782-3.498 4.574-5.963 7.992-7.82 1.206-.654 2.424-1.278 3.735-1.564 1.835-.406 3.689-.957 5.598-.636.35.922.42 5.497.133 8.025-.813.325-1.677.688-2.557 1.018-2.37.885-4.122 2.449-5.388 4.646-1.109 1.924-1.467 4.024-1.747 6.162-.046.378 0 .803-.165 1.13-.603 1.195.023 2.26.282 3.365.076.33.225.683.172 1.004-.182 1.181.177 2.335.612 3.302.687 1.53 1.612 3.05 2.771 4.252.925.956 2.078 1.942 3.621 1.995.215.012.424.154.64.24 1.028.39 1.049.455.44 1.43.297.078.583.149.923.24.077.57.147 1.129.228 1.75-.272.115-.54.225-.885.374.56.138 1.118.275 1.072.952-.052.68-.564.832-1.188.828-.084.39-.16.752-.252 1.197l-1.203.263-.042.613c.246.176.945-.351 2.475-1.78.25.397.317 1.335.205 2.812l.03-.032h.01ZM51.112 36.915c-.622-.369-1.172-.623-1.635-.981-.554-.431-1.036-.55-1.563.01.047.247.087.506.142.765.014.071.068.133.1.195.82.216 1.808.218 2.96.01h-.004v.002Zm.712 6.268c-.382-.365-.594-.56-.927-.876-.053.679.075.963.927.876Zm7.414 8.448c.01.058.02.11.024.168l.617-.085-.033-.202-.605.12h-.003ZM46.767 41.564l.024.144c.263-.027.526-.061.789-.091l-.028-.172-.785.126v-.007Zm1.095 2.378s-.037.046-.063.064c.044.028.093.062.14.08.009 0 .037-.038.056-.061a2.084 2.084 0 0 0-.133-.083ZM16.798 58.004c-.28-.11-.55-.261-.838-.325-.477-.104-.855-.161-1.178-.707-.23-.383-1.025-.426-1.57-.619-.791.734-1.49.03-2.07-.287A17.57 17.57 0 0 1 6.82 52.78a26.04 26.04 0 0 1-2.843-3.57c-.85-1.291-1.663-2.63-2.042-4.176-.156-.652-.436-1.278-.66-1.913-.286-.826-.23-.901.632-.933.14-.005.28 0 .43-.18-.349-.022-.698-.045-1.094-.075a3.048 3.048 0 0 1-.666-2.096c.023-.493 0-.99-.065-1.48-.293-2.136-.144-4.276.07-6.397a17.587 17.587 0 0 1 1.635-5.78 53.428 53.428 0 0 1 1.932-3.726c.35-.608.846-1.144 1.318-1.674 1.942-2.172 4.24-3.898 6.91-5.047 1.294-.56 2.6-1.202 4.104-1.216.939-.011 1.875-.293 2.818-.403.4-.046.815.048 1.195.073.31 1.018.363 5.144.119 7.99-.985.367-2.05.722-3.079 1.17-1.816.781-3.33 1.988-4.373 3.668-1.32 2.12-2.205 4.406-2.259 6.965-.018.775-.314 1.546-.456 2.192.237 1.34.54 2.592.664 3.867.128 1.307.465 2.506 1.138 3.623.277.452.6.883.827 1.362.698 1.502 1.82 2.608 3.246 3.378.787.427 1.686.636 2.538.94.666.241.82.705.463 1.39 1.4.145.88 1.202 1.018 2.035a24.56 24.56 0 0 1-.568.247c.277.303.813.628.838.982.042.655-.598.862-1.173.917-.07.399-.129.734-.205 1.14-.387.096-.78.185-1.22.298l-.033.697c.568-.273 1.099-.45 1.534-.766.396-.282.336-1.018 1.058-1.17.358.888.156 1.76.037 2.587-.068.482-.727.583-1.048.397-.836-.482-1.623-.344-2.457-.092-.1.03-.223-.023-.337-.036l.032.027v.01ZM5.528 36.851c1.073.45 2.068.44 3.162.016-.712-.367-1.348-.614-1.902-.986-.522-.35-.95-.383-1.458.08l.198.89Zm3.52 6.33-.654-.918c-.081.762.063 1.053.655.918Zm-3.9-1.564c0-.062-.01-.124-.014-.19l-.843.1c0 .028.012.058.017.092l.84-.002ZM1.3 39.349c.063-.037.15-.062.163-.11.014-.042-.046-.11-.077-.168-.07.048-.142.092-.214.138.042.05.086.091.123.137l.005.003Zm4.254 4.662c-.055-.023-.114-.053-.177-.069-.009 0-.032.053-.046.087.058.023.116.053.177.071.01 0 .032-.053.051-.085l-.005-.004Zm11.173 7.613.058.232.468-.158-.058-.172-.466.1v-.004l-.002.002Zm102.897-17.5-1.458-.497c-.68-.796-.659-1.837-.217-2.823-.754-1.284-1.443-2.5-2.174-3.68-1.463-2.363-3.634-3.723-6.325-4.26-1.072-.215-1.372-.492-1.374-1.577a439.662 439.662 0 0 1 0-6.077c.007-1.01.107-1.14 1.132-1.1.868.034 1.734.183 2.594.33.785.135 1.583.258 2.337.506 5.011 1.642 8.984 4.61 11.597 9.253.226.4.437.82.542 1.255.119.48.252.899.531 1.334.783 1.225.727 1.828-.012 3.264 1.608.536 1.924 2.064.804 3.885.853.532 1.011 1.307.605 3.068h-.856c.146.397.169.841.405 1.048.948.842.685 1.913.482 2.86a25.794 25.794 0 0 1-1.29 4.24c-1.793 4.46-4.576 8.152-8.863 10.464-2.396 1.291-4.925 2.369-7.717 2.532-.706.043-1.423-.035-2.089-.053-.328-1.353-.237-4.733.105-5.366.452.174.294.566.312.883.028.396.145.656.618.573-.15-.711-.294-1.392-.454-2.185-.296-.184-1.039-.225-.666-.996.474-.532 1.187.603 1.597-.307-.087-.321-.192-.693-.256-.947 1.192-.608 2.268-1.147 3.334-1.704.822-.424 1.521-.963 2.042-1.775.378-.587.979-1.032 1.477-1.55.124-.129.286-.269.335-.431.196-.675.303-1.38.544-2.037.147-.392.497-.71.851-1.188-.028-.075-.129-.31-.21-.55-.069-.211-.249-.516-.167-.63.367-.52.054-1.092.216-1.608.401-1.278.175-2.555.023-3.899.436-.59 1.109-.174 1.663-.298-.014 1.1.296 1.254 1.684.814.133-.364 0-.58-.377-.633-.446-.062-.89-.1-1.335-.153l.01.016Zm2.256-3.086a3.327 3.327 0 0 0-.096.186c.35.45.659.94 1.058 1.341.276.282.645.069.998-.546-.549-.114-1.14-.149-1.339-.827-.028-.101-.407-.106-.621-.154Zm3.395-.418v-.018h-.498v.018h.498Zm30.111 27.37c1.325 0 2.651-.034 3.969.01 1.007.034 2.048-.225 3.027.33.176.1.544-.172.83-.239 1.091-.263 1.386-.039 1.409 1.071a78.8 78.8 0 0 1 .021 2.064c0 .505-.272.769-.785.769l-.23.004c-4.124-.005-8.25-.01-12.377-.018-.147 0-.3-.044-.439-.062-.473-1.401-.124-1.982 1.056-1.757.01-.757-.605-.608-1.084-.697-.028-.202-.143-.436-.068-.55.489-.73.37-1.523.358-2.321-.013-1.1.03-2.197.072-3.298.01-.19.145-.383.217-.569.76.244-.07 1.468 1.024 1.491-.129-.626-.222-1.174-.374-1.706-.063-.216-.24-.482-.43-.56-.578-.224-.413-.612-.36-1.153.467.105.846.19 1.248.287l.383-.335-.341-1.207c2.832-.731 4.967-2.252 6.598-4.747h-7.941c-.165-2.788.107-5.44.021-8.189.626-.069 1.145-.167 1.668-.167 1.951 0 3.895.009 5.845.041 1.377.023 1.669.33 1.683 1.72.011.874-.01 1.754.011 2.63.005.335.129.613.669.397-.128-.34-.401-.695-.355-1 .136-.862-.067-1.708-.009-2.554.047-.771.598-1.234 1.353-1.239 2.487-.016 4.967-.011 7.452 0 .258 0 .512.08.805.133.079.803.247 1.507.909 2.039.191.154.21.651.156.965-.224 1.307-.424 2.628-.792 3.894-.734 2.528-1.996 4.82-3.493 6.967-1.178 1.7-2.743 3.02-4.448 4.178-1.788 1.211-3.681 2.22-5.738 2.895-.498.162-1.017.25-1.524.367v.121l.004-.005Zm1.204-18.667.866.482c.067-.126.21-.268.182-.37-.14-.522-.526-.433-1.048-.112ZM77.205 62.804l-.508 1.37c.07.008.221.004.345.061.307.133.742.216.87.459.396.738.923 1.527.955 2.316.135 3.119.103 6.249.13 9.38 0 .068-.053.141-.127.352-1.328.19-2.71.058-4.204.058-.032-.45-.086-.819-.086-1.184 0-3.279.014-6.567.01-9.851 0-.601.086-1.09.87-1.19l-.861-.244c0-1.417-.09-2.827.044-4.22.056-.6.496-1.153-.077-1.861.4-.11.676-.234.95-.25.575-.028 1.165.091 1.716 0 1.344-.234 2.033.532 2.602 1.55.703 1.259 1.425 2.513 2.11 3.781.472.872.994 1.697 1.576 2.5.594.826 1.062 1.743 1.588 2.619.074.128.181.239.4.52.045-.428.096-.697.094-.965-.017-2.938-.04-5.88-.054-8.817-.005-.991.11-1.124 1.094-1.163.804-.03 1.607-.02 2.404-.03.603-.01.931.268.947.885.005.269.033.537.033.8V74.23c0 .264-.033.532-.051.853-.259.039-.503.071-.808.12l.705 1.43c-.405.092-.682.195-.96.207-.651.027-1.303-.049-1.946.032-.936.114-1.485-.3-1.926-1.071-.507-.89-1.103-1.727-1.616-2.614-1.497-2.587-2.969-5.19-4.45-7.784-.226-.392-.822-.708-.307-1.224l-1.49-1.34-.312-.545c-.052.062-.11.123-.163.18l.507.331h-.004Zm4.33 2.282c-.607-.138-1.094-.053-1.452.252.554-.092 1.003-.174 1.453-.252Zm6.32 8.081c.059-.018.12-.037.178-.062-.054-.149-.11-.297-.168-.445l-.156.058c.046.149.093.302.142.45h.005Zm74.048-41.86c-.768-.638-1.465-1.193-1.928-2.163-.995-2.096-2.329-4-4.494-5.135-.979-.511-1.944-1.018-3.075-1.153-1.017-.12-1.327-.477-1.339-1.498-.015-1.985-.015-3.97 0-5.956 0-.373.096-.747.154-1.183 1.077-.252 2.113-.12 3.107.02 1.733.244 3.376.808 4.998 1.498 1.907.807 3.564 1.975 5.161 3.225.976.761 1.799 1.745 2.585 2.712.834 1.023 1.647 2.087 2.091 3.37.206.59.482 1.166.713 1.749.196.498-.096.8-.484 1.016-.724.405-1.462.786-2.213 1.142-1.723.791-3.455 1.546-5.283 2.36l.007-.005Zm70.841-8.6c-1.831 0-3.664.057-5.494-.023-.884-.04-1.729-.15-2.647-.03-1.385.183-2.82.069-4.226-.019-1.272-.075-1.449-.305-1.449-1.54 0-1.948 0-3.895.028-5.842.016-.924.13-1.082 1.034-1.153.791-.062 1.597.01 2.399 0 2.706-.03 5.413-.071 8.115-.092 2.673-.018 5.344-.014 8.013 0 1.253.005 1.566.33 1.571 1.56.012 1.795.012 3.589 0 5.384-.009 1.181-.428 1.66-1.618 1.736-.953.062-1.909.018-2.865.023h-2.863l.002-.005Zm-82.388 53.971c-.397.078-.65.168-.904.174a99.908 99.908 0 0 1-3.321 0c-.799-.016-1.08-.282-1.262-1.043-.168-.7-.298-1.422-.549-2.087-.117-.298-.499-.674-.771-.688-1.63-.064-3.265-.034-4.972-.034-.273.924-.558 1.818-.799 2.717-.232.867-.512 1.12-1.424 1.135-.727.01-1.453-.011-2.175.005-.578.014-.792-.24-.837-.819-.119-1.665.206-3.233.79-4.793.783-2.098 1.453-4.23 2.18-6.345.652-1.885 1.222-3.8 1.988-5.637.587-1.412.256-1.284 1.887-1.293.919-.005 1.832.011 2.749.023.827.016.948.117 1.23.91.736 2.064 1.49 4.117 2.203 6.183.549 1.603 1.012 3.233 1.583 4.827.559 1.57 1.218 3.105 1.803 4.665.232.632.377 1.293.605 2.086l-.004.014Zm-10.675-7.492c1.243-.087 2.229-.154 3.246-.22l-1.562-5.378c-.794 1.88-1.067 3.713-1.677 5.598h-.007ZM32.88 31.226a4.7 4.7 0 0 1-2.026-2.236c-1.335-2.871-3.458-4.965-6.527-5.985-.359-.12-.74-.168-1.113-.243-.909-.189-1.176-.475-1.181-1.376-.01-2.06-.014-4.124 0-6.19.01-.965.119-1.11 1.048-1.082 2.058.068 4.082.341 5.97 1.268.869.426 1.85.642 2.697 1.11 3.633 2.018 6.543 4.767 8.322 8.586.252.543.482 1.1.713 1.653.167.408.11.718-.34.933-.74.365-1.448.81-2.198 1.154-1.789.823-3.591 1.607-5.37 2.396l.005.012Zm205.348 7.71c-.473.046-.809.099-1.139.099-4.664.009-9.331.022-13.992.004-.427 0-.851-.22-1.213-.321-.641.12-1.258.305-1.88.33-.726.028-1.062-.234-1.034-.924.072-1.812-.372-3.655.275-5.44.051-.144-.04-.355-.098-.522-.163-.482-.333-.98.226-1.319.454-.277.861-.053 1.429.807-.004-.848.436-.99 1.082-.986 4.894.016 9.788 0 14.684 0 .23 0 .46 0 .689.04.803.123 1.048.373 1.057 1.215.014 1.641 0 3.286-.014 4.928-.005.674-.04 1.348-.063 2.087l-.009.004v-.002Zm-3.296-5.658-.223.253c.249.167.324.603.994.412l-.771-.665Zm-103.555 25.98c.135.388.2.799.403 1.124.864 1.376 1.132 2.89 1.146 4.47.021 1.718.058 3.44-.014 5.16-.051 1.275-.119 2.557-.792 3.75-.905 1.593-2.156 2.664-3.959 2.95-1.66.264-3.336.189-5.053.063-.344-1.104-.157-2.172-.107-3.216.011-.206.457-.516.733-.56a6.466 6.466 0 0 1 1.71-.004c1.46.168 2.673-.722 2.722-2.172.06-2.329.074-4.66.042-6.99-.01-1.002-.875-1.822-1.907-1.891-.798-.05-1.607-.037-2.406-.08-.768-.044-.958-.207-.993-.952-.038-.91-.01-1.819-.01-2.814 1.239-.245 2.342-.096 3.427-.158 1.463-.087 2.748.511 4.05 1.055.316.133.671.178 1.003.266h.005Zm-32.23.67c0 .308.019.613 0 .915-.042.56-.368.94-.89 1.055-1.443.321-2.265 1.321-2.8 2.575-.546 1.269-.85 2.633-.56 3.995.331 1.546.69 3.142 2.198 4.073.159.096.303.282.462.291 1.036.083 1.203.854 1.362 1.642.042.225.105.445.114.67.067 1.608-.382 1.981-1.975 1.603-.582-.138-1.199-.264-1.716-.55-2.224-1.239-3.863-2.929-4.513-5.523-.335-1.334-.372-2.655-.468-3.994-.14-1.915.56-3.633 1.616-5.082 1.085-1.489 2.515-2.745 4.46-3.149.517-.105 1.017-.32 1.539-.378.952-.103 1.138.087 1.19 1.048.016.268 0 .536 0 .8h-.019v.01Zm-55.449-.014c0 .305.005.613 0 .918-.014.57-.354.972-.857 1.078-1.618.33-2.398 1.49-2.966 2.866-.757 1.823-.631 3.679.014 5.481.442 1.231 1.185 2.284 2.575 2.653.282.076.98 1.08 1.02 1.45.06.587.11 1.171.163 1.76.033.363-.126.645-.489.632a14.048 14.048 0 0 1-1.998-.225 6.807 6.807 0 0 1-1.497-.468c-1.358-.608-2.231-1.757-3.116-2.89-1.28-1.641-1.444-3.6-1.63-5.556-.23-2.392.568-4.502 1.926-6.398.88-1.225 2.103-2.087 3.546-2.578.68-.234 1.367-.481 2.075-.59 1.057-.157 1.216.02 1.248 1.058.01.268 0 .537 0 .803h-.014v.006Zm13.248 16.828H52.68c-.033-.426-.093-.832-.093-1.236-.012-5.263-.012-10.526-.012-15.793v-.459c.023-1.23.067-1.268 1.32-1.268h3.065c.063.507.163.908.158 1.312a7951.9 7951.9 0 0 1-.072 16.706c0 .188-.054.374-.105.738h.005Zm16.759.067c-1.295 0-2.51.014-3.719-.005-.459-.011-.675-.293-.652-.761.07-1.555.156-3.105.174-4.66.01-.828-.148-1.66-.153-2.488-.023-3.172-.019-6.346-.023-9.517 0-.23.009-.459.023-.688.035-.452.258-.695.731-.695.955 0 1.912-.03 2.869.005.717.023.826.158.85.928.03.842.016 1.68.016 2.523 0 4.352 0 8.712-.004 13.065 0 .685-.059 1.369-.103 2.293h-.01Z"/>
      <path d="M16.77 57.978c.038.837.115 1.67.115 2.507-.014 2.862-.07 5.724-.077 8.583 0 1.674.063 3.355.086 5.03.014.832 0 1.664 0 2.593a21.226 21.226 0 0 1-3.877.069c-.19-.016-.508-.4-.512-.61-.014-1.555.035-3.11.07-4.665 0-.144.088-.286.07-.426-.455-3.34-.124-6.696-.205-10.047-.024-.942.023-1.885.037-2.986l4.322-.02-.033-.028h.005Zm105.78 18.775h-4.338V58.035c1.211-.119 2.421-.176 3.609.04.308.052.594.53.762.873.123.25.041.599.041.906 0 1.947-.032 3.89.01 5.836.039 1.613-.196 3.211-.042 4.835.147 1.587.037 3.199.028 4.802 0 .445-.042.892-.07 1.43v-.004ZM2.084 75.48l-.305-.784-.284.014-.326 1.65c-.94.063-1.069 0-1.101-.889a99 99 0 0 1-.047-4.46c.023-2.326.084-4.646.117-6.972.004-.415-.07-.832-.091-1.247-.033-.757-.082-1.518.521-2.172-.708-.7-.591-1.555-.454-2.408a2.081 2.081 0 0 1 1.698.245c.598-.703 1.376-.493 2.107-.373.536.091.508.596.513 1.018.018 1.374.032 2.743.041 4.114.005.915.04 1.835-.009 2.747-.028.48-.3.947-.3 1.422 0 .468.281.938.29 1.406.036 2.247.02 4.5.01 6.747 0 .45.047 1.055-.489 1.162-.48.101-1.055 0-1.537-.167-.503-.172-.296-.711-.335-1.11.144.046.286.096.43.144l.015-.105-.45.018h-.014Zm-.577-16.039c-.126-.147-.194-.29-.25-.286-.134.009-.263.091-.395.144.074.106.137.268.237.3.091.03.23-.084.4-.158h.008ZM159.715 76.85h-3.463c-.555 0-.852-.263-.847-.839 0-.612-.024-1.22-.01-1.832.045-2.057.13-4.114.144-6.171.009-1.37-.095-2.739-.116-4.1-.009-.485.082-.968.13-1.519h4.15c.321 1.527.353 13.246.014 14.455l-.002.006Zm-59.396-3.827c1.075-.193 1.751-.84 2.347-1.782-.641.087-1.157.211-1.672.216-1.085.009-1.448-.363-1.465-1.422-.009-.534.017-1.071.021-1.6.01-.556.264-.843.846-.833.535.009 1.071-.03 1.606-.023 1.409.007 1.477.069 1.635 1.6l.186-1.587c1.205 0 2.338-.03 3.47.024.236.009.526.282.675.51.372.59.344 1.285.129 1.886-.531 1.497-1.105 3.01-2.236 4.174-1.412 1.444-3.06 2.506-5.151 2.64-1.108.073-1.427-.39-1.104-1.478.226-.747.454-1.493.704-2.325h.009Zm16.889-7.776c.698.857.513 1.87.445 2.848-.033.511-.431.78-.955.793-1.564.035-3.127.069-4.689.097-.799.013-1.598.043-2.397.013-.917-.034-1.062-.195-1.08-1.091-.019-.865 0-1.732 0-2.55.995-.292 7.263-.34 8.68-.106l-.004-.004Zm-65.124-1.498c-.962.532-1.84 1.053-2.755 1.502-.5.25-.973.097-1.299-.388-.233-.343-.482-.687-.68-1.052-.596-1.12-1.525-1.736-2.771-1.899-.11-.014-.21-.082-.394-.154-.263-1.057-.156-2.157-.086-3.249.03-.445.431-.55.776-.477.775.167 1.572.314 2.293.626 2.278.977 4.127 2.413 4.92 5.091h-.004Zm55.4.034c-.936.493-1.893 1.023-2.871 1.507-.373.184-.757.071-1.034-.259-.191-.23-.392-.468-.517-.734-.649-1.429-1.77-2.213-3.365-2.46-.328-1.202-.133-2.404-.119-3.562 2.634-.933 6.902 2.041 7.913 5.508h-.007Zm133.033 13.081h-3.777c-1.332 0-2.662-.018-3.995-.01-1.033.01-1.281-.21-1.258-1.267.01-.482.067-.963.13-1.445.028-.23 1.069-1.057 1.332-1.032.818.069 1.612-.073 2.419-.17.331-.036.717-.036 1.009.092.521.23.97.349 1.507.018.181-.11.554-.084.749.03.417.243.757.23 1.167 0 .368-.201.78 0 .789.374.023 1.08.292 2.18-.068 3.406l-.004.004Zm-7.768-1.818-.137.03.07.339.139-.028-.072-.341Zm-1.262-9.747c.659-.08 1.176-.195 1.697-.2 1.679-.022 3.361-.02 5.039-.015 1.358.004 1.454.114 1.468 1.518.004.644 0 1.286 0 2.08-.65.092-1.234.206-1.826.245-1.28.076-2.564-.153-3.863.076-.64.115-1.358-.092-2.017-.248-.207-.053-.466-.422-.479-.656-.056-.899-.023-1.809-.023-2.804l.004.004ZM48.13 69.905c1.348.303 2.385 1.014 3.418 1.704.133.092.129.603.01.824-.35.621-.708 1.277-1.204 1.775-1.483 1.483-3.181 2.598-5.393 2.598a2.297 2.297 0 0 1-.454-.04c-.11-.022-.205-.09-.317-.137-.037-.11-.105-.215-.105-.325 0-1.15.46-2.172 1.025-3.126.205-.349.715-.505 1.078-.77.848-.608 1.532-1.354 1.942-2.498v-.005ZM4.9 65.427c2.084-.512 4-.207 5.898-.287.638-.028.97.367 1.118.947.02.074.03.15.03.225.023 2.312.321 2.451-2.266 2.532-.792.023-1.593.119-2.38.096a11.42 11.42 0 0 1-1.918-.278c-.41-.087-.473-.458-.478-.818-.01-.784 0-1.573 0-2.417H4.9ZM207.8 58.072c-.378-.305-.322-.56.018-.855.295.312.391.564-.018.855ZM41.924 37.245c-.1-.225-.19-.34-.19-.454 0-.069.167-.211.204-.193.117.048.263.15.28.25.014.085-.14.195-.298.397h.004Zm129.492-.401c-.182.128-.294.275-.389.263-.101-.009-.256-.172-.256-.263 0-.101.155-.26.256-.273.095-.01.21.137.389.275v-.002Z"/>
    </g>
  </mask>
  <g mask="url(#b)">
    <path fill="#FBFAFB" d="M-1 0h241.62v90H-1V0Z"/>
  </g>
</svg>
