<svg xmlns="http://www.w3.org/2000/svg" fill="none" viewBox="0 0 242 90">
  <path fill="#fff" fill-rule="evenodd" d="M43.846.615c-2.23 0-4.384 2.539-4.384 4.385v73.692c0 2.231 2.23 4.385 4.384 4.385h16.539v-5H45.923c-.769 0-1.461-.77-1.461-1.462V7.078c0-.77.769-1.462 1.461-1.462h150.692c.77 0 1.462.77 1.462 1.462v69.538c0 .693-.769 1.462-1.462 1.462h-50.307v5h52.307c1.924 0 4.385-2.23 4.385-4.385V5c0-1.923-2.461-4.385-4.385-4.385H43.846Z" clip-rule="evenodd"/>
  <path fill="#fff" d="M63.615 63.154v-41.23H70v20.384l16.923-20.385h7.846L79.462 39.615l15.615 23.539h-7.23L74.538 43.846l-4.539 5v14.308h-6.385ZM118.846 27.538l-5.769 18.154h12l-6.231-18.154Zm-3.923-5.615h7.769l15.539 41.154h-7.693l-3.846-10.923h-16.154l-3.846 10.923h-7.307l15.538-41.154ZM143 21.923h6v35.77h17.846v5.076H143V21.923ZM172.308 21.923h6.077v40.77h-6.077v-40.77ZM73.692 79.077c.308.692.462 1.538.462 2.538 0 1-.154 1.847-.462 2.539a3.926 3.926 0 0 1-1.307 1.615c-.539.385-1.154.539-1.923.539-.539 0-.923-.077-1.308-.231a3.416 3.416 0 0 1-.846-.615c-.231-.231-.385-.462-.462-.693h-.154v1.385h-2.076v-12h2.153v4.461h.077c.077-.23.231-.461.462-.692.23-.23.461-.462.769-.615.308-.154.77-.231 1.308-.231.692 0 1.307.154 1.846.538.692.231 1.154.77 1.461 1.462Zm-1.846 4c.154-.462.231-.923.231-1.462 0-.538-.077-1.077-.23-1.461-.155-.462-.385-.77-.693-1A1.89 1.89 0 0 0 70 78.769a1.89 1.89 0 0 0-1.154.385c-.307.23-.538.538-.692 1-.154.461-.23.923-.23 1.538 0 .616.076 1.077.23 1.539.154.461.385.769.692 1 .308.23.693.384 1.154.384a1.89 1.89 0 0 0 1.154-.384l.692-1.154ZM83.385 77.077l-3.616 10.077a3.9 3.9 0 0 1-.692 1.23c-.308.308-.615.616-1 .77-.385.154-.846.308-1.462.308-.307 0-.538 0-.769-.077-.23-.077-.461-.077-.615-.154l.461-1.616c.308.077.616.154.847.154.23 0 .461-.077.615-.23.154-.154.308-.385.462-.693l.153-.461-3.23-9.154h2.23L79 83.846h.077l2.077-6.77h2.23ZM100.154 80.077c0 1.308-.23 2.385-.692 3.308a4.751 4.751 0 0 1-2 2.076c-.847.462-1.77.77-2.847.77s-2-.231-2.846-.77c-.846-.461-1.461-1.153-2-2.076-.461-.924-.692-2-.692-3.308 0-1.308.23-2.385.692-3.308a4.752 4.752 0 0 1 2-2.077c.846-.461 1.77-.692 2.846-.692 1.077 0 2 .23 2.847.692.846.462 1.461 1.154 2 2.077.384.923.692 2 .692 3.308Zm-2.23 0c0-.923-.155-1.692-.463-2.308-.307-.615-.692-1.077-1.153-1.384-.462-.308-1.077-.462-1.693-.462-.615 0-1.23.154-1.692.462-.462.307-.923.769-1.154 1.384-.308.615-.461 1.385-.461 2.308 0 .923.153 1.692.461 2.308.308.615.692 1.076 1.154 1.384.462.308 1.077.462 1.692.462.616 0 1.231-.154 1.693-.462.461-.308.923-.77 1.153-1.385.308-.615.462-1.384.462-2.307ZM103.846 75.538c-.154.154-.23.462-.23.847v.692h1.846v1.615h-1.846V86h-2.154v-9.846c0-.616.154-1.077.384-1.539.231-.384.616-.692 1-.923.462-.23.923-.307 1.385-.307.385 0 .692 0 1 .076.308.077.461.077.615.154l-.384 1.616c-.077 0-.231-.077-.308-.077-.154 0-.308-.077-.462-.077-.384.23-.692.308-.846.461ZM109.077 75.538c-.154.154-.231.462-.231.847v.692h1.846v1.615h-1.846V86h-2.154v-9.846c0-.616.154-1.077.385-1.539.231-.384.615-.692 1-.923.462-.23.923-.307 1.385-.307.384 0 .692 0 1 .076.307.077.461.077.615.154l-.385 1.616c-.077 0-.23-.077-.307-.077-.154 0-.308-.077-.462-.077-.384.23-.692.308-.846.461ZM120.462 81.308c.23.384.307.846.307 1.384 0 .693-.154 1.308-.538 1.847-.385.538-.846.923-1.539 1.23-.692.308-1.461.462-2.461.462-.923 0-1.769-.154-2.385-.462-.692-.307-1.231-.692-1.615-1.23a3.426 3.426 0 0 1-.616-2h2.154c0 .384.154.769.385 1.076.231.308.538.462.923.616.385.154.769.23 1.231.23.461 0 .923-.076 1.23-.23.385-.154.616-.308.847-.616.23-.23.307-.538.307-.923 0-.307-.077-.538-.307-.769-.154-.23-.462-.385-.77-.538-.307-.154-.692-.231-1.153-.385l-1.385-.385c-1-.23-1.769-.615-2.308-1.153-.538-.539-.846-1.231-.846-2.077 0-.693.154-1.308.539-1.847.384-.538.923-.923 1.538-1.23a5.261 5.261 0 0 1 2.231-.462c.846 0 1.615.154 2.231.462.615.307 1.153.692 1.538 1.23.385.539.538 1.154.538 1.77h-2.076c-.077-.539-.308-.923-.693-1.154-.384-.308-.923-.462-1.538-.462-.462 0-.846.077-1.154.231a2.761 2.761 0 0 0-.769.539c-.154.23-.231.538-.231.769 0 .23.077.461.154.615.077.154.308.308.461.462.231.154.385.23.693.307l.692.231 1.154.308c.461.077.923.23 1.307.461.385.154.77.385 1.154.693.308.307.539.615.77 1ZM130.462 81.462v.615h-6.231c0 .462.077.923.307 1.308.154.384.462.692.77.846.307.23.769.308 1.23.308.308 0 .616-.077.847-.154.23-.077.461-.231.615-.385.154-.154.308-.385.385-.615l2 .23c-.154.539-.385 1-.693 1.385-.384.385-.769.692-1.307.923-.539.23-1.154.308-1.847.308-.923 0-1.692-.154-2.307-.539a4.441 4.441 0 0 1-1.539-1.615c-.384-.692-.538-1.538-.538-2.462 0-.923.154-1.769.538-2.461.385-.692.846-1.23 1.462-1.615a4.203 4.203 0 0 1 2.231-.616c.538 0 1.077.077 1.538.23.462.155.923.462 1.308.847.384.385.692.846.923 1.385.154.615.308 1.307.308 2.077Zm-2.077-.77c0-.384-.077-.769-.231-1.077-.154-.307-.385-.538-.692-.769-.308-.154-.693-.308-1.077-.308-.462 0-.847.077-1.154.308-.308.23-.616.462-.769.846a2.128 2.128 0 0 0-.231 1h4.154ZM137.539 83.77c.153-.231.307-.54.307-.847h2c-.077.615-.231 1.23-.538 1.692-.308.462-.769.847-1.308 1.154-.538.308-1.231.385-2 .385-.923 0-1.692-.23-2.308-.615-.615-.385-1.153-.924-1.461-1.616-.308-.692-.539-1.461-.539-2.385 0-.923.154-1.692.539-2.384.384-.692.846-1.23 1.461-1.615.616-.385 1.385-.616 2.308-.616.692 0 1.385.154 1.923.385.539.23 1 .615 1.308 1.154.308.461.538 1.076.538 1.692h-2c-.077-.462-.307-.77-.615-1.077-.308-.308-.692-.462-1.231-.462-.461 0-.846.077-1.154.385-.307.23-.615.538-.769 1-.154.462-.308.923-.308 1.538 0 .616.077 1.154.308 1.539.154.462.462.77.769 1 .308.23.693.385 1.154.385.308 0 .616-.077.846-.154.385-.077.616-.308.77-.539Z"/>
</svg>
