<svg xmlns="http://www.w3.org/2000/svg" fill="none" viewBox="0 0 242 90">
  <g clip-path="url(#a)">
    <mask id="b" width="242" height="90" x="0" y="0" maskUnits="userSpaceOnUse" style="mask-type:luminance">
      <path fill="#fff" d="M241.62 0H0v90h241.62V0Z"/>
    </mask>
    <g mask="url(#b)">
      <mask id="c" width="242" height="65" x="0" y="13" maskUnits="userSpaceOnUse" style="mask-type:alpha">
        <path fill="#fff" fill-rule="evenodd" d="M231.388 62.88h-5.945V51.45h5.56c1.352 0 2.316.037 3.398.193 3.36.424 5.253 2.163 5.253 5.484 0 3.244-2.123 5.407-5.444 5.677-1.121.077-1.778.077-2.822.077Zm8.458 6.721c-.309-2.936-1.545-5.33-3.9-6.143 3.13-.655 5.293-3.01 5.293-6.449 0-3.978-2.436-6.14-6.491-6.644-1.235-.151-2.393-.191-3.745-.191h-7.03v26.65h1.47v-12.67h5.907c.618 0 1.506 0 2.316.038 3.09.156 4.366 2.706 4.713 5.643.424 3.705.968 5.29 1.584 6.989h1.66c-.808-1.622-1.351-3.358-1.777-7.223Zm-36.22-5.486h14.138V62.88h-14.138V51.41h15.025v-1.236H202.16v26.65h16.879v-1.275h-15.413V64.115ZM176.984 51.41h10.005v25.415h1.466V51.409h10.043v-1.235h-21.514v1.235Zm-5.513-1.235v14.174c0 3.475 0 7.607.077 11.087l-15.219-25.261h-2.239v26.65h1.468V62.612c0-3.48 0-7.572-.077-11.05l15.179 25.262h2.279l-.04-26.65h-1.428Zm-25.174 17.458c0 .885-.038 1.62-.114 2.394-.31 3.36-2.552 6.064-7.379 6.064-4.789 0-7.029-2.704-7.339-6.064a23.242 23.242 0 0 1-.116-2.394V50.174h-1.469v17.419c0 .657.04 1.468.117 2.55.31 4.168 3.207 7.222 8.807 7.222 5.638 0 8.534-3.054 8.844-7.223.08-1.081.117-1.892.117-2.55V50.175h-1.468v17.458Zm-32.83-13.316H98.241V38.758H88.31v38.066h9.93V62.039h15.227v14.785h9.93V38.758h-9.93v15.558Zm-50.998-2.907h10.005v25.415h1.468V51.409h10.04v-1.235H62.469v1.235ZM44.596 64.115h14.135V62.88H44.596V51.41H59.62v-1.236h-16.49v26.65h16.877v-1.275h-15.41V64.115Zm-18.115-9.082c0 2.207.055 6.123.33 9.985l-14.455-26.26H0v38.066h9.93V61.099c0-2.205 0-5.57-.332-9.432l13.85 25.157h12.964V38.758h-9.93v16.275ZM148.198 32.794h3.152V13.003h-3.152v19.791ZM132.339 13h-3.157v19.794h13.686v-2.611h-10.529V13Zm-19.844 10.757 2.753-8.145 2.61 8.145h-5.363ZM113.269 13l-7.113 19.794h3.356l2.15-6.54h7.029l2.15 6.54h3.413L117.342 13h-4.073Zm-13.276 0-9.21 10.07V13H87.63v19.794h3.155v-6.369l1.75-1.892 6.511 8.261h4.219l-8.435-10.21L103.72 13h-3.727Z" clip-rule="evenodd"/>
      </mask>
      <g mask="url(#c)">
        <path fill="#FBFAFB" d="M0-.164h241.62v90H0v-90Z"/>
      </g>
    </g>
  </g>
  <defs>
    <clipPath id="a">
      <path fill="#fff" d="M0 0h242v90H0z"/>
    </clipPath>
  </defs>
</svg>
