<svg xmlns="http://www.w3.org/2000/svg" fill="none" viewBox="0 0 242 90">
  <g clip-path="url(#a)">
    <g clip-path="url(#b)">
      <mask id="c" width="211" height="45" x="16" y="4" maskUnits="userSpaceOnUse" style="mask-type:luminance">
        <path fill="#fff" d="M226.6 4H16v45h210.6V4Z"/>
      </mask>
      <g mask="url(#c)">
        <path fill="#fff" d="M54.383 37.414c0 2.05-.779 3.072-2.331 3.072-1.554 0-2.223-1.058-2.223-3.179V13.324c0-1.078-.046-1.922-.136-2.532-.092-.61-.281-1.078-.57-1.401-.288-.323-.741-.522-1.356-.593a21.967 21.967 0 0 0-2.438-.11h-2.656c-.904 0-1.618.054-2.143.164a2.164 2.164 0 0 0-1.22.645c-.289.323-.478.791-.568 1.402-.09.61-.136 1.418-.136 2.425v24.037c0 2.085-.758 3.127-2.276 3.127-.833 0-1.427-.244-1.788-.73-.364-.483-.543-1.245-.543-2.288V13.378c0-1.005-.046-1.813-.136-2.426-.09-.61-.271-1.086-.543-1.427a1.945 1.945 0 0 0-1.165-.673 9.999 9.999 0 0 0-2.005-.163h-5.583c-.794 0-1.447.053-1.952.163-.458.08-.877.307-1.193.645a2.712 2.712 0 0 0-.597 1.295c-.12.693-.175 1.396-.161 2.1v1.726c0 .61.025 1.094.082 1.455.05.358.143.664.269.915.128.255.325.458.596.62.272.163.625.331 1.058.512.758.287 1.255.666 1.49 1.131.236.468.372 1.259.408 2.373v13.634c0 1.833-.308 3.102-.922 3.801-.615.7-1.734 1.05-3.36 1.05-1.627 0-2.748-.35-3.363-1.05-.615-.701-.922-2.003-.922-3.908V9.444c0-1.114.074-2.011.218-2.695.146-.682.415-1.213.814-1.59.397-.376.958-.635 1.68-.78.93-.162 1.873-.234 2.817-.216h27.485c1.122 0 2.034.063 2.74.188.703.127 1.256.386 1.653.78.397.397.658.954.786 1.671.126.72.19 1.67.19 2.858v27.754Zm24.501-12.881c0 .864-.054 1.573-.161 2.13-.11.557-.308.98-.597 1.267-.29.287-.704.483-1.247.592-.716.122-1.443.177-2.17.163h-5.362c-1.23 0-2.016.17-2.359.511-.343.34-.515 1.124-.515 2.344v1.724c0 .649.026 1.16.082 1.536.029.327.172.633.405.865.253.213.566.344.896.376.513.062 1.029.089 1.545.081h3.198c.794 0 1.355-.127 1.68-.379.326-.251.525-.699.597-1.347l.108-.916c.11-1.22.742-1.83 1.898-1.83 1.336 0 2.005.933 2.005 2.802v1.508c0 .897-.054 1.617-.162 2.156-.075.47-.282.908-.596 1.266-.29.305-.705.504-1.247.593-.719.101-1.444.146-2.17.134H63.167c-.868 0-1.583-.045-2.141-.134-.564-.09-.986-.288-1.276-.593a2.524 2.524 0 0 1-.596-1.266 11.387 11.387 0 0 1-.162-2.156V18.984c0-.935.044-1.68.136-2.237.09-.56.29-.99.597-1.294.35-.326.796-.534 1.273-.593a13.856 13.856 0 0 1 2.169-.135h11.545c.904 0 1.637.046 2.198.135.558.089.983.287 1.273.593.289.305.478.737.568 1.294.09.557.136 1.302.136 2.237v5.549h-.003Zm-3.954-3.067c0-1.22-.172-2.004-.515-2.344-.343-.344-1.13-.514-2.356-.514h-6.236c-.65 0-1.166.026-1.544.081-.323.028-.628.16-.869.377-.218.24-.35.543-.379.864-.053.377-.082.89-.082 1.536v.377c0 .645.026 1.159.082 1.535.054.377.18.674.38.89.199.214.486.348.867.404.38.051.894.08 1.545.08h6.234c1.229 0 2.015-.171 2.356-.51.345-.343.517-1.144.517-2.4v-.376ZM85.064 8.905c0-1.256.146-2.128.435-2.614.29-.483.812-.727 1.57-.727.761 0 1.283.234 1.573.702.29.465.435 1.327.435 2.586v3.826c0 .862.08 1.399.243 1.617.162.214.59.341 1.273.377 1.665.035 2.495.702 2.495 1.993 0 1.294-.758 1.958-2.28 1.996-.793.036-1.288.16-1.488.377-.2.216-.299.755-.299 1.617v1.131c0 .862.11 1.447.325 1.752.218.306.707.547 1.465.728.758.216 1.247.503 1.462.862.218.358.326 1.078.326 2.156v8.246c0 .933-.044 1.696-.134 2.288-.092.596-.271 1.06-.542 1.404a2.049 2.049 0 0 1-1.112.7 7.36 7.36 0 0 1-1.844.187c-1.12 0-1.934-.099-2.438-.295-.507-.198-.886-.584-1.14-1.159a2.894 2.894 0 0 1-.271-1.05 27.2 27.2 0 0 1-.051-2.075V20.978l-.057-.916c0-.503-.082-.836-.243-.999-.164-.16-.479-.277-.948-.348l-.706-.054c-1.373-.109-2.06-.755-2.06-1.942 0-1.328.759-1.994 2.277-1.994.397 0 .715-.025.948-.081a.75.75 0 0 0 .515-.376 2.3 2.3 0 0 0 .217-.863c.036-.376.054-.89.054-1.535V8.905Zm31.875 27.055c0 .897-.051 1.617-.161 2.156-.076.47-.282.908-.597 1.266-.289.305-.704.504-1.247.593-.718.101-1.442.146-2.167.134h-11.548c-.868 0-1.58-.053-2.14-.162-.562-.107-.987-.306-1.276-.593-.287-.287-.487-.71-.594-1.266a11.489 11.489 0 0 1-.164-2.128V29.06c0-.933.046-1.678.135-2.238.09-.556.29-.986.597-1.291.35-.326.796-.534 1.273-.593.543-.091 1.265-.134 2.169-.134h8.89c.614 0 1.111-.038 1.49-.11a1.63 1.63 0 0 0 .871-.404c.219-.24.36-.54.405-.862.08-.49.116-.986.107-1.482v-.483c0-.61-.026-1.107-.082-1.483a1.473 1.473 0 0 0-.379-.864 1.488 1.488 0 0 0-.866-.377 11.581 11.581 0 0 0-1.546-.081h-6.506c-.901 0-1.526.091-1.869.27-.343.18-.551.574-.622 1.187l-.11.753c-.18 1.187-.83 1.78-1.952 1.78-.758 0-1.28-.217-1.57-.649-.29-.432-.435-1.22-.435-2.37v-.646c0-.935.046-1.68.135-2.237.09-.56.29-.99.597-1.294.35-.326.796-.534 1.273-.593.543-.089 1.265-.135 2.169-.135h11.602c.901 0 1.626.046 2.166.135.543.089.958.287 1.248.593.289.305.479.737.571 1.294.089.557.133 1.302.133 2.237V35.96Zm-9.54-7.222c-1.229 0-2.015.17-2.356.511-.346.341-.518 1.124-.518 2.345v1.724c0 .648.026 1.16.083 1.535.029.327.173.633.407.865.252.213.564.344.894.376.378.054.896.082 1.544.082h2.656c.614 0 1.111-.036 1.49-.11a1.63 1.63 0 0 0 .871-.401 1.59 1.59 0 0 0 .405-.84c.071-.356.107-.841.107-1.451v-1.618c0-.683-.026-1.22-.082-1.617a1.642 1.642 0 0 0-.379-.915 1.405 1.405 0 0 0-.866-.407c-.513-.06-1.03-.087-1.546-.079h-2.71Zm33.824 7.222c0 .897-.056 1.617-.164 2.156-.075.47-.282.908-.596 1.266-.29.305-.705.504-1.248.593-.717.101-1.442.146-2.166.134h-11.548c-.904 0-1.627-.045-2.17-.134a2.277 2.277 0 0 1-1.272-.593 2.252 2.252 0 0 1-.597-1.266 13.527 13.527 0 0 1-.136-2.156v-1.78c0-1.22.146-2.055.435-2.505.287-.45.794-.674 1.517-.674.686 0 1.165.178 1.436.54.272.358.443 1.042.515 2.049.036 1.15.218 1.876.543 2.181.325.306 1.03.458 2.113.458h2.873c.651 0 1.166-.035 1.547-.107.323-.046.625-.187.866-.407.22-.239.361-.538.407-.859.072-.379.107-.872.107-1.482v-1.78c0-1.22-.17-1.994-.512-2.317-.345-.323-1.131-.483-2.361-.483h-5.365c-.868 0-1.58-.056-2.141-.162-.561-.11-.986-.316-1.276-.62a2.527 2.527 0 0 1-.596-1.267 11.455 11.455 0 0 1-.162-2.156v-5.605c0-.935.046-1.68.136-2.237.09-.56.289-.99.597-1.294a2.28 2.28 0 0 1 1.273-.593c.543-.089 1.265-.135 2.169-.135h11.652c.908 0 1.63.046 2.17.135.477.059.924.266 1.276.593.307.305.504.737.596 1.294.09.557.136 1.302.136 2.237v1.132c0 .933-.154 1.597-.461 1.993-.308.394-.822.593-1.545.593-.653 0-1.131-.163-1.436-.483-.308-.326-.517-.865-.625-1.62-.072-.826-.272-1.355-.597-1.59-.325-.233-1.029-.35-2.113-.35h-6.397c-.615 0-1.112.036-1.491.11a1.628 1.628 0 0 0-.868.404 1.473 1.473 0 0 0-.379.861c-.061.492-.089.988-.082 1.483v.432c0 .61.036 1.104.11 1.48.045.322.187.624.407.865.24.215.544.347.866.376.379.05.876.079 1.491.079h8.892c.901 0 1.633.056 2.194.163.562.106.984.315 1.274.62.288.305.478.737.57 1.291.09.56.136 1.305.136 2.238v6.899Zm4.39-17.085c0-.862.054-1.564.161-2.1a2.41 2.41 0 0 1 .624-1.269 2.434 2.434 0 0 1 1.274-.618c.542-.11 1.228-.163 2.061-.163h11.602c.902 0 1.627.054 2.167.163.542.107.957.305 1.247.592.289.288.487.7.596 1.239.108.539.162 1.258.162 2.156v16.978c0 .933-.043 1.678-.136 2.238-.09.554-.279.986-.568 1.291-.29.305-.712.504-1.273.593-.727.1-1.462.145-2.195.134h-9.217c-1.011 0-1.691.163-2.034.483-.343.326-.512.972-.512 1.943v3.774c0 1.256-.138 2.118-.41 2.586-.269.467-.783.701-1.544.701-.758 0-1.28-.244-1.572-.73-.287-.483-.433-1.355-.433-2.613V18.875Zm6.83-.27c-1.229 0-2.016.17-2.356.514-.346.34-.518 1.122-.518 2.342v1.51c0 .865.11 1.447.325 1.752.219.306.705.547 1.465.727.759.217 1.248.504 1.463.865.217.356.325 1.076.325 2.154v4.851c0 .646.025 1.157.082 1.533.029.327.174.633.408.865.252.213.563.344.893.376.379.054.897.082 1.544.082h2.603c.615 0 1.11-.036 1.49-.11.323-.044.626-.184.868-.401.221-.241.362-.542.408-.865.071-.376.108-.87.108-1.48V21.46c0-1.22-.162-2-.488-2.34-.325-.344-1.101-.515-2.33-.515h-6.29Zm24.937 16.922c0 .936-.046 1.699-.136 2.291-.089.593-.271 1.06-.543 1.401-.282.35-.673.596-1.111.702a7.268 7.268 0 0 1-1.844.188c-1.119 0-1.921-.099-2.41-.297-.486-.196-.875-.585-1.165-1.157a2.898 2.898 0 0 1-.272-1.053 27.091 27.091 0 0 1-.053-2.075V7.344c0-1.256.142-2.118.432-2.586.29-.468.811-.702 1.573-.702.757 0 1.228.234 1.518.702.287.468.433 1.33.433 2.586v4.742c0 .864.108 1.45.325 1.754.215.306.705.547 1.463.725.761.216 1.247.504 1.464.865.218.356.326 1.075.326 2.153V35.53v-.003Zm24.232.433c0 .897-.055 1.617-.163 2.156-.076.47-.283.908-.596 1.266-.29.305-.706.504-1.248.593-.718.101-1.441.146-2.167.134h-11.547c-.869 0-1.581-.045-2.142-.134-.56-.09-.986-.288-1.272-.593a2.51 2.51 0 0 1-.597-1.266 11.372 11.372 0 0 1-.164-2.156V18.984c0-.935.045-1.68.135-2.237.093-.56.29-.99.598-1.294a2.28 2.28 0 0 1 1.274-.593 13.864 13.864 0 0 1 2.168-.135h11.547c.902 0 1.633.046 2.194.135.562.089.983.287 1.275.593.288.305.477.737.57 1.294.09.557.135 1.302.135 2.237V35.96Zm-13.066-17.352c-1.229 0-2.013.17-2.356.514-.344.34-.514 1.121-.514 2.342v1.51c0 .864.107 1.447.322 1.752.218.305.706.547 1.465.727.758.216 1.247.504 1.465.864.215.357.325 1.076.325 2.154v4.852c0 .646.026 1.157.08 1.533.028.327.173.633.407.865.253.213.566.344.896.376.377.053.894.081 1.545.081h2.601c.615 0 1.11-.035 1.492-.109.322-.045.622-.184.865-.402a1.6 1.6 0 0 0 .409-.864c.068-.377.106-.87.106-1.48V21.46c0-1.22-.162-2.001-.488-2.342-.325-.343-1.099-.514-2.33-.514l-6.29.003Zm24.937-11.264c0 1.256-.261 2.128-.786 2.611-.522.486-1.509.73-2.954.73-1.517 0-2.54-.216-3.062-.649-.525-.432-.786-1.256-.786-2.479 0-1.291.282-2.192.84-2.695.56-.5 1.597-.753 3.116-.753 1.373 0 2.324.224 2.846.674.525.448.786 1.302.786 2.56Zm0 28.186c0 .933-.046 1.696-.135 2.288-.055.507-.243.99-.541 1.404a2.053 2.053 0 0 1-1.111.7c-.472.126-1.085.187-1.845.187-1.121 0-1.922-.099-2.412-.295-.486-.198-.875-.584-1.165-1.159a2.883 2.883 0 0 1-.271-1.05 26.598 26.598 0 0 1-.054-2.075V17.906c0-1.258.144-2.12.435-2.588.286-.466.812-.7 1.57-.7s1.229.234 1.519.7c.29.468.436 1.33.436 2.588v3.88c0 .862.104 1.447.322 1.752.218.306.704.547 1.465.728.758.216 1.246.503 1.462.862.217.358.325 1.078.325 2.156v8.246Zm5.096-26.625c0-1.256.144-2.128.436-2.614.288-.483.812-.727 1.569-.727.758 0 1.284.234 1.574.702.289.465.435 1.327.435 2.586v3.826c0 .862.079 1.399.243 1.617.162.214.587.341 1.273.377 1.663.035 2.495.702 2.495 1.993 0 1.294-.762 1.958-2.281 1.996-.794.036-1.291.16-1.487.377-.2.216-.3.755-.3 1.617v1.131c0 .862.108 1.447.325 1.752.218.306.706.547 1.466.728.757.216 1.243.503 1.461.862.218.358.326 1.078.326 2.156v8.246c0 .933-.045 1.696-.135 2.288a2.93 2.93 0 0 1-.544 1.404 2.04 2.04 0 0 1-1.108.7 7.359 7.359 0 0 1-1.845.187c-1.12 0-1.934-.099-2.439-.295-.506-.198-.884-.584-1.138-1.159a2.925 2.925 0 0 1-.272-1.05 28.723 28.723 0 0 1-.054-2.075V20.978l-.054-.916c0-.503-.081-.836-.245-.999-.162-.16-.477-.277-.948-.348l-.704-.054c-1.372-.109-2.061-.755-2.061-1.942 0-1.328.76-1.994 2.279-1.994.396 0 .713-.025.947-.081a.74.74 0 0 0 .516-.376c.126-.271.202-.564.216-.863.038-.376.052-.89.052-1.535l.002-2.965Zm50.415 26.355c0 1.076-.071 1.933-.216 2.558a2.396 2.396 0 0 1-.924 1.457c-.468.341-1.127.565-1.976.674-.85.107-1.998.16-3.442.16h-14.151c-1.302 0-2.349-.063-3.143-.188-.794-.127-1.417-.368-1.869-.727-.453-.359-.75-.88-.896-1.564-.16-.87-.234-1.754-.218-2.639V6.911c0-1.94.762-2.911 2.279-2.911.832 0 1.417.226 1.76.674.346.45.517 1.195.517 2.237v7.438c0 1.078.09 1.869.268 2.37.18.503.526.844 1.033 1.024l.922.433c.358.178.659.358.895.539.234.178.414.44.54.78.127.341.207.827.246 1.455.034.63.051 1.447.051 2.454v8.083c0 .898.057 1.617.163 2.156.11.54.333.941.679 1.213.344.27.83.448 1.463.54.632.088 1.491.134 2.576.134h4.932c.834 0 1.501-.056 2.005-.163a2.346 2.346 0 0 0 1.196-.592c.313-.337.52-.76.595-1.213.121-.667.175-1.344.161-2.022V6.912c0-1.043.18-1.788.543-2.238.358-.448.94-.674 1.735-.674.794 0 1.372.226 1.736.674.358.45.54 1.195.54 2.237v28.35Zm20.385-20.535c.903 0 1.625.046 2.169.135.477.06.921.267 1.272.593.308.305.506.737.596 1.294.09.557.137 1.302.137 2.237v17.784c0 1.256-.148 2.129-.436 2.614-.288.483-.813.727-1.569.727-.762 0-1.277-.234-1.548-.699-.269-.468-.404-1.33-.404-2.588V21.464c0-1.221-.172-2.004-.516-2.345-.346-.343-1.129-.514-2.358-.514h-6.18c-1.229 0-2.016.17-2.358.514-.343.34-.516 1.122-.516 2.342v1.51c0 .865.108 1.447.326 1.752.217.306.703.547 1.461.727.762.217 1.248.504 1.465.865.22.356.326 1.076.326 2.154v7.06c0 .934-.047 1.697-.137 2.29-.088.592-.27 1.06-.541 1.4-.283.35-.674.597-1.113.702-.468.127-1.082.188-1.841.188-1.158 0-1.978-.099-2.466-.297-.49-.196-.879-.585-1.165-1.157a2.863 2.863 0 0 1-.272-1.05 27.62 27.62 0 0 1-.054-2.075V18.984c0-.935.044-1.68.134-2.237.093-.56.289-.99.597-1.294a2.285 2.285 0 0 1 1.275-.593c.54-.089 1.265-.135 2.167-.135h11.549Zm16.043 20.802c0 .936-.043 1.699-.135 2.291-.09.593-.27 1.06-.54 1.401-.284.35-.673.596-1.112.702-.472.127-1.082.188-1.844.188-1.119 0-1.924-.099-2.412-.297-.487-.196-.876-.585-1.166-1.157a2.94 2.94 0 0 1-.272-1.053 27.61 27.61 0 0 1-.052-2.075V7.344c0-1.256.146-2.118.434-2.586.288-.468.813-.702 1.571-.702.76 0 1.228.234 1.518.702.289.468.433 1.33.433 2.586v4.742c0 .864.11 1.45.324 1.754.22.306.708.547 1.466.725.759.216 1.247.504 1.463.865.216.356.324 1.075.324 2.153V35.53v-.003Zm24.233-10.994c0 .864-.054 1.573-.162 2.13-.109.557-.306.98-.595 1.267-.29.287-.704.483-1.248.592a11.59 11.59 0 0 1-2.169.163h-5.366c-1.229 0-2.016.17-2.358.511-.343.34-.514 1.124-.514 2.344v1.724c0 .649.025 1.16.081 1.536.028.327.172.633.405.865.253.213.565.344.896.376.513.062 1.028.089 1.544.081h3.199c.794 0 1.354-.127 1.681-.379.324-.251.524-.699.596-1.347l.108-.916c.106-1.22.74-1.83 1.897-1.83 1.338 0 2.005.933 2.005 2.802v1.508c0 .897-.054 1.617-.162 2.156-.073.469-.28.908-.595 1.266-.29.305-.704.504-1.248.593a13.87 13.87 0 0 1-2.169.134h-11.545c-.869 0-1.584-.045-2.142-.134-.56-.09-.986-.288-1.274-.593a2.532 2.532 0 0 1-.598-1.266 11.623 11.623 0 0 1-.162-2.156V18.984c0-.935.045-1.68.137-2.237.09-.56.29-.99.597-1.294.35-.327.796-.534 1.271-.593.544-.089 1.267-.135 2.171-.135h11.545c.904 0 1.636.046 2.196.135.56.089.985.287 1.275.593.289.305.478.737.567 1.294.09.557.136 1.302.136 2.237v5.549Zm-3.956-3.07c0-1.22-.173-2.003-.515-2.344-.344-.343-1.128-.514-2.36-.514h-6.233c-.65 0-1.165.026-1.544.082-.323.028-.629.16-.868.376-.218.24-.351.543-.378.865-.054.376-.083.89-.083 1.536v.376c0 .646.029 1.16.083 1.536.052.376.178.673.378.89.2.213.486.348.868.404.379.05.894.079 1.544.079h6.233c1.232 0 2.016-.17 2.36-.509.342-.343.515-1.144.515-2.4v-.38.004Zm28.188 14.497c0 .897-.054 1.617-.164 2.156-.074.47-.281.908-.596 1.266-.286.305-.705.504-1.245.593a13.86 13.86 0 0 1-2.167.134h-11.549c-.866 0-1.581-.053-2.142-.162-.56-.107-.983-.306-1.271-.593-.29-.287-.491-.71-.598-1.266a11.412 11.412 0 0 1-.163-2.128V29.06c0-.933.045-1.678.135-2.238.091-.556.289-.986.597-1.291a2.283 2.283 0 0 1 1.275-.593c.541-.091 1.265-.134 2.167-.134h8.892c.614 0 1.112-.038 1.49-.11.322-.044.625-.185.866-.404.22-.24.364-.54.407-.862.072-.376.11-.872.11-1.482v-.483c0-.61-.027-1.107-.081-1.483a1.482 1.482 0 0 0-.38-.864 1.499 1.499 0 0 0-.868-.377 11.568 11.568 0 0 0-1.544-.081h-6.505c-.904 0-1.53.091-1.872.27-.344.18-.551.574-.623 1.187l-.106.753c-.184 1.187-.834 1.78-1.953 1.78-.76 0-1.284-.217-1.574-.649-.288-.432-.433-1.22-.433-2.37v-.646c0-.935.045-1.68.135-2.237.091-.56.289-.99.597-1.294a2.285 2.285 0 0 1 1.275-.593c.541-.089 1.265-.135 2.167-.135h11.601c.903 0 1.627.046 2.169.135.54.089.959.287 1.247.593.286.305.481.737.569 1.294.09.557.135 1.302.135 2.237V35.96Zm-9.542-7.222c-1.226 0-2.012.17-2.356.511-.342.341-.517 1.124-.517 2.345v1.724c0 .648.029 1.16.083 1.535.027.328.173.634.407.865.252.213.563.344.893.376.513.062 1.028.09 1.544.082h2.659c.614 0 1.112-.036 1.49-.11.322-.044.625-.184.866-.401.218-.233.36-.525.407-.84.072-.356.11-.841.11-1.451v-1.618c0-.683-.027-1.22-.081-1.617a1.66 1.66 0 0 0-.38-.915 1.413 1.413 0 0 0-.868-.407 11.532 11.532 0 0 0-1.544-.079h-2.713Zm33.824 7.222c0 .897-.054 1.617-.164 2.156-.074.47-.281.908-.596 1.266-.288.305-.705.504-1.245.593-.718.101-1.444.146-2.169.134h-11.549c-.9 0-1.625-.045-2.165-.134a2.296 2.296 0 0 1-1.277-.593 2.264 2.264 0 0 1-.595-1.266 13.644 13.644 0 0 1-.135-2.156v-1.78c0-1.22.145-2.055.433-2.505.29-.45.794-.674 1.52-.674.685 0 1.166.178 1.434.54.272.358.443 1.042.517 2.049.036 1.15.216 1.876.542 2.181.324.306 1.027.458 2.115.458h2.872a8.774 8.774 0 0 0 1.545-.107c.324-.045.624-.187.866-.407.219-.239.361-.538.406-.859.072-.379.11-.872.11-1.482v-1.78c0-1.22-.171-1.994-.516-2.317-.344-.323-1.127-.483-2.357-.483h-5.367c-.866 0-1.581-.056-2.142-.162-.56-.11-.983-.316-1.273-.62a2.507 2.507 0 0 1-.596-1.267 11.052 11.052 0 0 1-.163-2.156v-5.605c0-.935.045-1.68.135-2.237.091-.56.289-.99.595-1.294.353-.327.8-.534 1.277-.593.54-.089 1.263-.135 2.167-.135h11.655c.903 0 1.627.046 2.169.135.477.06.923.267 1.274.593.306.305.506.737.596 1.294.09.557.135 1.302.135 2.237v1.132c0 .933-.153 1.597-.461 1.993-.308.394-.821.593-1.544.593-.65 0-1.129-.163-1.437-.483-.307-.326-.514-.865-.626-1.62-.07-.826-.268-1.355-.594-1.59-.324-.233-1.031-.35-2.115-.35h-6.397c-.614 0-1.111.036-1.491.11a1.615 1.615 0 0 0-.864.404 1.483 1.483 0 0 0-.383.861c-.059.492-.086.988-.079 1.483v.432c0 .61.036 1.104.108 1.48.043.323.187.624.407.865.198.195.487.32.865.376.382.05.879.079 1.493.079h8.89c.903 0 1.634.056 2.196.163.56.106.984.315 1.274.62.29.305.479.737.569 1.291.09.56.135 1.305.135 2.238v6.899Zm24.287.808c0 1.256-.145 2.129-.435 2.614-.29.483-.812.727-1.573.727-.758 0-1.273-.234-1.545-.701-.27-.466-.407-1.328-.407-2.586V21.464c0-1.223-.171-2.004-.514-2.347-.342-.341-1.129-.509-2.357-.509h-6.179c-1.229-.003-2.016.168-2.358.509-.344.343-.517 1.123-.517 2.344v1.51c0 .862.108 1.447.328 1.752.214.306.704.547 1.46.727.761.217 1.247.504 1.465.862.216.359.328 1.079.328 2.157v7.058c0 .936-.047 1.699-.137 2.291-.09.593-.272 1.06-.544 1.401-.281.35-.673.597-1.112.702-.468.127-1.082.188-1.842.188-1.157 0-1.978-.099-2.467-.297-.488-.196-.877-.585-1.165-1.157a2.878 2.878 0 0 1-.27-1.053 25.643 25.643 0 0 1-.056-2.075V7.344c0-1.256.146-2.118.436-2.586.29-.468.812-.702 1.571-.702.76 0 1.275.234 1.545.702.271.468.406 1.33.406 2.586v4.905c0 .971.173 1.627.517 1.968.342.34 1.019.51 2.03.51h9.218c.904 0 1.626.046 2.166.136.477.058.925.266 1.276.592.308.305.504.737.596 1.294.09.557.136 1.302.136 2.238v17.784-.003Zm24.23-12.235c0 .864-.054 1.573-.162 2.13-.11.557-.306.98-.596 1.267-.289.287-.705.483-1.247.592-.716.122-1.442.177-2.169.163h-5.366c-1.229 0-2.016.17-2.358.511-.344.34-.516 1.124-.516 2.344v1.724c0 .649.028 1.16.082 1.536.029.327.173.633.409.865.252.213.563.344.893.376a11.6 11.6 0 0 0 1.544.081h3.199c.794 0 1.355-.127 1.679-.379.326-.251.526-.699.598-1.347l.108-.916c.11-1.22.741-1.83 1.897-1.83 1.337 0 2.005.933 2.005 2.802v1.508c0 .897-.054 1.617-.162 2.156-.075.469-.282.908-.596 1.266-.289.305-.705.504-1.247.593-.718.101-1.444.146-2.169.134h-11.545c-.717.01-1.431-.035-2.142-.134-.56-.09-.985-.288-1.275-.593a2.506 2.506 0 0 1-.594-1.266 11.051 11.051 0 0 1-.163-2.156V18.984c0-.935.045-1.68.135-2.237.09-.56.289-.99.595-1.294a2.291 2.291 0 0 1 1.275-.593c.542-.089 1.263-.135 2.169-.135h11.545c.904 0 1.636.046 2.198.135.558.089.983.287 1.272.593.288.305.479.737.569 1.294.092.557.135 1.302.135 2.237v5.549Zm-3.956-3.07c0-1.22-.171-2.003-.515-2.344-.344-.343-1.13-.514-2.358-.514h-6.235c-.65 0-1.165.026-1.545.082-.322.028-.628.16-.867.376-.218.24-.351.543-.38.865-.054.376-.081.89-.081 1.536v.376c0 .646.027 1.16.081 1.536.032.327.166.638.38.89.234.231.54.374.867.404.38.05.895.079 1.545.079h6.235c1.228 0 2.014-.17 2.358-.509.344-.343.515-1.144.515-2.4v-.38.004Zm28.19 14.497c0 .826-.054 1.507-.164 2.047a2.426 2.426 0 0 1-.623 1.266c-.308.305-.722.521-1.247.648-.522.127-1.203.188-2.034.188h-11.654c-.867 0-1.582-.045-2.142-.134-.559-.09-.984-.288-1.274-.593a2.545 2.545 0 0 1-.596-1.266 11.623 11.623 0 0 1-.162-2.156V18.928c0-.897.043-1.627.137-2.181.09-.56.286-.99.594-1.294a2.282 2.282 0 0 1 1.274-.593c.544-.089 1.266-.135 2.169-.135h9.27c1.01 0 1.68-.17 2.006-.51.324-.344.489-.998.489-1.969V7.341c0-1.256.142-2.118.432-2.586.288-.468.796-.702 1.519-.702.794 0 1.327.234 1.599.702.27.468.407 1.33.407 2.586V35.96Zm-13.065-17.355c-1.229 0-2.016.17-2.36.512-.342.343-.514 1.123-.514 2.344v1.51c0 .862.108 1.447.325 1.752.218.306.706.547 1.462.727.761.217 1.249.504 1.465.862.218.359.326 1.079.326 2.157v4.849c0 .648.025 1.16.081 1.535.031.327.175.633.407.865.252.213.565.344.894.376.513.062 1.03.09 1.545.082h2.603c.615 0 1.11-.036 1.49-.11.329-.049.641-.189.895-.404.234-.233.387-.535.435-.862.079-.49.115-.986.108-1.482V21.46c0-1.22-.173-2.001-.516-2.344-.342-.341-1.129-.509-2.358-.509l-6.288-.003Z"/>
      </g>
      <mask id="d" width="211" height="45" x="16" y="49" maskUnits="userSpaceOnUse" style="mask-type:luminance">
        <path fill="#fff" d="M226.6 49H16v45h210.6V49Z"/>
      </mask>
      <g mask="url(#d)">
        <path fill="#fff" d="M-170.617 82.414c0 2.05-.779 3.072-2.331 3.072-1.555 0-2.223-1.058-2.223-3.179V58.324c0-1.078-.047-1.922-.135-2.532-.093-.61-.282-1.078-.572-1.401-.286-.323-.74-.522-1.354-.593a21.974 21.974 0 0 0-2.439-.11h-2.655c-.905 0-1.62.054-2.144.163a2.169 2.169 0 0 0-1.22.646c-.288.323-.479.791-.569 1.401-.088.61-.135 1.42-.135 2.426v24.037c0 2.085-.758 3.127-2.277 3.127-.831 0-1.425-.244-1.787-.73-.364-.483-.542-1.245-.542-2.288V58.378c0-1.005-.047-1.813-.137-2.426-.09-.61-.272-1.086-.543-1.427a1.942 1.942 0 0 0-1.165-.673 10.004 10.004 0 0 0-2.005-.163h-5.584c-.794 0-1.447.053-1.951.163-.457.08-.877.307-1.193.645a2.695 2.695 0 0 0-.596 1.295 10.717 10.717 0 0 0-.162 2.1v1.726c0 .61.025 1.094.081 1.455.052.358.144.664.27.915.128.255.326.458.596.62.271.163.626.331 1.058.512.758.287 1.255.666 1.49 1.131.236.468.371 1.259.407 2.373v13.634c0 1.833-.306 3.102-.921 3.801-.614.7-1.734 1.05-3.361 1.05-1.625 0-2.747-.35-3.362-1.05-.614-.701-.922-2.003-.922-3.908V54.444c0-1.114.074-2.011.218-2.695.146-.682.414-1.213.813-1.59.398-.376.96-.635 1.682-.78a14.801 14.801 0 0 1 2.817-.216h27.484c1.123 0 2.034.063 2.741.188.702.127 1.255.386 1.651.78.398.397.659.954.786 1.671.126.72.191 1.67.191 2.858v27.754Zm24.501-12.881c0 .864-.054 1.573-.161 2.13-.11.557-.307.98-.597 1.267-.289.287-.704.483-1.247.592-.716.122-1.443.177-2.169.163h-5.363c-1.229 0-2.016.17-2.359.511-.343.34-.515 1.124-.515 2.344v1.724c0 .649.026 1.16.082 1.536.029.327.172.633.405.865.253.213.566.344.896.376.513.062 1.029.089 1.545.081h3.198c.794 0 1.355-.127 1.681-.379.325-.251.524-.699.596-1.347l.108-.916c.11-1.22.742-1.83 1.898-1.83 1.336 0 2.005.933 2.005 2.802v1.508c0 .897-.054 1.617-.161 2.156-.076.47-.283.908-.597 1.266-.29.305-.705.503-1.247.593-.719.101-1.444.146-2.17.134h-11.545c-.868 0-1.583-.045-2.141-.134-.564-.09-.985-.288-1.275-.593a2.529 2.529 0 0 1-.598-1.266 11.622 11.622 0 0 1-.16-2.156V63.984c0-.935.043-1.68.135-2.237.09-.56.29-.99.598-1.294a2.274 2.274 0 0 1 1.272-.593 13.845 13.845 0 0 1 2.169-.135h11.545c.904 0 1.637.046 2.198.135.558.089.983.287 1.273.593.289.305.478.737.568 1.294.09.557.136 1.302.136 2.237v5.549h-.003Zm-3.954-3.067c0-1.22-.172-2.004-.515-2.344-.343-.344-1.129-.514-2.356-.514h-6.236c-.651 0-1.166.026-1.544.081-.323.028-.628.16-.869.377-.218.24-.351.543-.379.864-.054.377-.082.89-.082 1.536v.377c0 .645.026 1.159.082 1.535.054.377.18.674.379.89.2.214.487.349.869.404.378.051.893.08 1.544.08h6.234c1.229 0 2.015-.171 2.356-.51.345-.343.517-1.144.517-2.4v-.376Zm10.134-12.561c0-1.256.146-2.128.435-2.614.29-.483.812-.727 1.57-.727.761 0 1.283.234 1.573.702.289.465.435 1.327.435 2.586v3.826c0 .862.08 1.399.243 1.617.162.214.59.341 1.273.377 1.665.036 2.495.702 2.495 1.993 0 1.294-.758 1.958-2.279 1.996-.794.036-1.289.16-1.489.377-.199.216-.299.755-.299 1.617v1.131c0 .862.11 1.447.325 1.752.218.306.707.547 1.465.728.758.216 1.247.503 1.462.861.218.36.326 1.079.326 2.157v8.246c0 .933-.044 1.696-.134 2.288-.092.596-.271 1.06-.542 1.404a2.05 2.05 0 0 1-1.112.7 7.36 7.36 0 0 1-1.844.187c-1.119 0-1.934-.099-2.438-.295-.507-.198-.886-.584-1.14-1.159a2.883 2.883 0 0 1-.271-1.05 26.596 26.596 0 0 1-.051-2.075V65.978l-.057-.915c0-.504-.082-.837-.243-1-.164-.16-.479-.277-.948-.348l-.706-.054c-1.373-.109-2.06-.755-2.06-1.942 0-1.328.759-1.994 2.277-1.994.397 0 .715-.025.948-.081a.753.753 0 0 0 .515-.376c.128-.271.202-.564.217-.862.036-.377.054-.89.054-1.536v-2.965Zm31.875 27.055c0 .897-.051 1.617-.161 2.156-.076.47-.282.908-.597 1.266-.289.305-.704.503-1.247.593-.718.101-1.442.146-2.167.134h-11.548c-.868 0-1.58-.053-2.141-.162-.561-.107-.986-.306-1.275-.593-.287-.287-.487-.71-.594-1.266a11.412 11.412 0 0 1-.164-2.128V74.06c0-.933.046-1.678.135-2.238.09-.556.29-.986.597-1.291a2.28 2.28 0 0 1 1.273-.593c.543-.091 1.265-.134 2.169-.134h8.89c.614 0 1.111-.038 1.49-.11a1.63 1.63 0 0 0 .871-.404c.219-.24.36-.54.405-.862.08-.49.116-.986.107-1.483v-.482c0-.61-.026-1.107-.082-1.483a1.473 1.473 0 0 0-.379-.864 1.488 1.488 0 0 0-.866-.377 11.581 11.581 0 0 0-1.546-.081h-6.506c-.901 0-1.526.092-1.869.27-.343.18-.551.574-.622 1.187l-.11.752c-.18 1.188-.83 1.78-1.952 1.78-.758 0-1.281-.216-1.57-.648-.289-.432-.435-1.22-.435-2.37v-.646c0-.935.046-1.68.135-2.237.09-.56.29-.99.597-1.294a2.284 2.284 0 0 1 1.273-.593c.543-.089 1.265-.135 2.169-.135h11.602c.901 0 1.626.046 2.166.135.543.089.958.287 1.248.593.289.305.479.737.571 1.294.089.557.133 1.302.133 2.237V80.96Zm-9.54-7.222c-1.229 0-2.016.17-2.356.511-.346.341-.518 1.124-.518 2.345v1.724c0 .648.026 1.16.083 1.535.029.327.173.634.407.865.252.213.564.344.894.376.378.054.896.082 1.544.082h2.656c.614 0 1.111-.036 1.49-.11a1.63 1.63 0 0 0 .871-.401 1.59 1.59 0 0 0 .405-.84c.071-.356.107-.841.107-1.451v-1.617c0-.684-.026-1.221-.082-1.618a1.642 1.642 0 0 0-.379-.915 1.405 1.405 0 0 0-.866-.407c-.513-.06-1.03-.087-1.546-.079h-2.71Zm33.824 7.222c0 .897-.056 1.617-.164 2.156-.075.47-.282.908-.596 1.266-.29.305-.705.503-1.248.593-.717.101-1.442.146-2.166.134H-99.5c-.904 0-1.627-.045-2.17-.134a2.277 2.277 0 0 1-1.272-.593 2.252 2.252 0 0 1-.597-1.266 13.527 13.527 0 0 1-.136-2.156v-1.78c0-1.22.146-2.055.435-2.505.287-.45.794-.674 1.517-.674.686 0 1.165.178 1.436.54.272.358.443 1.042.515 2.049.036 1.15.218 1.876.543 2.181.325.305 1.03.458 2.113.458h2.873c.651 0 1.166-.035 1.547-.107.323-.046.625-.187.866-.406.22-.24.361-.54.407-.86.072-.379.107-.872.107-1.482v-1.78c0-1.22-.17-1.994-.512-2.317-.345-.323-1.132-.483-2.36-.483h-5.366c-.868 0-1.58-.056-2.141-.162-.561-.11-.986-.316-1.276-.62a2.527 2.527 0 0 1-.596-1.267 11.455 11.455 0 0 1-.162-2.156v-5.605c0-.935.046-1.68.136-2.237.09-.56.289-.99.597-1.294a2.28 2.28 0 0 1 1.273-.593c.543-.089 1.265-.135 2.169-.135h11.652c.907 0 1.63.046 2.17.135.477.059.924.266 1.276.593.307.305.504.737.596 1.294.09.557.136 1.302.136 2.237v1.132c0 .933-.154 1.597-.461 1.993-.308.395-.822.593-1.545.593-.653 0-1.131-.163-1.436-.483-.308-.326-.517-.865-.625-1.62-.072-.826-.272-1.355-.597-1.59-.325-.233-1.029-.35-2.113-.35h-6.397c-.615 0-1.112.035-1.49.11a1.628 1.628 0 0 0-.869.404c-.217.238-.35.54-.38.861-.06.492-.088.987-.081 1.483v.432c0 .61.036 1.104.11 1.48.045.322.187.624.407.865.24.215.544.347.866.376.38.05.876.079 1.49.079h8.893c.901 0 1.633.056 2.194.163.562.106.984.315 1.274.62.288.305.478.737.57 1.291.09.56.136 1.305.136 2.238v6.899Zm4.39-17.085c0-.862.054-1.564.161-2.1.076-.476.294-.918.624-1.269a2.428 2.428 0 0 1 1.274-.618c.542-.11 1.228-.163 2.061-.163h11.602c.902 0 1.627.054 2.167.163.542.107.957.305 1.247.592.289.288.487.7.596 1.239.108.539.162 1.258.162 2.156v16.978c0 .933-.043 1.678-.136 2.238-.09.554-.28.986-.568 1.291-.29.305-.712.503-1.273.593-.727.1-1.462.145-2.195.134h-9.217c-1.011 0-1.69.163-2.034.483-.343.326-.513.972-.513 1.943v3.774c0 1.256-.137 2.118-.409 2.585-.269.468-.783.702-1.544.702-.758 0-1.28-.244-1.572-.73-.287-.483-.433-1.355-.433-2.613V63.875Zm6.83-.27c-1.229 0-2.016.17-2.356.514-.346.34-.518 1.121-.518 2.342v1.51c0 .865.11 1.447.325 1.752.219.305.705.547 1.465.727.759.217 1.248.504 1.463.865.217.356.325 1.076.325 2.154v4.851c0 .646.025 1.157.082 1.533.029.327.174.634.408.865.252.213.563.344.893.376.379.054.897.082 1.544.082h2.603c.615 0 1.11-.036 1.49-.11.323-.044.626-.184.868-.401.22-.241.362-.543.408-.865.071-.376.108-.87.108-1.48V66.46c0-1.22-.162-2-.488-2.34-.325-.344-1.101-.515-2.33-.515h-6.29Zm24.937 16.922c0 .936-.046 1.699-.136 2.291-.089.593-.271 1.06-.543 1.401a2.05 2.05 0 0 1-1.111.702 7.264 7.264 0 0 1-1.844.188c-1.119 0-1.921-.099-2.41-.297-.486-.196-.875-.585-1.166-1.157a2.893 2.893 0 0 1-.27-1.053 27.245 27.245 0 0 1-.054-2.075V52.344c0-1.256.142-2.118.432-2.586.29-.468.811-.702 1.573-.702.757 0 1.228.234 1.518.702.287.468.433 1.33.433 2.586v4.742c0 .864.108 1.45.325 1.754.215.305.705.547 1.463.725.76.216 1.247.504 1.464.865.218.356.325 1.075.325 2.153V80.53v-.003Zm24.232.433c0 .897-.055 1.617-.163 2.156-.076.47-.283.908-.596 1.266-.29.305-.706.503-1.248.593-.718.101-1.441.146-2.167.134h-11.547c-.869 0-1.58-.045-2.142-.134-.56-.09-.986-.288-1.272-.593a2.522 2.522 0 0 1-.597-1.266 11.396 11.396 0 0 1-.164-2.156V63.984c0-.935.045-1.68.136-2.237.092-.56.29-.99.597-1.294.35-.327.797-.534 1.274-.593a13.858 13.858 0 0 1 2.168-.135h11.547c.902 0 1.633.046 2.194.135.562.089.983.287 1.275.593.288.305.477.737.57 1.294.09.557.135 1.302.135 2.237V80.96Zm-13.066-17.352c-1.229 0-2.013.17-2.356.514-.344.34-.514 1.121-.514 2.342v1.51c0 .864.107 1.447.322 1.752.218.305.706.547 1.465.727.758.216 1.247.504 1.465.864.215.357.325 1.076.325 2.154v4.852c0 .646.026 1.157.08 1.533.028.327.173.633.407.865.253.213.566.344.896.376.377.053.893.081 1.545.081h2.601c.615 0 1.11-.035 1.492-.109.322-.045.622-.184.865-.402.222-.24.364-.542.409-.864.068-.377.106-.87.106-1.48V66.46c0-1.22-.162-2.001-.488-2.342-.325-.343-1.1-.514-2.33-.514l-6.29.003Zm24.937-11.264c0 1.256-.26 2.128-.786 2.611-.522.486-1.509.73-2.954.73-1.517 0-2.54-.216-3.062-.649-.525-.432-.786-1.256-.786-2.479 0-1.291.282-2.192.84-2.695.56-.5 1.597-.753 3.116-.753 1.373 0 2.324.224 2.846.674.525.448.786 1.302.786 2.56Zm0 28.186c0 .933-.046 1.696-.135 2.288-.055.507-.243.99-.541 1.404a2.05 2.05 0 0 1-1.111.7c-.472.126-1.085.187-1.845.187-1.121 0-1.922-.099-2.412-.295-.486-.198-.875-.584-1.165-1.159a2.88 2.88 0 0 1-.271-1.05 26.598 26.598 0 0 1-.054-2.075V62.906c0-1.258.144-2.12.435-2.588.286-.466.812-.7 1.57-.7s1.23.234 1.519.7c.29.468.436 1.33.436 2.588v3.88c0 .862.104 1.447.322 1.752.218.306.704.547 1.465.728.758.216 1.246.503 1.462.861.217.36.325 1.079.325 2.157v8.246Zm5.096-26.625c0-1.256.144-2.128.436-2.614.288-.483.812-.727 1.57-.727.757 0 1.283.234 1.573.702.29.465.435 1.327.435 2.586v3.826c0 .862.08 1.399.243 1.617.162.214.587.341 1.273.377 1.663.036 2.495.702 2.495 1.993 0 1.294-.762 1.958-2.281 1.996-.794.036-1.29.16-1.487.377-.2.216-.3.755-.3 1.617v1.131c0 .862.108 1.447.325 1.752.218.306.706.547 1.466.728.757.216 1.243.503 1.461.861.218.36.326 1.079.326 2.157v8.246c0 .933-.045 1.696-.135 2.288-.056.507-.243.99-.544 1.404-.28.348-.671.594-1.108.7a7.359 7.359 0 0 1-1.845.187c-1.12 0-1.934-.099-2.44-.295-.505-.198-.883-.584-1.137-1.159a2.917 2.917 0 0 1-.272-1.05 28.496 28.496 0 0 1-.054-2.075V65.978l-.054-.915c0-.504-.08-.837-.245-1-.162-.16-.477-.277-.948-.348l-.704-.054c-1.372-.109-2.061-.755-2.061-1.942 0-1.328.76-1.994 2.279-1.994.396 0 .713-.025.947-.081a.74.74 0 0 0 .516-.376 2.31 2.31 0 0 0 .216-.862c.038-.377.052-.89.052-1.536l.002-2.965ZM43.994 80.26c0 1.076-.07 1.933-.216 2.558a2.393 2.393 0 0 1-.924 1.457c-.468.341-1.127.565-1.976.674-.85.107-1.998.16-3.442.16H23.285c-1.302 0-2.35-.063-3.143-.188-.794-.127-1.417-.369-1.869-.727-.453-.359-.75-.88-.896-1.564-.16-.87-.234-1.754-.218-2.639v-28.08c0-1.94.762-2.911 2.279-2.911.832 0 1.417.226 1.76.674.346.45.517 1.195.517 2.237v7.438c0 1.078.09 1.869.268 2.37.18.503.526.844 1.033 1.024l.922.433c.358.178.659.358.895.539.234.178.414.44.54.78.127.341.207.827.246 1.455.034.63.05 1.447.05 2.454v8.083c0 .898.058 1.617.164 2.156.11.54.333.941.679 1.213.344.27.83.448 1.463.54.632.088 1.49.134 2.576.134h4.932c.834 0 1.501-.056 2.005-.163a2.347 2.347 0 0 0 1.196-.592c.313-.338.52-.76.595-1.213.121-.667.175-1.344.16-2.022V51.911c0-1.042.18-1.787.544-2.237.358-.448.94-.674 1.735-.674.794 0 1.372.226 1.736.674.358.45.54 1.195.54 2.237v28.35Zm20.385-20.535c.903 0 1.625.046 2.169.135.477.06.921.267 1.272.593.308.305.506.737.596 1.294.09.557.137 1.302.137 2.237v17.784c0 1.256-.148 2.129-.436 2.614-.288.483-.813.727-1.57.727-.76 0-1.276-.234-1.547-.699-.269-.468-.404-1.33-.404-2.588V66.464c0-1.221-.172-2.004-.516-2.345-.346-.343-1.129-.514-2.358-.514h-6.18c-1.229 0-2.016.17-2.358.514-.343.34-.516 1.121-.516 2.342v1.51c0 .865.108 1.447.326 1.752.217.305.703.547 1.461.727.762.217 1.248.504 1.465.865.22.356.326 1.076.326 2.154v7.06c0 .934-.047 1.697-.137 2.29-.088.592-.27 1.06-.541 1.4-.283.35-.674.597-1.113.702-.468.127-1.082.188-1.841.188-1.158 0-1.978-.099-2.466-.297-.49-.196-.879-.585-1.165-1.157a2.843 2.843 0 0 1-.272-1.05 27.514 27.514 0 0 1-.054-2.075V63.984c0-.935.044-1.68.134-2.237.093-.56.29-.99.597-1.294a2.283 2.283 0 0 1 1.275-.593c.54-.089 1.265-.135 2.167-.135h11.549Zm16.043 20.802c0 .936-.043 1.699-.135 2.291-.09.593-.27 1.06-.54 1.401-.284.35-.673.596-1.112.702-.472.127-1.082.188-1.844.188-1.12 0-1.924-.099-2.412-.297-.487-.196-.876-.585-1.166-1.157a2.93 2.93 0 0 1-.272-1.053 27.505 27.505 0 0 1-.052-2.075V52.344c0-1.256.146-2.118.434-2.586.288-.468.813-.702 1.571-.702.76 0 1.228.234 1.518.702.29.468.433 1.33.433 2.586v4.742c0 .864.11 1.45.324 1.754.22.305.708.547 1.466.725.76.216 1.247.504 1.463.865.216.356.324 1.075.324 2.153V80.53v-.003Zm24.233-10.994c0 .864-.054 1.573-.162 2.13-.109.557-.306.98-.595 1.267-.29.287-.704.483-1.248.592a11.59 11.59 0 0 1-2.169.163h-5.366c-1.229 0-2.016.17-2.358.511-.343.34-.514 1.124-.514 2.344v1.724c0 .649.025 1.16.08 1.536.03.326.173.633.406.865.253.213.565.344.896.376.513.062 1.028.089 1.544.081h3.199c.794 0 1.354-.127 1.681-.379.324-.251.524-.699.596-1.347l.108-.916c.106-1.22.74-1.83 1.897-1.83 1.338 0 2.005.933 2.005 2.802v1.508c0 .897-.054 1.617-.162 2.156-.073.469-.28.908-.595 1.266-.29.305-.704.503-1.248.593a13.87 13.87 0 0 1-2.169.134H88.936c-.87 0-1.584-.045-2.142-.134-.56-.09-.986-.288-1.274-.593a2.528 2.528 0 0 1-.598-1.266 11.693 11.693 0 0 1-.162-2.156V63.984c0-.935.045-1.68.137-2.237.09-.56.29-.99.597-1.294.35-.327.796-.534 1.271-.593.544-.089 1.267-.135 2.171-.135h11.545c.904 0 1.636.046 2.196.135.56.089.985.287 1.275.593.289.305.478.737.567 1.294.09.557.136 1.302.136 2.237v5.549Zm-3.956-3.07c0-1.22-.173-2.003-.515-2.344-.344-.343-1.128-.514-2.36-.514h-6.233c-.65 0-1.165.026-1.544.082a1.49 1.49 0 0 0-.868.376c-.218.24-.351.543-.378.865-.054.376-.083.89-.083 1.536v.376c0 .646.029 1.16.083 1.536.052.376.178.673.378.89.2.213.486.348.868.404.38.05.894.079 1.544.079h6.233c1.232 0 2.016-.17 2.36-.509.342-.343.515-1.144.515-2.4v-.38.004Zm28.188 14.497c0 .897-.054 1.617-.164 2.156-.074.47-.281.908-.596 1.266-.286.305-.705.503-1.245.593a13.86 13.86 0 0 1-2.167.134h-11.549c-.866 0-1.581-.053-2.142-.162-.56-.107-.983-.306-1.271-.593-.29-.287-.491-.71-.598-1.266a11.412 11.412 0 0 1-.163-2.128V74.06c0-.933.045-1.678.135-2.238.091-.556.289-.986.597-1.291a2.283 2.283 0 0 1 1.275-.593c.541-.091 1.265-.134 2.167-.134h8.892c.614 0 1.112-.038 1.49-.11.322-.044.625-.185.866-.404.22-.24.364-.54.407-.862.072-.376.11-.872.11-1.483v-.482c0-.61-.027-1.107-.081-1.483a1.482 1.482 0 0 0-.38-.864 1.499 1.499 0 0 0-.868-.377 11.568 11.568 0 0 0-1.544-.081h-6.505c-.904 0-1.53.092-1.872.27-.344.18-.551.574-.623 1.187l-.106.752c-.184 1.188-.834 1.78-1.953 1.78-.76 0-1.284-.216-1.574-.648-.288-.432-.433-1.22-.433-2.37v-.646c0-.935.045-1.68.135-2.237.091-.56.289-.99.597-1.294a2.285 2.285 0 0 1 1.275-.593c.541-.089 1.265-.135 2.167-.135h11.601c.903 0 1.627.046 2.169.135.54.089.959.287 1.247.593.286.305.481.737.569 1.294.09.557.135 1.302.135 2.237V80.96Zm-9.542-7.222c-1.226 0-2.012.17-2.356.511-.342.341-.517 1.124-.517 2.345v1.724c0 .648.029 1.16.083 1.535.027.328.173.634.407.865.252.213.563.344.893.376.513.062 1.028.09 1.544.082h2.659c.614 0 1.112-.036 1.49-.11.322-.044.625-.184.866-.401.218-.233.36-.525.407-.84.072-.356.11-.841.11-1.451v-1.617c0-.684-.027-1.221-.081-1.618a1.66 1.66 0 0 0-.38-.915 1.413 1.413 0 0 0-.868-.407 11.532 11.532 0 0 0-1.544-.079h-2.713Zm33.824 7.222c0 .897-.054 1.617-.164 2.156-.074.47-.281.908-.596 1.266-.288.305-.705.503-1.245.593-.718.101-1.444.146-2.169.134h-11.549c-.9 0-1.625-.045-2.165-.134a2.296 2.296 0 0 1-1.277-.593 2.264 2.264 0 0 1-.595-1.266 13.644 13.644 0 0 1-.135-2.156v-1.78c0-1.22.145-2.055.433-2.505.29-.45.794-.674 1.52-.674.685 0 1.166.178 1.434.54.272.358.443 1.042.517 2.049.036 1.15.216 1.876.542 2.181.324.305 1.027.458 2.115.458h2.872a8.774 8.774 0 0 0 1.545-.107c.324-.045.624-.187.866-.406.219-.24.361-.54.406-.86.072-.379.11-.872.11-1.482v-1.78c0-1.22-.171-1.994-.516-2.317-.344-.323-1.127-.483-2.357-.483h-5.367c-.866 0-1.581-.056-2.142-.162-.56-.11-.983-.316-1.273-.62a2.507 2.507 0 0 1-.596-1.267 11.052 11.052 0 0 1-.163-2.156v-5.605c0-.935.045-1.68.135-2.237.091-.56.289-.99.595-1.294.353-.327.8-.534 1.277-.593.54-.089 1.263-.135 2.167-.135h11.655c.903 0 1.627.046 2.169.135.477.06.923.267 1.274.593.306.305.506.737.596 1.294.09.557.135 1.302.135 2.237v1.132c0 .933-.153 1.597-.461 1.993-.308.395-.821.593-1.544.593-.65 0-1.129-.163-1.437-.483-.307-.326-.514-.865-.626-1.62-.07-.826-.268-1.355-.594-1.59-.324-.233-1.031-.35-2.115-.35h-6.397c-.614 0-1.111.035-1.491.11a1.615 1.615 0 0 0-.864.404 1.483 1.483 0 0 0-.383.861c-.059.492-.086.987-.079 1.483v.432c0 .61.036 1.104.108 1.48.043.323.187.624.407.865.198.195.487.32.865.376.382.05.879.079 1.493.079h8.89c.903 0 1.634.056 2.196.163.56.106.984.315 1.274.62.29.305.479.737.569 1.291.09.56.135 1.305.135 2.238v6.899Zm24.287.808c0 1.256-.145 2.129-.435 2.614-.29.483-.812.727-1.573.727-.758 0-1.273-.234-1.545-.701-.27-.466-.407-1.328-.407-2.586V66.464c0-1.224-.171-2.004-.514-2.347-.342-.341-1.129-.509-2.357-.509h-6.179c-1.229-.003-2.016.168-2.358.509-.344.343-.517 1.123-.517 2.344v1.51c0 .862.108 1.447.328 1.752.214.305.704.547 1.46.727.761.217 1.247.504 1.465.862.216.359.328 1.079.328 2.157v7.058c0 .936-.047 1.699-.137 2.291-.09.593-.272 1.06-.544 1.401-.281.35-.673.597-1.112.702-.468.127-1.082.188-1.842.188-1.157 0-1.978-.099-2.467-.297-.488-.196-.877-.585-1.165-1.157a2.878 2.878 0 0 1-.27-1.053 25.643 25.643 0 0 1-.056-2.075V52.344c0-1.256.146-2.118.436-2.586.29-.468.812-.702 1.571-.702.76 0 1.275.234 1.545.702.271.468.406 1.33.406 2.586v4.905c0 .971.173 1.627.517 1.968.342.34 1.019.51 2.03.51h9.218c.904 0 1.626.047 2.166.136.477.058.925.266 1.276.592.308.305.504.738.596 1.294.09.557.136 1.302.136 2.238v17.784-.003Zm24.23-12.235c0 .864-.054 1.573-.162 2.13-.11.557-.306.98-.596 1.267-.289.287-.705.483-1.247.592-.716.122-1.442.177-2.169.163h-5.366c-1.229 0-2.016.17-2.358.511-.344.34-.516 1.124-.516 2.344v1.724c0 .649.028 1.16.082 1.536.029.327.173.633.409.865.252.213.563.344.893.376a11.6 11.6 0 0 0 1.544.081h3.199c.794 0 1.355-.127 1.679-.379.326-.251.526-.699.598-1.347l.108-.916c.11-1.22.741-1.83 1.897-1.83 1.337 0 2.005.933 2.005 2.802v1.508c0 .897-.054 1.617-.162 2.156-.075.469-.282.908-.596 1.266-.289.305-.705.503-1.247.593-.718.101-1.444.146-2.169.134h-11.545c-.717.01-1.431-.035-2.142-.134-.56-.09-.985-.288-1.275-.593a2.506 2.506 0 0 1-.594-1.266 11.051 11.051 0 0 1-.163-2.156V63.984c0-.935.045-1.68.135-2.237.09-.56.289-.99.595-1.294a2.291 2.291 0 0 1 1.275-.593c.542-.089 1.263-.135 2.169-.135h11.545c.904 0 1.636.046 2.198.135.558.089.983.287 1.272.593.288.305.479.737.569 1.294.092.557.135 1.302.135 2.237v5.549Zm-3.956-3.07c0-1.22-.171-2.003-.515-2.344-.344-.343-1.13-.514-2.358-.514h-6.235c-.65 0-1.165.026-1.545.082-.322.028-.628.16-.867.376-.218.24-.351.543-.38.865-.054.376-.081.89-.081 1.536v.376c0 .646.027 1.16.081 1.536.032.328.166.638.38.89.234.231.54.374.867.404.38.05.895.079 1.545.079h6.235c1.228 0 2.014-.17 2.358-.509.344-.343.515-1.144.515-2.4v-.38.004Zm28.19 14.497c0 .826-.054 1.507-.164 2.047a2.426 2.426 0 0 1-.623 1.266c-.308.305-.722.521-1.247.648-.522.127-1.203.188-2.034.188h-11.654c-.867 0-1.582-.045-2.142-.134-.559-.09-.984-.288-1.274-.593a2.545 2.545 0 0 1-.596-1.266 11.623 11.623 0 0 1-.162-2.156V63.928c0-.897.043-1.627.137-2.181.09-.56.286-.99.594-1.294a2.282 2.282 0 0 1 1.274-.593c.544-.089 1.266-.135 2.169-.135h9.27c1.01 0 1.68-.17 2.006-.51.324-.344.489-.998.489-1.969v-4.905c0-1.256.142-2.118.432-2.586.288-.468.796-.702 1.519-.702.794 0 1.327.234 1.599.702.27.468.407 1.33.407 2.586V80.96Zm-13.065-17.355c-1.229 0-2.016.17-2.36.512-.342.343-.514 1.123-.514 2.344v1.51c0 .862.108 1.447.325 1.752.218.305.706.547 1.462.727.761.217 1.249.504 1.465.862.218.359.326 1.079.326 2.157v4.849c0 .648.025 1.16.081 1.535.031.327.175.633.407.865.252.213.565.344.894.376.513.062 1.03.09 1.545.082h2.603c.615 0 1.11-.036 1.49-.11.329-.049.641-.189.895-.404.234-.233.387-.535.435-.862.079-.49.115-.986.108-1.482V66.46c0-1.22-.173-2.001-.516-2.344-.342-.341-1.129-.509-2.358-.509l-6.288-.003Z"/>
      </g>
    </g>
  </g>
  <defs>
    <clipPath id="a">
      <path fill="#fff" d="M0 0h242v90H0z"/>
    </clipPath>
    <clipPath id="b">
      <path fill="#fff" d="M16 4h210.6v90H16z"/>
    </clipPath>
  </defs>
</svg>
