<svg width="34" height="34" viewBox="0 0 34 34" fill="none" xmlns="http://www.w3.org/2000/svg">
<g clip-path="url(#clip0_1388_3323)">
<mask id="mask0_1388_3323" style="mask-type:luminance" maskUnits="userSpaceOnUse" x="0" y="0" width="34" height="34">
<path d="M34 0H0V34H34V0Z" fill="white"/>
</mask>
<g mask="url(#mask0_1388_3323)">
<path d="M16.9079 3.58423C9.51651 3.58423 3.50488 9.59585 3.50488 16.9873C3.50488 24.3788 9.51651 30.3904 16.9079 30.3904C24.2994 30.3904 30.311 24.3788 30.311 16.9873C30.311 9.59585 24.2994 3.58423 16.9079 3.58423Z" fill="url(#paint0_linear_1388_3323)"/>
<path d="M15.0346 16.2561H14.2061V18.5824C14.2061 19.6363 15.0658 20.4961 16.1198 20.4961H17.5343C18.5882 20.4961 19.448 19.6363 19.448 18.5824V16.2561H18.6229C18.4322 16.2561 18.2762 16.1 18.2762 15.9094H15.3813C15.3813 16.1 15.2253 16.2561 15.0346 16.2561Z" fill="url(#paint1_linear_1388_3323)"/>
<path d="M19.7953 15.5636H18.6235C18.4328 15.5636 18.2768 15.7196 18.2768 15.9103C18.2768 16.101 18.4328 16.257 18.6235 16.257H19.4486V18.5833C19.4486 19.6372 18.5889 20.497 17.5349 20.497H16.1204C15.0665 20.497 14.2067 19.6372 14.2067 18.5833V16.257H15.0249C15.0249 16.257 15.0283 16.257 15.0318 16.257C15.1774 16.257 15.2988 16.1703 15.3508 16.0455C15.3681 16.0039 15.3785 15.9588 15.3785 15.9103V15.0401C15.3785 14.4681 15.8431 14.0035 16.4151 14.0035H17.3096C17.6008 14.0035 17.8712 14.1318 18.0549 14.3571C18.1763 14.5062 18.3947 14.527 18.5438 14.4057C18.6929 14.2843 18.7137 14.0659 18.5923 13.9168C18.2768 13.532 17.8088 13.3101 17.3096 13.3101H16.4151C15.4617 13.3101 14.6851 14.0867 14.6851 15.0401V15.5671H13.8565C13.6658 15.5671 13.5098 15.7231 13.5098 15.9138V18.5868C13.5098 20.0255 14.6782 21.1939 16.1169 21.1939H17.5314C18.9702 21.1939 20.1386 20.0255 20.1386 18.5868V15.9138C20.1386 15.7231 19.9825 15.5671 19.7919 15.5671L19.7953 15.5636Z" fill="white"/>
<path d="M16.4649 15.5623C16.2743 15.5623 16.1182 15.7183 16.1182 15.909C16.1182 16.0997 16.2743 16.2557 16.4649 16.2557H17.3178C17.5085 16.2557 17.6645 16.0997 17.6645 15.909C17.6645 15.7183 17.5085 15.5623 17.3178 15.5623H16.4649Z" fill="white"/>
<path d="M17.4767 17.8546C17.4767 17.5357 17.2167 17.2756 16.8977 17.2756C16.5788 17.2756 16.3188 17.5357 16.3188 17.8546C16.3188 18.0765 16.4436 18.2637 16.6239 18.3642V19.0334C16.6239 19.172 16.7383 19.283 16.8735 19.283H16.922C17.0607 19.283 17.1716 19.1686 17.1716 19.0334V18.3642C17.3519 18.2672 17.4767 18.0765 17.4767 17.8546Z" fill="white"/>
<path d="M11.0337 15.7335C10.843 15.7335 10.687 15.5775 10.687 15.3868V11.4276C10.687 11.1399 10.9193 10.9076 11.207 10.9076H15.1836C15.3743 10.9076 15.5303 11.0636 15.5303 11.2543C15.5303 11.445 15.3743 11.601 15.1836 11.601H11.3804V15.3868C11.3804 15.5775 11.2244 15.7335 11.0337 15.7335Z" fill="white"/>
<path d="M22.7425 15.739C22.5518 15.739 22.3958 15.583 22.3958 15.3923V11.5891H18.6099C18.4193 11.5891 18.2632 11.4331 18.2632 11.2424C18.2632 11.0518 18.4193 10.8958 18.6099 10.8958H22.5691C22.8569 10.8958 23.0892 11.128 23.0892 11.4158V15.3923C23.0892 15.583 22.9332 15.739 22.7425 15.739Z" fill="white"/>
<path d="M22.5704 23.2843H18.5938C18.4031 23.2843 18.2471 23.1283 18.2471 22.9376C18.2471 22.7469 18.4031 22.5909 18.5938 22.5909H22.397V18.8051C22.397 18.6144 22.553 18.4584 22.7437 18.4584C22.9344 18.4584 23.0904 18.6144 23.0904 18.8051V22.7643C23.0904 23.052 22.8581 23.2843 22.5704 23.2843Z" fill="white"/>
<path d="M15.1662 23.2905H11.207C10.9193 23.2905 10.687 23.0583 10.687 22.7705V18.794C10.687 18.6033 10.843 18.4473 11.0337 18.4473C11.2244 18.4473 11.3804 18.6033 11.3804 18.794V22.5972H15.1662C15.3569 22.5972 15.5129 22.7532 15.5129 22.9438C15.5129 23.1345 15.3569 23.2905 15.1662 23.2905Z" fill="white"/>
<path d="M33.8267 16.8145H30.9977C30.904 9.20118 24.7468 3.02315 17.1439 2.89834V0.173346C17.1439 0.076272 17.0676 0 16.9705 0C16.8735 0 16.7972 0.076272 16.7972 0.173346V2.89487C9.13184 2.95381 2.90874 9.15958 2.81513 16.8145H0.173346C0.076272 16.8145 0 16.8908 0 16.9879C0 17.0849 0.076272 17.1612 0.173346 17.1612H2.81513C2.90874 24.8161 9.13184 31.0219 16.7972 31.0809V33.7816C16.7972 33.8787 16.8735 33.9549 16.9705 33.9549C17.0676 33.9549 17.1439 33.8787 17.1439 33.7816V31.0774C24.7503 30.9491 30.9075 24.7745 30.9977 17.1612H33.8267C33.9237 17.1612 34 17.0849 34 16.9879C34 16.8908 33.9237 16.8145 33.8267 16.8145ZM30.3077 16.8145H28.8794C28.81 16.2771 28.4113 15.8403 27.8878 15.7224C27.3054 10.6399 23.211 6.6114 18.1978 6.01162C18.0799 5.50545 17.6604 5.12063 17.1404 5.04782C17.1404 5.04089 17.1439 5.03742 17.1439 5.03049V3.59172C24.3689 3.71653 30.2141 9.58601 30.3043 16.8145H30.3077ZM18.1562 27.2707C17.9794 26.7819 17.5148 26.4283 16.9636 26.4283C16.4124 26.4283 15.9409 26.7854 15.7675 27.2811C11.0456 26.7507 7.17651 22.9683 6.61833 18.1909C7.12104 18.0141 7.48159 17.5391 7.48159 16.9775C7.48159 16.4158 7.12104 15.9443 6.6218 15.764C7.18344 10.997 11.049 7.22504 15.7606 6.68767C15.927 7.19731 16.3985 7.56827 16.9671 7.56827C17.5356 7.56827 17.9967 7.20424 18.1666 6.69807C22.8296 7.27705 26.6363 11.0248 27.1979 15.7536C26.6848 15.927 26.3139 16.4054 26.3139 16.974C26.3139 17.5426 26.6883 18.0245 27.2014 18.1943C26.6467 22.9336 22.8331 26.6883 18.1597 27.2638L18.1562 27.2707ZM6.18844 16.3812C6.51779 16.3812 6.78821 16.6516 6.78821 16.9809C6.78821 17.3103 6.51779 17.5807 6.18844 17.5807C5.85908 17.5807 5.58866 17.3103 5.58866 16.9809C5.58866 16.6516 5.85908 16.3812 6.18844 16.3812ZM27.6035 17.5807C27.2742 17.5807 27.0038 17.3103 27.0038 16.9809C27.0038 16.6516 27.2742 16.3812 27.6035 16.3812C27.9329 16.3812 28.2033 16.6516 28.2033 16.9809C28.2033 17.3103 27.9329 17.5807 27.6035 17.5807ZM16.7972 3.58825V5.03049C16.7972 5.03049 16.7972 5.04089 16.7972 5.04782C16.2737 5.11369 15.8542 5.49505 15.7259 5.99776C10.5949 6.53166 6.51433 10.5117 5.92148 15.719C5.38758 15.8299 4.97848 16.2702 4.90568 16.818H3.50158C3.59519 9.5444 9.50974 3.65066 16.7903 3.59172L16.7972 3.58825ZM3.50851 17.1612H4.91261C4.98889 17.702 5.39451 18.1389 5.92495 18.2464C6.50739 23.367 10.6573 27.4198 15.719 27.9745C15.8334 28.4945 16.2633 28.8863 16.7972 28.9556C16.7972 28.9626 16.7972 28.966 16.7972 28.973V30.3875C9.51667 30.3285 3.60212 24.4348 3.50851 17.1612ZM17.1439 30.384V28.973C17.1439 28.973 17.1439 28.9626 17.1404 28.9556C17.6708 28.8794 18.1007 28.4807 18.2082 27.9606C23.2214 27.3574 27.3123 23.3219 27.8913 18.2359C28.4079 18.1181 28.8031 17.6882 28.8794 17.1577H30.3077C30.2141 24.3897 24.3689 30.2557 17.1473 30.3805L17.1439 30.384Z" fill="white"/>
</g>
</g>
<defs>
<linearGradient id="paint0_linear_1388_3323" x1="16.9079" y1="3.58423" x2="16.9079" y2="30.3904" gradientUnits="userSpaceOnUse">
<stop stop-color="#FA0B53"/>
<stop offset="1" stop-color="#FA0B53" stop-opacity="0"/>
</linearGradient>
<linearGradient id="paint1_linear_1388_3323" x1="16.827" y1="13.9994" x2="16.827" y2="20.4961" gradientUnits="userSpaceOnUse">
<stop stop-color="#FA0B53" stop-opacity="0"/>
<stop offset="1" stop-color="#FA0B53"/>
</linearGradient>
<clipPath id="clip0_1388_3323">
<rect width="34" height="34" fill="white"/>
</clipPath>
</defs>
</svg>
