<svg width="300" height="300" viewBox="0 0 300 300" fill="none" xmlns="http://www.w3.org/2000/svg">
<path d="M234.08 148.323C255.266 124.373 263.97 101.08 254.746 86.0534C245.439 70.8623 220.312 68.1525 188.917 76.5008C179.474 54.5762 165.788 41 150.296 41C144.658 41 139.265 42.8065 134.229 46.1732C133.49 45.7353 132.696 45.3521 131.848 45.1331C129.33 44.4488 126.729 44.8046 124.485 46.0911C119.859 48.7735 118.244 54.7131 120.927 59.3662C121.2 59.8316 121.529 60.2421 121.857 60.6527C121.556 60.2969 121.282 59.9137 121.036 59.5031C117.423 64.5942 114.166 70.6433 111.319 77.4588C79.9788 70.1506 55.1529 73.5994 46.3119 88.9548C37.4983 104.255 46.8594 127.33 68.7565 150.705C65.3898 154.537 62.2969 158.369 59.5324 162.173C44.6149 182.702 40.5366 200.712 48.009 212.893C52.6347 220.42 61.2841 225.046 73.136 226.496C73.3549 227.509 73.7108 228.467 74.2308 229.37C76.0373 232.491 79.2945 234.215 82.6612 234.215C84.3035 234.215 85.9732 233.805 87.506 232.929C89.7505 231.642 91.3654 229.535 92.0223 227.044C92.3234 225.949 92.4055 224.854 92.3234 223.759H92.3781C92.4329 224.635 92.3781 225.538 92.2139 226.442C94.2394 226.223 96.3196 225.976 98.4546 225.648C102.642 224.991 106.967 224.088 111.401 222.993C120.844 245.383 134.667 259.287 150.323 259.287C165.98 259.287 180.542 244.616 190.012 221.159C201.015 223.814 211.252 225.21 220.312 225.21C237.584 225.21 250.585 220.256 256.47 210.019C265.284 194.745 255.95 171.699 234.108 148.351L234.08 148.323Z" fill="url(#paint0_linear_2508_4795)"/>
<path opacity="0.9" d="M150.296 41C144.658 41 139.265 42.8065 134.229 46.1732C135.652 47.0217 136.884 48.1713 137.733 49.6494C137.733 49.6768 137.76 49.7315 137.787 49.7589C141.756 47.3228 145.944 45.9816 150.296 45.9816C176.162 45.9816 197.183 92.7047 197.183 150.13C197.183 207.555 176.135 254.278 150.296 254.278C124.457 254.278 103.409 207.555 103.409 150.13C103.409 113.699 111.894 81.5919 124.676 62.9793C123.198 62.1581 121.939 60.9812 121.036 59.5031C107.296 78.9368 98.4272 111.947 98.4272 150.13C98.4272 211.333 121.228 259.26 150.296 259.26C179.365 259.26 202.165 211.333 202.165 150.13C202.165 88.9274 179.392 41 150.296 41Z" fill="white"/>
<path opacity="0.9" d="M216.836 144.19C213.469 144.19 210.212 142.439 208.406 139.346C207.119 137.101 206.763 134.473 207.448 131.983C208.132 129.492 209.72 127.384 211.964 126.098C216.617 123.415 222.557 125.003 225.239 129.656C226.526 131.901 226.881 134.528 226.197 137.019C225.513 139.51 223.925 141.617 221.681 142.904C220.148 143.78 218.478 144.19 216.836 144.19ZM216.809 129.766C216.015 129.766 215.194 129.957 214.455 130.395C212.183 131.709 211.417 134.61 212.73 136.855C214.044 139.099 216.946 139.893 219.19 138.579C220.285 137.95 221.079 136.937 221.38 135.705C221.708 134.473 221.544 133.214 220.914 132.12C220.039 130.614 218.451 129.766 216.809 129.766Z" fill="white"/>
<path opacity="0.9" d="M225.13 139.4C224.281 140.824 223.132 142.028 221.653 142.877C221.571 142.931 221.462 142.959 221.38 143.013C247.465 167.511 260.63 192.72 252.118 207.501C239.418 229.535 182.567 221.542 127.961 190.092C73.3549 158.642 37.9089 113.452 50.6093 91.4182C63.3096 69.3841 120.16 77.3766 174.766 108.826C186.782 115.751 197.868 123.333 207.721 131.189C208.324 129.547 209.309 128.096 210.65 127.001C200.714 119.173 189.519 111.564 177.257 104.502C118.354 70.5885 60.8188 63.7456 46.2846 88.9547C31.7503 114.164 66.5394 160.504 125.443 194.444C160.451 214.617 194.939 225.21 220.258 225.21C237.529 225.21 250.53 220.256 256.415 210.019C266.351 192.802 253.213 165.677 225.13 139.428V139.4Z" fill="white"/>
<path opacity="0.9" d="M129.357 64.2111C128.508 64.2111 127.66 64.1016 126.839 63.8826C124.321 63.1983 122.24 61.6108 120.954 59.3663C118.271 54.7405 119.859 48.7736 124.512 46.0911C126.757 44.8047 129.384 44.4489 131.875 45.1331C134.393 45.8174 136.474 47.405 137.76 49.6494C140.442 54.2752 138.855 60.2422 134.202 62.9246C132.696 63.8005 131.054 64.2384 129.357 64.2384V64.2111ZM129.33 49.7863C128.536 49.7863 127.715 49.9779 126.976 50.4158C124.731 51.7297 123.937 54.631 125.251 56.8755C125.881 57.9704 126.894 58.7641 128.125 59.0652C129.33 59.3937 130.616 59.2294 131.711 58.5999C133.983 57.2861 134.749 54.3847 133.435 52.1402C132.559 50.6348 130.972 49.7863 129.33 49.7863Z" fill="white"/>
<path opacity="0.9" d="M254.718 86.0533C239.5 61.2547 182.184 69.6851 124.238 105.241C96.9218 121.992 73.9297 142.219 59.505 162.146C44.6149 182.702 40.5366 200.712 48.009 212.893C52.6348 220.447 61.3115 225.046 73.2181 226.524C72.8896 225.046 72.917 223.485 73.3276 221.98C73.3823 221.816 73.4644 221.651 73.5192 221.487C63.3917 220.173 55.9741 216.369 52.2516 210.32C46.0109 200.138 50.1166 183.66 63.5286 165.129C77.5701 145.696 100.069 125.961 126.839 109.538C161.026 88.5714 196.39 77.0754 220.997 77.0754C235.066 77.0754 245.631 80.8253 250.476 88.7083C263.778 110.386 229.619 156.535 175.888 189.49C149.119 205.913 121.337 216.998 97.6608 220.748C95.6901 221.049 93.8014 221.296 91.9402 221.487C92.4602 223.075 92.5697 224.799 92.2139 226.469C94.2394 226.25 96.3196 226.004 98.4546 225.675C122.76 221.843 151.199 210.511 178.516 193.76C236.461 158.204 269.964 110.934 254.746 86.1354L254.718 86.0533Z" fill="white"/>
<path opacity="0.9" d="M91.0643 219.653C89.7778 217.409 87.6702 215.794 85.1794 215.137C82.6612 214.453 80.061 214.809 77.8165 216.095C75.572 217.382 73.9571 219.489 73.3002 221.98C72.6159 224.498 72.9717 227.098 74.2582 229.343C76.0647 232.463 79.3219 234.188 82.6886 234.188C84.3309 234.188 86.0006 233.777 87.5334 232.901C89.7778 231.615 91.3927 229.507 92.0497 227.016C92.7066 224.525 92.3781 221.898 91.0916 219.653H91.0643Z" fill="white"/>
<path opacity="0.9" d="M150.296 134.747C141.811 134.747 134.913 141.645 134.913 150.13C134.913 158.615 141.811 165.513 150.296 165.513C158.781 165.513 165.679 158.615 165.679 150.13C165.679 141.645 158.781 134.747 150.296 134.747Z" fill="white"/>
<path opacity="0.9" d="M124.54 135.568C124.074 135.568 123.582 135.432 123.171 135.158C122.021 134.391 121.72 132.859 122.487 131.709C128.7 122.348 139.101 116.737 150.296 116.737C161.491 116.737 171.892 122.321 178.106 131.709C178.872 132.859 178.543 134.391 177.421 135.158C176.272 135.924 174.739 135.596 173.972 134.474C168.662 126.508 159.821 121.746 150.296 121.746C140.771 121.746 131.93 126.508 126.62 134.474C126.127 135.185 125.361 135.596 124.54 135.596V135.568Z" fill="white"/>
<path opacity="0.9" d="M139.539 181.58C139.238 181.58 138.964 181.525 138.663 181.415C127.906 177.392 119.804 167.921 117.56 156.699C117.286 155.358 118.162 154.044 119.503 153.77C120.844 153.497 122.158 154.372 122.432 155.714C124.348 165.266 131.246 173.341 140.415 176.762C141.701 177.255 142.358 178.678 141.866 179.965C141.483 180.978 140.552 181.58 139.539 181.58Z" fill="white"/>
<path opacity="0.9" d="M162.668 180.895C161.71 180.895 160.807 180.348 160.396 179.417C159.849 178.158 160.396 176.68 161.683 176.133C170.168 172.383 176.326 164.774 178.16 155.714C178.434 154.372 179.748 153.497 181.089 153.77C182.43 154.044 183.306 155.358 183.032 156.699C180.897 167.319 173.671 176.297 163.681 180.676C163.352 180.813 163.024 180.895 162.668 180.895Z" fill="white"/>
<path opacity="0.9" d="M150.296 184.727C152.79 184.727 154.812 182.705 154.812 180.211C154.812 177.717 152.79 175.695 150.296 175.695C147.802 175.695 145.78 177.717 145.78 180.211C145.78 182.705 147.802 184.727 150.296 184.727Z" fill="white"/>
<path opacity="0.9" d="M120.023 148.707C122.518 148.707 124.54 146.685 124.54 144.191C124.54 141.696 122.518 139.674 120.023 139.674C117.529 139.674 115.507 141.696 115.507 144.191C115.507 146.685 117.529 148.707 120.023 148.707Z" fill="white"/>
<path opacity="0.9" d="M180.569 148.707C183.063 148.707 185.085 146.685 185.085 144.191C185.085 141.696 183.063 139.674 180.569 139.674C178.075 139.674 176.053 141.696 176.053 144.191C176.053 146.685 178.075 148.707 180.569 148.707Z" fill="white"/>
<defs>
<linearGradient id="paint0_linear_2508_4795" x1="148.052" y1="307.817" x2="153.8" y2="33.5823" gradientUnits="userSpaceOnUse">
<stop stop-color="#FFDF00" stop-opacity="0"/>
<stop offset="1" stop-color="#FFDF00" stop-opacity="0.96"/>
</linearGradient>
</defs>
</svg>
