<svg width="34" height="34" viewBox="0 0 34 34" fill="none" xmlns="http://www.w3.org/2000/svg">
<path d="M31.3944 5.67407H7.08888C6.53066 5.67407 6.07812 6.12661 6.07812 6.68483V25.9735C6.07812 26.5318 6.53066 26.9843 7.08888 26.9843H31.3944C31.9526 26.9843 32.4051 26.5318 32.4051 25.9735V6.68483C32.4051 6.12661 31.9526 5.67407 31.3944 5.67407Z" fill="url(#paint0_linear_1388_3356)"/>
<path d="M9.20041 8.81036C9.71398 8.81036 10.1303 8.39403 10.1303 7.88046C10.1303 7.36689 9.71398 6.95056 9.20041 6.95056C8.68684 6.95056 8.27051 7.36689 8.27051 7.88046C8.27051 8.39403 8.68684 8.81036 9.20041 8.81036Z" fill="white"/>
<path d="M12.6721 8.81036C13.1857 8.81036 13.602 8.39403 13.602 7.88046C13.602 7.36689 13.1857 6.95056 12.6721 6.95056C12.1585 6.95056 11.7422 7.36689 11.7422 7.88046C11.7422 8.39403 12.1585 8.81036 12.6721 8.81036Z" fill="white"/>
<path d="M33.0835 9.23509V6.6846C33.0835 5.7547 32.3288 5 31.3989 5H7.09009C6.16019 5 5.40549 5.7547 5.40549 6.6846V9.25194C4.90684 9.41029 4.54297 9.87187 4.54297 10.4244C4.54297 10.977 4.90684 11.4386 5.40549 11.5969V15.9061H6.07933V11.6205C6.56449 11.4992 6.93174 11.0915 6.99912 10.5861H18.0366C18.1175 11.2027 18.6397 11.6811 19.2765 11.6811C19.9133 11.6811 20.4355 11.2027 20.5164 10.5861H31.5404C31.6044 11.0713 31.9481 11.4655 32.4063 11.6036V25.9733C32.4063 26.5292 31.9515 26.9841 31.3955 26.9841H10.2774L9.63047 27.6579H31.3989C32.3288 27.6579 33.0835 26.9032 33.0835 25.9733V11.6138C33.6091 11.4722 33.9999 10.9972 33.9999 10.4244C33.9999 9.85166 33.6091 9.3766 33.0835 9.23509ZM19.2765 11.0073C18.9564 11.0073 18.6936 10.7445 18.6936 10.4244C18.6936 10.1043 18.9564 9.84155 19.2765 9.84155C19.5966 9.84155 19.8594 10.1043 19.8594 10.4244C19.8594 10.7445 19.5966 11.0073 19.2765 11.0073ZM32.4097 9.2452C31.9548 9.38334 31.6145 9.76743 31.5438 10.2492H20.5164C20.4288 9.6394 19.9099 9.16771 19.2765 9.16771C18.6431 9.16771 18.1242 9.6394 18.0366 10.2492H6.99912C6.92837 9.75058 6.56112 9.34965 6.0827 9.22835V6.6846C6.0827 6.12868 6.53754 5.67384 7.09346 5.67384H31.3989C31.9548 5.67384 32.4097 6.12868 32.4097 6.6846V9.2452Z" fill="white"/>
<path d="M17.3688 21.6205C17.3082 21.6205 17.2442 21.6036 17.1869 21.5666L13.5448 19.2553C13.4471 19.1947 13.3864 19.0835 13.3898 18.9689C13.3898 18.8544 13.4504 18.7466 13.5482 18.6859L17.1903 16.4353C17.3486 16.3376 17.5575 16.3881 17.6552 16.5431C17.7529 16.7015 17.7058 16.9103 17.5474 17.0081L14.3635 18.9757L17.5508 21.0006C17.7091 21.1016 17.7529 21.3072 17.6552 21.4655C17.5912 21.5666 17.4834 21.6205 17.3688 21.6205Z" fill="white"/>
<path d="M25.0662 21.6205C24.955 21.6205 24.8472 21.5666 24.7798 21.4655C24.6788 21.3071 24.7259 21.1016 24.8843 21.0005L28.0716 18.9756L24.8877 17.008C24.7293 16.9103 24.6788 16.7014 24.7798 16.5431C24.8775 16.3847 25.0864 16.3375 25.2448 16.4353L28.8869 18.6859C28.9846 18.7465 29.0453 18.8543 29.0453 18.9689C29.0453 19.0835 28.988 19.1946 28.8903 19.2553L25.2482 21.5666C25.1909 21.6036 25.1302 21.6205 25.0662 21.6205Z" fill="white"/>
<path d="M20.047 22.0855C20.0032 22.0855 19.9594 22.0754 19.9156 22.0585C19.7437 21.9878 19.6629 21.789 19.737 21.6172L22.055 16.122C22.1258 15.9502 22.3245 15.8693 22.4964 15.9434C22.6682 16.0142 22.7491 16.213 22.6749 16.3848L20.3569 21.88C20.303 22.008 20.1784 22.0855 20.047 22.0855Z" fill="white"/>
<path d="M2.44603 20.1818H0.673828V24.6426C0.673828 26.6944 2.34159 28.3622 4.39343 28.3622H6.93382C8.98566 28.3622 10.6534 26.6944 10.6534 24.6426V20.1818H8.88459C8.69928 20.1818 8.54767 20.0302 8.54767 19.8448H2.77958C2.77958 20.0302 2.62797 20.1818 2.44266 20.1818H2.44603Z" fill="url(#paint1_linear_1388_3356)"/>
<path d="M7.30724 19.5074H4.17725C3.99194 19.5074 3.84033 19.659 3.84033 19.8443C3.84033 20.0296 3.99194 20.1812 4.17725 20.1812H7.30724C7.49255 20.1812 7.64416 20.0296 7.64416 19.8443C7.64416 19.659 7.49255 19.5074 7.30724 19.5074Z" fill="white"/>
<path d="M10.9904 19.5074H9.21815V18.1462C9.21815 16.6638 8.01197 15.4576 6.52952 15.4576H4.92578C3.36921 15.4576 2.10575 16.7244 2.10575 18.2776V19.5074H0.336921C0.151614 19.5074 0 19.659 0 19.8443V24.6421C0 27.0645 1.97099 29.0355 4.39345 29.0355H6.93383C9.35629 29.0355 11.3273 27.0645 11.3273 24.6421V19.8443C11.3273 19.659 11.1757 19.5074 10.9904 19.5074ZM10.6534 24.6421C10.6534 26.6939 8.98567 28.3617 6.93383 28.3617H4.39345C2.3416 28.3617 0.673841 26.6939 0.673841 24.6421V20.1812H2.4292C2.4292 20.1812 2.43931 20.1812 2.44267 20.1812C2.62798 20.1812 2.7796 20.0296 2.7796 19.8443V18.281C2.7796 17.0984 3.74319 16.1348 4.92578 16.1348H6.52952C7.64136 16.1348 8.54431 17.0378 8.54431 18.1496V19.8477C8.54431 20.033 8.69592 20.1846 8.88123 20.1846H10.6501V24.6454L10.6534 24.6421Z" fill="white"/>
<path d="M6.77797 23.3386C6.77797 22.7625 6.31302 22.2975 5.73689 22.2975C5.16075 22.2975 4.6958 22.7625 4.6958 23.3386C4.6958 23.7328 4.91817 24.0731 5.24498 24.2517V25.4545C5.24498 25.7038 5.44714 25.906 5.69646 25.906H5.78406C6.03338 25.906 6.23553 25.7038 6.23553 25.4545V24.2517C6.55897 24.0765 6.78471 23.7362 6.78471 23.3386H6.77797Z" fill="white"/>
<defs>
<linearGradient id="paint0_linear_1388_3356" x1="19.2416" y1="5.67407" x2="19.2416" y2="26.9843" gradientUnits="userSpaceOnUse">
<stop stop-color="#FFC700"/>
<stop offset="1" stop-color="#FFC700" stop-opacity="0"/>
</linearGradient>
<linearGradient id="paint1_linear_1388_3356" x1="5.66363" y1="17.8677" x2="5.66363" y2="28.3622" gradientUnits="userSpaceOnUse">
<stop stop-color="#FFC700" stop-opacity="0"/>
<stop offset="1" stop-color="#FFC700"/>
</linearGradient>
</defs>
</svg>
